<?xml version="1.0" encoding="utf-8"?>
<!-- Generator: Adobe Illustrator 26.0.0, SVG Export Plug-In . SVG Version: 6.00 Build 0)  -->
<svg version="1.1" id="Capa_1" xmlns="http://www.w3.org/2000/svg" xmlns:xlink="http://www.w3.org/1999/xlink" x="0px" y="0px"
	 viewBox="0 0 665.7 101.07" style="enable-background:new 0 0 665.7 101.07;" xml:space="preserve">
<style type="text/css">
	.st0{fill:#C23346;}
	.st1{fill:#111011;}
	.st2{fill:#DDA297;}
	.st3{fill:#E8E8F3;}
	.st4{fill:#972334;}
</style>
<g>
	<path class="st0" d="M56.27,31.85c-1.45-1.57-2.97-2.79-4.57-3.66c-1.6-0.87-3.08-1.51-4.44-1.91c-1.36-0.4-2.5-0.64-3.42-0.71
		s-1.43-0.11-1.55-0.11c-1.48,0-2.68,0.18-3.59,0.55c-0.92,0.37-1.63,0.84-2.15,1.42c-0.52,0.58-0.87,1.23-1.06,1.95
		c-0.19,0.73-0.29,1.46-0.29,2.2c0,0.71,0.08,1.45,0.24,2.22c0.16,0.77,0.44,1.47,0.82,2.11c0.38,0.64,0.9,1.16,1.55,1.58
		c0.65,0.41,1.48,0.62,2.48,0.62c0.06,0,0.29,0,0.71-0.02c0.41-0.01,0.93-0.13,1.55-0.35c0.62-0.22,1.31-0.61,2.06-1.15
		c0.75-0.55,1.51-1.34,2.28-2.37v18.05c-0.62-1.12-1.3-2.01-2.04-2.66c-0.74-0.65-1.44-1.13-2.11-1.44
		c-0.66-0.31-1.26-0.5-1.77-0.58c-0.52-0.07-0.87-0.11-1.04-0.11c-0.98,0-1.78,0.16-2.42,0.49c-0.64,0.32-1.14,0.78-1.51,1.35
		c-0.37,0.58-0.63,1.27-0.78,2.08c-0.15,0.81-0.22,1.71-0.22,2.68c0.09,2.28,0.31,4.63,0.67,7.05c0.15,1.03,0.34,2.13,0.58,3.28
		c0.24,1.15,0.53,2.35,0.89,3.57c0.36,1.23,0.77,2.45,1.24,3.68c0.47,1.23,1.02,2.43,1.64,3.62c-0.65-0.03-1.36-0.07-2.13-0.14
		c-0.68-0.06-1.47-0.1-2.37-0.13c-0.9-0.03-1.91-0.04-3.04-0.04c-1.33,0-2.78,0.04-4.35,0.11c-1.57,0.07-3.16,0.2-4.79,0.38
		c-1.63,0.18-3.27,0.42-4.92,0.73c-1.66,0.31-3.24,0.7-4.75,1.18c0.65-1.33,1.21-3.02,1.69-5.06c0.47-2.04,0.86-4.21,1.18-6.52
		c0.31-2.31,0.55-4.66,0.73-7.05c0.18-2.39,0.31-4.62,0.4-6.67c0.09-2.06,0.14-3.84,0.15-5.37c0.01-1.52,0.02-2.57,0.02-3.13
		c0-0.12-0.01-0.58-0.02-1.38c-0.02-0.8-0.04-1.83-0.07-3.1c-0.03-1.27-0.07-2.73-0.13-4.37s-0.14-3.35-0.24-5.12
		s-0.24-3.56-0.4-5.37c-0.16-1.8-0.35-3.51-0.58-5.12c-0.22-1.61-0.47-3.06-0.75-4.35c-0.28-1.29-0.61-2.31-1-3.08
		c2.84,0.59,5.73,1.01,8.67,1.26c2.94,0.25,5.85,0.38,8.72,0.38c3.28,0,6.39-0.11,9.31-0.33c2.93-0.22,5.5-0.48,7.72-0.78
		c2.6-0.33,5-0.71,7.19-1.15V31.85z"/>
	<path class="st1" d="M11.78,79l1.02-2.09c0.61-1.25,1.15-2.88,1.61-4.85c0.46-2,0.85-4.16,1.16-6.43c0.31-2.29,0.55-4.64,0.73-6.99
		c0.18-2.38,0.31-4.6,0.4-6.64c0.09-2.04,0.14-3.82,0.15-5.33c0.01-1.52,0.02-2.56,0.02-3.12c0-0.12-0.01-0.57-0.02-1.36l-0.07-3.1
		c-0.03-1.27-0.07-2.72-0.13-4.36c-0.06-1.63-0.14-3.33-0.24-5.1c-0.1-1.76-0.24-3.54-0.4-5.34c-0.16-1.79-0.35-3.48-0.57-5.08
		c-0.22-1.58-0.47-3.02-0.74-4.27c-0.26-1.2-0.57-2.16-0.92-2.85l-0.92-1.84l2.02,0.42c2.77,0.58,5.65,1,8.55,1.25
		c6.21,0.53,12.43,0.45,17.87,0.04c2.9-0.22,5.48-0.48,7.66-0.77c2.58-0.32,4.97-0.71,7.12-1.14l1.2-0.24V34.4l-1.73-1.87
		c-1.37-1.48-2.82-2.64-4.31-3.46c-1.53-0.83-2.95-1.45-4.24-1.82c-1.29-0.38-2.37-0.61-3.21-0.67c-0.85-0.07-1.34-0.11-1.48-0.11
		c-1.34,0-2.42,0.16-3.21,0.48c-0.77,0.31-1.37,0.7-1.78,1.16c-0.42,0.46-0.69,0.97-0.84,1.54c-0.17,0.64-0.26,1.29-0.26,1.94
		c0,0.64,0.08,1.32,0.22,2.01c0.14,0.66,0.37,1.26,0.7,1.8c0.31,0.51,0.71,0.92,1.23,1.25c0.48,0.31,1.14,0.46,1.95,0.46
		c0.06,0,0.28,0,0.67-0.02c0.22-0.01,0.61-0.07,1.26-0.3c0.53-0.19,1.14-0.53,1.81-1.02c0.67-0.49,1.36-1.21,2.07-2.16l1.8-2.41
		v24.92l-1.87-3.38c-0.56-1.02-1.18-1.82-1.83-2.4c-0.67-0.58-1.3-1.02-1.87-1.28c-0.57-0.27-1.07-0.43-1.49-0.49
		c-0.45-0.07-0.75-0.1-0.9-0.1c-0.81,0-1.47,0.13-1.96,0.38c-0.48,0.24-0.85,0.57-1.12,1c-0.3,0.47-0.51,1.05-0.64,1.72
		c-0.14,0.75-0.21,1.59-0.21,2.51c0.09,2.2,0.31,4.54,0.65,6.91c0.15,1.02,0.33,2.09,0.57,3.22c0.23,1.12,0.52,2.29,0.87,3.5
		c0.35,1.19,0.76,2.4,1.22,3.6c0.46,1.18,0.99,2.37,1.59,3.51l0.81,1.54l-1.74-0.08c-0.66-0.03-1.38-0.08-2.16-0.14
		c-0.67-0.06-1.45-0.1-2.33-0.13c-1.94-0.06-4.45-0.07-7.3,0.07c-1.54,0.07-3.13,0.2-4.73,0.37c-1.6,0.17-3.23,0.42-4.85,0.72
		c-1.61,0.3-3.17,0.69-4.63,1.15L11.78,79z M16.24,12.99c0.14,0.47,0.27,0.98,0.4,1.55c0.29,1.3,0.54,2.79,0.77,4.42
		c0.22,1.63,0.42,3.35,0.58,5.17c0.16,1.82,0.3,3.61,0.4,5.4c0.11,1.78,0.19,3.5,0.25,5.15c0.06,1.65,0.1,3.11,0.13,4.38l0.07,3.11
		c0.01,0.81,0.02,1.27,0.02,1.4c0,0.56-0.01,1.61-0.02,3.14c-0.02,1.53-0.07,3.33-0.15,5.4c-0.09,2.06-0.22,4.3-0.4,6.7
		c-0.18,2.39-0.42,4.79-0.74,7.11c-0.31,2.33-0.71,4.55-1.19,6.61c-0.28,1.22-0.6,2.32-0.95,3.31c0.93-0.24,1.88-0.45,2.85-0.63
		c1.67-0.31,3.35-0.56,5-0.74c1.64-0.18,3.27-0.31,4.85-0.38c2.92-0.14,5.47-0.14,7.46-0.07c0.92,0.03,1.73,0.08,2.43,0.14
		c0.13,0.01,0.26,0.02,0.39,0.03c-0.33-0.71-0.64-1.44-0.92-2.16c-0.48-1.24-0.91-2.51-1.27-3.76c-0.36-1.26-0.67-2.48-0.9-3.65
		c-0.24-1.17-0.44-2.29-0.59-3.34c-0.36-2.44-0.58-4.85-0.67-7.15c0-1.07,0.08-2.04,0.24-2.9c0.17-0.93,0.48-1.76,0.92-2.44
		c0.46-0.73,1.1-1.3,1.9-1.7c0.77-0.4,1.74-0.6,2.87-0.6c0.2,0,0.6,0.04,1.18,0.12c0.61,0.09,1.3,0.31,2.05,0.66
		c0.75,0.35,1.52,0.87,2.34,1.59c0.13,0.11,0.26,0.24,0.39,0.36V36.81c-0.23,0.21-0.46,0.4-0.7,0.57c-0.83,0.6-1.61,1.03-2.31,1.29
		c-0.73,0.26-1.33,0.39-1.85,0.41c-0.43,0.02-0.68,0.02-0.74,0.02c-1.2,0-2.21-0.26-3.02-0.78c-0.78-0.49-1.41-1.14-1.87-1.9
		c-0.44-0.73-0.76-1.54-0.94-2.41c-0.18-0.83-0.27-1.64-0.27-2.42c0-0.82,0.11-1.65,0.32-2.45c0.23-0.87,0.66-1.66,1.28-2.36
		c0.62-0.69,1.47-1.25,2.52-1.68c1.04-0.42,2.34-0.63,3.96-0.63c0.12,0,0.67,0.04,1.63,0.11c0.99,0.08,2.18,0.33,3.62,0.75
		c1.42,0.42,2.98,1.08,4.63,1.99c1.06,0.58,2.1,1.31,3.09,2.18V12.26c-1.88,0.35-3.91,0.66-6.06,0.93
		c-2.21,0.29-4.83,0.56-7.76,0.78c-5.55,0.42-11.87,0.5-18.19-0.04C20.89,13.73,18.54,13.41,16.24,12.99z"/>
</g>
<g>
	<path class="st0" d="M113.73,76.16c-1.92-0.15-3.72-0.24-5.39-0.29c-1.67-0.04-3.22-0.07-4.64-0.07c-2.78,0-5.1,0.08-6.96,0.24
		c-1.86,0.16-3.39,0.33-4.57,0.51c-1.39,0.21-2.5,0.44-3.33,0.71c0.12-0.92,0.24-1.77,0.36-2.57c0.12-0.8,0.21-1.57,0.29-2.33
		s0.13-1.51,0.18-2.26c0.04-0.75,0.07-1.55,0.07-2.37c0-3.25-0.13-5.96-0.38-8.12c-0.25-2.16-0.61-3.96-1.09-5.41
		c-0.47-1.45-1.05-2.62-1.73-3.5c-0.68-0.89-1.43-1.69-2.26-2.39c-0.06,1.33-0.1,2.62-0.13,3.86c-0.03,1.24-0.04,2.56-0.04,3.95
		c0,1.36,0.03,2.78,0.09,4.26c0.06,1.48,0.16,3.05,0.31,4.7c0.15,1.66,0.37,3.42,0.66,5.3c0.3,1.88,0.67,3.91,1.11,6.1
		c-0.03-0.12-0.41-0.25-1.15-0.4c-0.74-0.15-1.73-0.28-2.97-0.4c-1.24-0.12-2.67-0.22-4.28-0.29c-1.61-0.07-3.29-0.11-5.03-0.11
		c-2.28,0-4.55,0.08-6.83,0.24c-2.28,0.16-4.33,0.48-6.16,0.95c0.71-0.92,1.35-2.08,1.93-3.48c0.58-1.4,1.09-2.95,1.53-4.64
		c0.44-1.69,0.82-3.46,1.13-5.32c0.31-1.86,0.58-3.7,0.82-5.5c0.53-4.23,0.89-8.74,1.06-13.53c0-1.18,0.01-2.67,0.02-4.48
		c0.01-1.8-0.02-3.77-0.09-5.9c-0.07-2.13-0.19-4.32-0.35-6.56c-0.16-2.25-0.43-4.41-0.8-6.47c-0.37-2.07-0.85-3.96-1.44-5.68
		c-0.59-1.71-1.35-3.09-2.26-4.12c2.13,0.33,4.2,0.54,6.21,0.64s3.73,0.15,5.15,0.15c1.24,0,2.39-0.03,3.44-0.09
		c1.05-0.06,2.09-0.12,3.13-0.18c1.03-0.06,2.11-0.12,3.24-0.18c1.12-0.06,2.36-0.09,3.73-0.09c1.86,0,3.74,0.1,5.63,0.29
		c1.89,0.19,3.7,0.53,5.43,1.02c1.73,0.49,3.34,1.15,4.83,2c1.49,0.84,2.79,1.91,3.9,3.19c1.11,1.29,1.98,2.83,2.62,4.63
		c0.64,1.8,0.95,3.9,0.95,6.3c0,1.33-0.17,2.66-0.51,3.99c-0.34,1.33-0.89,2.64-1.66,3.92s-1.77,2.51-2.99,3.68
		c-1.23,1.17-2.73,2.24-4.5,3.22c2.1,0.86,3.69,1.92,4.77,3.19c1.08,1.27,1.85,2.72,2.33,4.34c0.47,1.63,0.73,3.39,0.78,5.3
		c0.04,1.91,0.1,3.9,0.15,5.97c0.12,2.22,0.4,4.27,0.84,6.16c0.18,0.8,0.41,1.61,0.69,2.44c0.28,0.83,0.62,1.6,1.02,2.31
		c0.4,0.71,0.86,1.35,1.37,1.91C112.45,75.48,113.05,75.89,113.73,76.16z M84.28,37.93c0.65-0.47,1.38-1.07,2.2-1.8
		c0.81-0.72,1.57-1.52,2.26-2.39c0.69-0.87,1.28-1.8,1.75-2.77c0.47-0.97,0.71-1.95,0.71-2.93c0-0.94-0.27-1.71-0.82-2.31
		c-0.55-0.59-1.16-0.89-1.84-0.89c-0.95,0-1.7,0.44-2.26,1.31c-0.56,0.87-1,1.9-1.31,3.08s-0.52,2.37-0.62,3.57
		c-0.1,1.2-0.16,2.12-0.16,2.77c0,0.36,0,0.73,0,1.13S84.22,37.51,84.28,37.93z"/>
	<path class="st1" d="M87.66,78.7l0.2-1.56c0.12-0.92,0.24-1.79,0.36-2.59c0.11-0.78,0.21-1.54,0.28-2.28
		c0.07-0.74,0.13-1.48,0.17-2.22c0.04-0.73,0.06-1.51,0.06-2.32c0-3.2-0.12-5.89-0.37-8c-0.24-2.08-0.59-3.83-1.04-5.22
		c-0.43-1.33-0.96-2.41-1.57-3.21c-0.18-0.24-0.37-0.47-0.56-0.69c-0.02,0.53-0.03,1.06-0.04,1.57c-0.03,1.23-0.04,2.54-0.04,3.92
		c0,1.35,0.03,2.75,0.09,4.22c0.06,1.46,0.16,3.01,0.31,4.65c0.14,1.61,0.36,3.37,0.66,5.23c0.29,1.85,0.66,3.89,1.1,6.05
		l-1.95,0.45c0.08,0.32,0.31,0.49,0.39,0.53c-0.02-0.01-0.18-0.08-0.77-0.2c-0.7-0.14-1.67-0.27-2.87-0.38
		c-1.23-0.12-2.64-0.21-4.24-0.29c-3.68-0.16-7.83-0.15-11.75,0.13c-2.21,0.16-4.22,0.47-5.99,0.92l-2.82,0.73l1.79-2.31
		c0.65-0.84,1.26-1.93,1.8-3.25c0.56-1.36,1.06-2.87,1.49-4.51c0.44-1.66,0.81-3.42,1.11-5.23c0.31-1.85,0.58-3.67,0.82-5.47
		c0.52-4.17,0.88-8.69,1.06-13.43c0-1.15,0.01-2.64,0.02-4.45c0.01-1.79-0.02-3.74-0.09-5.86c-0.07-2.12-0.19-4.29-0.35-6.53
		c-0.16-2.2-0.43-4.35-0.79-6.37c-0.36-2.02-0.83-3.87-1.4-5.53c-0.55-1.58-1.24-2.86-2.07-3.79l-1.83-2.06l2.73,0.42
		c2.09,0.32,4.14,0.53,6.11,0.63c3.67,0.19,6.25,0.19,8.47,0.07l6.37-0.36c2.69-0.14,6.16-0.14,9.51,0.2
		c1.94,0.2,3.83,0.55,5.6,1.05c1.8,0.51,3.5,1.21,5.05,2.09c1.59,0.9,2.99,2.04,4.17,3.41c1.18,1.37,2.13,3.04,2.8,4.95
		c0.67,1.91,1.01,4.14,1.01,6.63c0,1.41-0.18,2.83-0.54,4.24c-0.36,1.42-0.96,2.83-1.77,4.19c-0.81,1.36-1.87,2.67-3.16,3.89
		c-0.88,0.84-1.91,1.64-3.07,2.39c1.41,0.76,2.56,1.65,3.41,2.65c1.16,1.37,2.01,2.96,2.53,4.71c0.49,1.7,0.77,3.57,0.82,5.56
		c0.04,1.91,0.1,3.89,0.15,5.96c0.11,2.12,0.39,4.14,0.82,5.96c0.17,0.78,0.39,1.56,0.66,2.34c0.26,0.77,0.58,1.48,0.95,2.14
		c0.36,0.64,0.78,1.22,1.24,1.72c0.42,0.45,0.88,0.77,1.43,0.99l6.23,2.44l-6.67-0.51c-1.91-0.15-3.69-0.24-5.34-0.28
		c-4.9-0.13-8.75-0.07-11.48,0.18c-1.84,0.16-3.36,0.33-4.51,0.5c-1.33,0.2-2.4,0.42-3.17,0.67L87.66,78.7z M83.38,46.22l1.55,1.33
		c0.88,0.75,1.68,1.61,2.4,2.54c0.75,0.97,1.38,2.25,1.89,3.8c0.49,1.51,0.87,3.4,1.13,5.61c0.25,2.19,0.38,4.96,0.38,8.23
		c0,0.85-0.02,1.66-0.07,2.43c-0.05,0.76-0.11,1.53-0.18,2.3c-0.08,0.77-0.17,1.56-0.29,2.38c-0.05,0.35-0.1,0.71-0.16,1.09
		c0.59-0.13,1.26-0.25,1.99-0.36c1.19-0.18,2.75-0.35,4.63-0.52c2.83-0.25,6.67-0.32,11.71-0.18c0.74,0.02,1.51,0.05,2.29,0.09
		c-0.35-0.45-0.68-0.94-0.97-1.46c-0.43-0.76-0.8-1.6-1.1-2.48c-0.29-0.85-0.53-1.7-0.72-2.54c-0.45-1.93-0.74-4.06-0.87-6.32
		c-0.06-2.1-0.11-4.09-0.16-6c-0.04-1.81-0.29-3.51-0.74-5.04c-0.43-1.48-1.15-2.82-2.13-3.98c-0.97-1.14-2.44-2.12-4.39-2.91
		l-1.93-0.79l1.83-1.01c1.69-0.93,3.14-1.97,4.3-3.06c1.16-1.1,2.11-2.27,2.82-3.47c0.71-1.2,1.24-2.43,1.55-3.66
		c0.32-1.24,0.48-2.5,0.48-3.74c0-2.27-0.3-4.27-0.9-5.97c-0.59-1.68-1.41-3.13-2.43-4.31c-1.03-1.19-2.25-2.2-3.64-2.98
		c-1.41-0.8-2.97-1.44-4.62-1.91c-1.67-0.47-3.44-0.8-5.26-0.99C88.56,12,85.2,12,82.6,12.13l-6.36,0.35
		c-2.29,0.13-4.95,0.13-8.69-0.07c-1.32-0.07-2.67-0.18-4.05-0.35c0.41,0.75,0.78,1.58,1.1,2.51c0.6,1.75,1.1,3.71,1.48,5.83
		c0.37,2.09,0.65,4.3,0.81,6.58c0.16,2.26,0.28,4.46,0.36,6.6c0.08,2.14,0.11,4.13,0.09,5.94c-0.02,1.8-0.02,3.29-0.02,4.47
		c-0.18,4.84-0.54,9.42-1.07,13.65c-0.24,1.82-0.51,3.66-0.83,5.54c-0.31,1.88-0.7,3.7-1.15,5.41c-0.45,1.72-0.98,3.32-1.57,4.76
		c-0.24,0.58-0.49,1.13-0.75,1.63c1.25-0.22,2.59-0.38,3.99-0.48c4-0.29,8.22-0.31,11.98-0.14c1.63,0.08,3.07,0.17,4.33,0.29
		c1.11,0.1,2,0.22,2.73,0.35c-0.31-1.59-0.57-3.09-0.79-4.5c-0.3-1.91-0.53-3.71-0.67-5.37c-0.15-1.67-0.25-3.26-0.31-4.75
		c-0.06-1.49-0.09-2.92-0.09-4.3c0-1.4,0.01-2.72,0.04-3.97c0.03-1.25,0.07-2.54,0.13-3.88L83.38,46.22z M83.53,39.7l-0.24-1.63
		c-0.07-0.46-0.1-0.92-0.1-1.36v-1.13c0-0.67,0.05-1.62,0.16-2.86c0.11-1.25,0.32-2.51,0.65-3.74c0.34-1.28,0.82-2.41,1.44-3.37
		c0.74-1.15,1.82-1.77,3.1-1.77c0.97,0,1.83,0.41,2.57,1.21c0.72,0.78,1.09,1.79,1.09,2.98c0,1.12-0.27,2.25-0.81,3.36
		c-0.5,1.04-1.13,2.03-1.87,2.96c-0.73,0.91-1.53,1.76-2.38,2.52c-0.84,0.75-1.6,1.37-2.27,1.86L83.53,39.7z M88.54,25.84
		c-0.61,0-1.04,0.26-1.42,0.85c-0.5,0.78-0.9,1.72-1.18,2.8c-0.29,1.12-0.49,2.27-0.59,3.4c-0.1,1.16-0.15,2.06-0.15,2.69v0.35
		c0.2-0.17,0.41-0.35,0.62-0.54c0.77-0.68,1.49-1.45,2.15-2.27c0.64-0.81,1.19-1.68,1.63-2.59c0.4-0.84,0.61-1.67,0.61-2.49
		c0-0.69-0.18-1.22-0.56-1.63C89.18,25.9,88.79,25.84,88.54,25.84z"/>
</g>
<g>
	<path class="st0" d="M163.05,76.6c-1.54-0.3-3.11-0.52-4.72-0.69c-1.61-0.16-3.31-0.29-5.1-0.37c-1.79-0.09-3.7-0.14-5.72-0.16
		c-2.03-0.01-4.22-0.02-6.59-0.02c-1.12,0-2.46,0.01-4.01,0.05c-1.55,0.03-3.22,0.1-5.01,0.22c-1.79,0.12-3.63,0.29-5.52,0.51
		c-1.89,0.22-3.74,0.51-5.54,0.87c0.65-1.33,1.21-3.01,1.69-5.03s0.87-4.18,1.18-6.45c0.31-2.28,0.55-4.6,0.73-6.96
		s0.31-4.57,0.4-6.61c0.09-2.04,0.14-3.81,0.15-5.3c0.01-1.49,0.02-2.52,0.02-3.08c0-0.12-0.01-0.58-0.02-1.38
		c-0.01-0.8-0.04-1.83-0.07-3.1c-0.03-1.27-0.07-2.73-0.13-4.37c-0.06-1.64-0.14-3.35-0.24-5.12c-0.1-1.77-0.24-3.56-0.4-5.37
		c-0.16-1.8-0.35-3.51-0.58-5.12c-0.22-1.61-0.47-3.06-0.75-4.35c-0.28-1.29-0.61-2.31-1-3.08c2.9,0.41,5.75,0.72,8.56,0.91
		c2.81,0.19,5.53,0.29,8.16,0.29c3.22,0,6.24-0.09,9.05-0.27c2.81-0.18,5.26-0.38,7.36-0.62c2.45-0.27,4.69-0.58,6.7-0.93v20.8
		c-1.72-1.6-3.36-2.82-4.92-3.68c-1.57-0.86-2.96-1.49-4.17-1.91c-1.42-0.47-2.75-0.74-3.99-0.8c-1.48,0-2.68,0.18-3.61,0.55
		c-0.93,0.37-1.66,0.84-2.17,1.42c-0.52,0.58-0.86,1.23-1.04,1.95c-0.18,0.73-0.27,1.46-0.27,2.2c0,0.77,0.11,1.54,0.33,2.31
		s0.57,1.46,1.04,2.08c0.47,0.62,1.09,1.13,1.84,1.53c0.75,0.4,1.65,0.6,2.68,0.6c0.86,0,1.64-0.2,2.35-0.6
		c0.71-0.4,1.32-0.85,1.82-1.35c0.59-0.56,1.14-1.21,1.64-1.95v18.05c-0.47-1.12-1.03-2.01-1.66-2.66
		c-0.64-0.65-1.26-1.13-1.86-1.44c-0.61-0.31-1.15-0.5-1.64-0.58c-0.49-0.07-0.82-0.11-1-0.11c-1.92,0-3.36,0.59-4.3,1.77
		c-0.95,1.18-1.42,2.71-1.42,4.57c0,1.36,0.15,2.51,0.47,3.46c0.31,0.95,0.72,1.71,1.24,2.31c0.52,0.59,1.12,1.02,1.82,1.29
		c0.69,0.27,1.43,0.4,2.2,0.4c1.18,0,2.45-0.27,3.81-0.8c1.36-0.53,2.67-1.24,3.93-2.13c1.26-0.89,2.41-1.9,3.46-3.04
		c1.05-1.14,1.89-2.3,2.51-3.48L163.05,76.6z"/>
	<path class="st1" d="M119.05,78.37l0.88-1.81c0.62-1.26,1.16-2.88,1.61-4.82c0.46-1.99,0.86-4.13,1.16-6.36
		c0.31-2.26,0.55-4.59,0.72-6.9c0.18-2.35,0.31-4.55,0.4-6.58c0.09-2.03,0.14-3.78,0.15-5.27c0.01-1.49,0.02-2.51,0.02-3.07
		l-0.09-4.46c-0.03-1.27-0.07-2.72-0.13-4.36c-0.06-1.64-0.14-3.34-0.24-5.1c-0.1-1.76-0.24-3.54-0.4-5.33
		c-0.16-1.79-0.35-3.48-0.57-5.08c-0.22-1.58-0.47-3.01-0.74-4.27c-0.26-1.2-0.57-2.16-0.92-2.85l-0.85-1.7l1.89,0.27
		c2.87,0.41,5.73,0.71,8.49,0.9c6.13,0.42,12,0.34,17.08,0.02c2.79-0.18,5.25-0.38,7.31-0.62c2.42-0.26,4.65-0.57,6.64-0.92
		l1.17-0.21v24.28l-1.68-1.56c-1.65-1.54-3.24-2.73-4.72-3.53c-1.51-0.83-2.86-1.45-4.01-1.84c-1.32-0.44-2.57-0.69-3.72-0.75
		c-1.3,0-2.39,0.16-3.2,0.49c-0.78,0.31-1.39,0.7-1.8,1.16c-0.41,0.46-0.68,0.96-0.81,1.52c-0.16,0.65-0.24,1.3-0.24,1.96
		c0,0.67,0.1,1.35,0.29,2.03c0.19,0.64,0.48,1.23,0.88,1.76c0.38,0.5,0.89,0.92,1.51,1.25c1.09,0.58,2.81,0.72,4.08,0.01
		c0.62-0.35,1.16-0.75,1.6-1.19c0.55-0.53,1.06-1.13,1.52-1.81l1.82-2.68v26.24l-1.92-4.55c-0.42-1-0.91-1.79-1.46-2.35
		c-0.56-0.57-1.1-0.99-1.6-1.25c-0.5-0.26-0.95-0.42-1.34-0.48c-0.42-0.06-0.7-0.1-0.85-0.1c-1.62,0-2.77,0.46-3.52,1.4
		c-0.81,1.01-1.2,2.3-1.2,3.94c0,1.25,0.14,2.31,0.42,3.15c0.27,0.81,0.62,1.47,1.05,1.96c0.41,0.47,0.88,0.8,1.42,1.01
		c1.52,0.58,3.3,0.38,5.29-0.4c1.28-0.5,2.53-1.18,3.71-2.02c1.2-0.85,2.31-1.82,3.3-2.9c0.99-1.07,1.78-2.17,2.36-3.27l1.56-2.98
		l2.79,29.46l-1.31-0.25c-1.47-0.28-3.03-0.51-4.64-0.68c-1.59-0.16-3.28-0.28-5.05-0.37c-1.78-0.09-3.67-0.14-5.68-0.16
		c-2.02-0.01-4.22-0.02-6.58-0.02c-1.12,0-2.45,0.01-3.99,0.05c-1.54,0.03-3.19,0.1-4.97,0.22c-1.77,0.12-3.61,0.29-5.47,0.5
		c-1.86,0.22-3.7,0.51-5.47,0.85L119.05,78.37z M123.35,12.89c0.15,0.5,0.3,1.05,0.43,1.65c0.29,1.31,0.54,2.8,0.77,4.42
		c0.23,1.63,0.42,3.35,0.58,5.17c0.16,1.81,0.3,3.61,0.4,5.4c0.1,1.78,0.18,3.5,0.24,5.15c0.06,1.65,0.11,3.11,0.13,4.38l0.09,4.5
		c0,0.56-0.01,1.59-0.02,3.09c-0.01,1.5-0.07,3.28-0.16,5.33c-0.09,2.05-0.22,4.26-0.4,6.64c-0.18,2.36-0.42,4.72-0.74,7.02
		c-0.31,2.29-0.71,4.49-1.19,6.55c-0.3,1.29-0.64,2.46-1.02,3.49c1.25-0.21,2.51-0.39,3.79-0.54c1.89-0.22,3.77-0.4,5.57-0.51
		c1.8-0.12,3.49-0.19,5.06-0.22c1.56-0.03,2.9-0.05,4.03-0.05c2.37,0,4.57,0.01,6.59,0.02c2.04,0.02,3.96,0.07,5.76,0.16
		c1.81,0.09,3.52,0.22,5.15,0.38c1.2,0.12,2.37,0.28,3.51,0.47l-1.96-20.65c-0.32,0.41-0.67,0.82-1.05,1.23
		c-1.09,1.18-2.3,2.25-3.62,3.17c-1.32,0.93-2.71,1.69-4.14,2.25c-2.47,0.97-4.74,1.16-6.73,0.4c-0.85-0.32-1.59-0.85-2.21-1.56
		c-0.6-0.69-1.09-1.58-1.44-2.65c-0.34-1.04-0.51-2.31-0.51-3.77c0-2.09,0.55-3.83,1.64-5.19c1.14-1.43,2.85-2.15,5.08-2.15
		c0.2,0,0.59,0.04,1.15,0.12c0.6,0.09,1.24,0.31,1.94,0.67c0.68,0.35,1.38,0.88,2.07,1.58V36.92c-0.54,0.53-1.21,1.03-1.97,1.46
		c-1.85,1.04-4.33,0.89-5.99,0.01c-0.88-0.47-1.61-1.08-2.17-1.81c-0.55-0.72-0.95-1.53-1.21-2.41c-0.25-0.86-0.37-1.72-0.37-2.58
		c0-0.81,0.1-1.63,0.29-2.43c0.22-0.88,0.64-1.68,1.27-2.38c0.62-0.69,1.48-1.26,2.55-1.68c1.04-0.42,2.38-0.63,3.98-0.63
		c1.37,0.06,2.81,0.35,4.31,0.85c1.27,0.43,2.73,1.1,4.33,1.98c1.11,0.61,2.26,1.4,3.45,2.36V12.23c-1.72,0.28-3.6,0.53-5.59,0.74
		c-2.09,0.24-4.59,0.45-7.41,0.62c-5.17,0.32-11.13,0.41-17.34-0.02C128.03,13.42,125.7,13.19,123.35,12.89z"/>
</g>
<g>
	<path class="st0" d="M214.68,25.37c0,1.48-0.27,2.81-0.82,4.01c-0.55,1.2-1.31,2.22-2.28,3.08c-0.98,0.86-2.12,1.52-3.44,1.99
		c-1.32,0.47-2.74,0.71-4.28,0.71c-1.69,0-3.13-0.21-4.32-0.62c-1.2-0.41-2.2-0.94-3.02-1.57c-0.81-0.64-1.46-1.35-1.93-2.13
		c-0.47-0.78-0.84-1.55-1.09-2.28c-0.25-0.74-0.41-1.42-0.49-2.04c-0.07-0.62-0.11-1.09-0.11-1.42c0.36,0.59,0.77,0.97,1.24,1.13
		c0.47,0.16,0.87,0.24,1.2,0.24c0.83,0,1.41-0.22,1.75-0.66c0.34-0.44,0.51-0.92,0.51-1.42c0-0.33-0.07-0.67-0.2-1.02
		c-0.13-0.36-0.37-0.69-0.71-1c-0.34-0.31-0.8-0.57-1.37-0.78c-0.58-0.21-1.29-0.31-2.15-0.31c-0.59,0-1.2,0.11-1.82,0.33
		c-0.62,0.22-1.19,0.56-1.71,1.02c-0.52,0.46-0.94,1.03-1.26,1.71c-0.33,0.68-0.49,1.48-0.49,2.39c0,0.89,0.18,1.77,0.55,2.64
		c0.37,0.87,0.87,1.69,1.51,2.46c0.64,0.77,1.39,1.46,2.26,2.08c0.87,0.62,1.83,1.14,2.86,1.55c1.63,0.68,3.3,1.35,5.03,2
		c1.73,0.65,3.41,1.36,5.03,2.13c1.63,0.77,3.16,1.65,4.59,2.64c1.43,0.99,2.69,2.17,3.77,3.53c1.08,1.36,1.94,2.95,2.57,4.77
		s0.96,3.94,0.96,6.36c0,3.46-0.7,6.62-2.11,9.47c-1.4,2.85-3.28,5.29-5.63,7.32c-2.35,2.03-5.07,3.59-8.16,4.7
		c-3.09,1.11-6.32,1.66-9.69,1.66c-3.05,0-5.94-0.45-8.69-1.35c-2.75-0.9-5.16-2.14-7.23-3.7c-2.07-1.57-3.72-3.41-4.95-5.52
		c-1.23-2.12-1.84-4.4-1.84-6.85c0-1.8,0.3-3.39,0.89-4.75c0.59-1.36,1.41-2.49,2.46-3.39c1.05-0.9,2.28-1.57,3.68-2.02
		c1.4-0.44,2.91-0.66,4.5-0.66c1.24,0,2.46,0.13,3.66,0.4c1.2,0.27,2.32,0.66,3.37,1.18s2,1.15,2.84,1.88
		c0.84,0.74,1.51,1.58,2.02,2.53c-0.62-0.18-1.17-0.27-1.64-0.27c-0.8,0-1.43,0.24-1.91,0.71c-0.47,0.47-0.71,1.18-0.71,2.13
		c0,0.5,0.12,0.97,0.36,1.4c0.24,0.43,0.54,0.81,0.91,1.13c0.37,0.32,0.8,0.58,1.29,0.75c0.49,0.18,1,0.27,1.53,0.27
		c0.59,0,1.14-0.13,1.64-0.38c0.5-0.25,0.95-0.59,1.33-1c0.38-0.41,0.68-0.87,0.89-1.38c0.21-0.5,0.31-1.02,0.31-1.55
		c0-1.03-0.32-2.08-0.95-3.15c-0.64-1.06-1.56-2.01-2.77-2.84c-2.31-1.42-4.48-2.65-6.52-3.68c-2.04-1.03-3.92-2.02-5.63-2.95
		c-1.72-0.93-3.26-1.87-4.64-2.81c-1.37-0.95-2.54-2.04-3.5-3.28c-0.96-1.24-1.69-2.7-2.2-4.37c-0.5-1.67-0.75-3.69-0.75-6.05
		c0-2.84,0.55-5.5,1.64-7.98c1.09-2.48,2.68-4.65,4.77-6.5c2.08-1.85,4.63-3.3,7.65-4.37c3.02-1.07,6.45-1.6,10.29-1.6
		c3.87,0,7.15,0.47,9.85,1.4c2.69,0.93,4.87,2.14,6.54,3.62c1.67,1.48,2.88,3.13,3.64,4.94C214.3,21.8,214.68,23.6,214.68,25.37z"/>
	<path class="st1" d="M191.44,81.06c-3.14,0-6.16-0.47-9-1.4c-2.84-0.93-5.37-2.23-7.52-3.86c-2.17-1.64-3.92-3.59-5.21-5.81
		c-1.31-2.26-1.98-4.73-1.98-7.35c0-1.93,0.33-3.66,0.97-5.14c0.65-1.49,1.56-2.75,2.73-3.75c1.15-0.99,2.51-1.73,4.03-2.21
		c2.63-0.83,5.78-0.93,8.68-0.29c1.27,0.28,2.48,0.7,3.6,1.26c1.12,0.55,2.15,1.23,3.05,2.03c0.93,0.81,1.68,1.76,2.24,2.81
		l1.1,2.07l-2.26-0.64c-1.28-0.36-2.09-0.29-2.57,0.19c-0.28,0.28-0.42,0.76-0.42,1.42c0,0.33,0.08,0.63,0.23,0.91
		c0.18,0.33,0.41,0.62,0.69,0.87c0.27,0.24,0.6,0.43,0.97,0.56c0.79,0.29,1.67,0.3,2.38-0.06c0.39-0.2,0.75-0.46,1.05-0.79
		c0.3-0.32,0.53-0.69,0.69-1.07c0.16-0.39,0.24-0.77,0.24-1.17c0-0.85-0.27-1.73-0.81-2.64c-0.56-0.94-1.39-1.79-2.48-2.53
		c-2.23-1.37-4.4-2.6-6.41-3.62c-2.05-1.04-3.94-2.03-5.66-2.96c-1.74-0.94-3.33-1.91-4.72-2.87c-1.46-1-2.71-2.18-3.73-3.5
		c-1.03-1.33-1.83-2.91-2.36-4.69c-0.53-1.75-0.8-3.89-0.8-6.34c0-2.96,0.58-5.78,1.73-8.38c1.14-2.6,2.83-4.9,5.02-6.84
		c2.17-1.93,4.86-3.46,7.98-4.56c3.11-1.1,6.68-1.65,10.62-1.65c3.97,0,7.39,0.49,10.17,1.45c2.8,0.97,5.12,2.25,6.88,3.81
		c1.78,1.57,3.09,3.36,3.9,5.31c0.8,1.93,1.21,3.87,1.21,5.77c0,1.61-0.31,3.1-0.91,4.43c-0.6,1.32-1.46,2.47-2.53,3.42
		c-1.06,0.94-2.33,1.67-3.76,2.18c-2.96,1.06-6.77,0.95-9.27,0.09c-1.3-0.45-2.41-1.03-3.31-1.73c-0.9-0.71-1.63-1.51-2.17-2.4
		c-0.51-0.84-0.9-1.68-1.18-2.48c-0.27-0.8-0.45-1.56-0.53-2.24c-0.08-0.67-0.12-1.18-0.12-1.54v-2.62
		c-0.07,0.02-0.14,0.05-0.22,0.07c-0.5,0.18-0.96,0.46-1.38,0.83c-0.42,0.37-0.76,0.83-1.03,1.39c-0.26,0.54-0.39,1.2-0.39,1.96
		c0,0.75,0.16,1.51,0.48,2.25c0.33,0.78,0.79,1.53,1.36,2.22c0.57,0.7,1.27,1.34,2.07,1.91c0.8,0.57,1.7,1.06,2.65,1.44
		c1.63,0.68,3.3,1.34,5.02,1.99c1.75,0.66,3.47,1.39,5.11,2.16c1.66,0.79,3.26,1.7,4.73,2.72c1.5,1.04,2.84,2.29,3.98,3.73
		c1.14,1.44,2.06,3.14,2.73,5.06c0.67,1.92,1.01,4.17,1.01,6.69c0,3.6-0.74,6.93-2.21,9.91c-1.46,2.96-3.43,5.53-5.88,7.63
		c-2.43,2.09-5.28,3.74-8.47,4.89C198.28,80.48,194.91,81.06,191.44,81.06z M180.26,52.81c-1.49,0-2.91,0.21-4.2,0.62
		c-1.27,0.4-2.39,1.01-3.33,1.82c-0.93,0.8-1.67,1.82-2.2,3.03c-0.53,1.23-0.8,2.69-0.8,4.35c0,2.26,0.57,4.4,1.71,6.35
		c1.15,1.99,2.73,3.75,4.69,5.23c1.97,1.49,4.31,2.69,6.94,3.55c5.56,1.82,12.08,1.73,17.74-0.3c2.96-1.06,5.6-2.59,7.84-4.52
		c2.24-1.93,4.05-4.28,5.39-7c1.33-2.7,2.01-5.74,2.01-9.03c0-2.3-0.3-4.33-0.9-6.03c-0.6-1.71-1.41-3.21-2.41-4.48
		c-1.02-1.28-2.21-2.4-3.55-3.32c-1.39-0.96-2.88-1.82-4.45-2.56c-1.59-0.75-3.26-1.46-4.96-2.1c-1.74-0.65-3.43-1.32-5.07-2.01
		c-1.09-0.43-2.12-0.99-3.05-1.66c-0.94-0.67-1.77-1.43-2.45-2.26c-0.69-0.84-1.25-1.75-1.66-2.71c-0.42-0.99-0.63-2.01-0.63-3.03
		c0-1.06,0.2-2.01,0.59-2.82c0.38-0.8,0.89-1.48,1.5-2.03c0.61-0.54,1.29-0.95,2.03-1.21c1.71-0.61,3.46-0.45,4.64-0.02
		c0.71,0.26,1.27,0.58,1.71,0.98c0.45,0.41,0.78,0.88,0.97,1.38c0.18,0.47,0.26,0.93,0.26,1.37c0,0.72-0.24,1.41-0.72,2.03
		c-0.54,0.7-1.39,1.06-2.54,1.06c-0.35,0-0.74-0.06-1.18-0.19c0.07,0.3,0.17,0.62,0.28,0.95c0.23,0.67,0.56,1.37,1,2.09
		c0.41,0.68,0.98,1.3,1.69,1.86c0.72,0.57,1.64,1.04,2.73,1.42c2.07,0.72,5.41,0.83,7.94-0.08c1.19-0.43,2.24-1.03,3.12-1.81
		c0.87-0.76,1.55-1.69,2.04-2.75c0.48-1.06,0.73-2.27,0.73-3.6c0-1.63-0.35-3.32-1.06-5.01c-0.69-1.67-1.83-3.21-3.38-4.58
		c-1.56-1.38-3.65-2.54-6.21-3.42c-2.57-0.89-5.78-1.34-9.52-1.34c-3.71,0-7.06,0.52-9.96,1.54c-2.88,1.01-5.34,2.42-7.32,4.17
		c-1.97,1.75-3.49,3.82-4.52,6.15c-1.03,2.35-1.56,4.9-1.56,7.58c0,2.26,0.24,4.2,0.71,5.77c0.47,1.55,1.15,2.91,2.03,4.05
		c0.89,1.15,1.99,2.19,3.28,3.07c1.34,0.92,2.87,1.85,4.55,2.76c1.71,0.93,3.58,1.91,5.61,2.94c2.05,1.04,4.27,2.29,6.59,3.72
		c1.36,0.93,2.39,1.99,3.1,3.18c0.73,1.22,1.1,2.45,1.1,3.66c0,0.66-0.13,1.31-0.39,1.93c-0.25,0.61-0.61,1.17-1.08,1.67
		c-0.47,0.5-1.01,0.91-1.62,1.21c-1.19,0.6-2.68,0.62-3.96,0.15c-0.6-0.22-1.14-0.53-1.6-0.94c-0.45-0.4-0.83-0.87-1.12-1.4
		c-0.32-0.57-0.48-1.21-0.48-1.88c0-1.22,0.34-2.17,1-2.83c0.56-0.56,1.28-0.89,2.14-0.98c-0.18-0.19-0.36-0.37-0.56-0.54
		c-0.77-0.68-1.66-1.26-2.62-1.74c-0.97-0.48-2.03-0.85-3.15-1.1C182.59,52.93,181.43,52.81,180.26,52.81z M192.42,22.36l1.34,2.23
		c0.23,0.38,0.47,0.62,0.71,0.7c0.46,0.16,0.73,0.19,0.87,0.19c0.28,0,0.78-0.04,0.96-0.27c0.21-0.27,0.3-0.53,0.3-0.81
		c0-0.2-0.05-0.43-0.14-0.67c-0.08-0.2-0.23-0.41-0.45-0.61c-0.24-0.22-0.59-0.41-1.04-0.58C194.37,22.32,193.44,22.17,192.42,22.36
		z"/>
</g>
<g>
	<path class="st0" d="M274.52,76.91c-1.83-0.24-3.6-0.4-5.3-0.49c-1.7-0.09-3.42-0.13-5.17-0.13c-4.7,0-9.52,0.46-14.46,1.38
		c0.18-0.71,0.38-1.34,0.6-1.89c0.22-0.55,0.42-1.15,0.6-1.82c0.18-0.66,0.33-1.44,0.44-2.33c0.12-0.89,0.18-2.02,0.18-3.41
		c0-1.42-0.1-2.77-0.31-4.06c-0.21-1.29-0.52-2.42-0.93-3.41c-0.41-0.99-0.92-1.78-1.53-2.37c-0.6-0.59-1.31-0.88-2.11-0.88
		c-0.89,0-1.63,0.27-2.24,0.8c-0.61,0.53-1.1,1.26-1.47,2.17s-0.64,1.97-0.8,3.15c-0.16,1.18-0.24,2.44-0.24,3.77
		c0,1.33,0.08,2.48,0.24,3.44c0.16,0.96,0.36,1.8,0.58,2.5c0.22,0.71,0.44,1.34,0.64,1.89c0.21,0.55,0.35,1.09,0.44,1.62
		c-2.04-0.24-4.04-0.41-6.01-0.53c-1.97-0.12-3.93-0.18-5.88-0.18c-1.95,0-3.91,0.06-5.88,0.18c-1.97,0.12-4,0.29-6.1,0.53
		c1.83-5.32,3.44-10.6,4.81-15.83c1.37-5.23,2.55-10.5,3.53-15.79c0.97-5.29,1.77-10.64,2.37-16.05s1.06-10.96,1.35-16.63
		c2.19,0.3,4.59,0.51,7.21,0.64c2.62,0.13,5.3,0.2,8.05,0.2c2.34,0,4.61-0.06,6.81-0.18c2.2-0.12,4.24-0.37,6.1-0.75
		c0.21,5.65,0.74,11.21,1.6,16.68c0.86,5.47,1.93,10.89,3.22,16.26c1.29,5.37,2.76,10.67,4.41,15.92
		C270.94,66.53,272.69,71.74,274.52,76.91z M249.69,42.49c-0.06-0.56-0.24-1.39-0.53-2.48c-0.27-0.95-0.66-2.2-1.2-3.75
		c-0.53-1.55-1.32-3.55-2.35-6.01c-0.24,1.54-0.5,2.9-0.8,4.1c-0.3,1.2-0.58,2.28-0.84,3.24c-0.27,0.96-0.5,1.84-0.69,2.64
		c-0.19,0.8-0.29,1.55-0.29,2.26c0,1.48,0.35,2.63,1.04,3.44c0.69,0.81,1.47,1.22,2.33,1.22c0.92,0,1.69-0.44,2.31-1.33
		C249.28,44.93,249.63,43.83,249.69,42.49z"/>
	<path class="st1" d="M248.26,78.93l0.37-1.5c0.18-0.75,0.4-1.43,0.65-2.02c0.2-0.51,0.39-1.08,0.56-1.7
		c0.17-0.62,0.31-1.36,0.42-2.2c0.11-0.85,0.17-1.95,0.17-3.28c0-1.36-0.1-2.67-0.3-3.9c-0.19-1.2-0.49-2.27-0.87-3.19
		c-0.36-0.86-0.8-1.55-1.31-2.05c-0.92-0.9-2.21-0.73-2.99-0.05c-0.49,0.43-0.89,1.03-1.2,1.8c-0.34,0.84-0.59,1.82-0.74,2.91
		c-0.16,1.14-0.23,2.36-0.23,3.63c0,1.27,0.08,2.37,0.23,3.27c0.15,0.9,0.34,1.7,0.55,2.37c0.21,0.69,0.42,1.3,0.62,1.83
		c0.23,0.61,0.4,1.22,0.5,1.81l0.22,1.31l-1.32-0.15c-2-0.23-4.01-0.41-5.95-0.53c-3.92-0.23-7.72-0.23-11.63,0
		c-1.95,0.12-3.99,0.29-6.05,0.53l-1.57,0.18l0.51-1.49c1.82-5.29,3.43-10.59,4.79-15.76c1.36-5.19,2.54-10.48,3.51-15.72
		c0.97-5.26,1.76-10.63,2.36-15.99c0.6-5.34,1.05-10.92,1.35-16.57l0.06-1.08l1.07,0.15c2.15,0.29,4.55,0.5,7.12,0.64
		c4.77,0.24,10.02,0.28,14.75,0.02c2.14-0.11,4.14-0.36,5.95-0.73l1.16-0.24l0.04,1.18c0.2,5.56,0.73,11.13,1.58,16.56
		c0.86,5.44,1.93,10.88,3.2,16.18c1.27,5.31,2.75,10.64,4.39,15.85c1.63,5.17,3.39,10.42,5.23,15.6l0.54,1.53l-1.61-0.21
		c-1.78-0.23-3.54-0.39-5.22-0.48c-6.18-0.31-12.72-0.01-19.39,1.23L248.26,78.93z M246.54,56.49c1.07,0,2.01,0.39,2.8,1.17
		c0.7,0.69,1.29,1.6,1.75,2.71c0.44,1.06,0.78,2.29,1,3.64c0.21,1.33,0.32,2.75,0.32,4.22c0,1.42-0.06,2.61-0.19,3.55
		c-0.12,0.93-0.28,1.75-0.47,2.46c-0.19,0.7-0.4,1.35-0.63,1.93c-0.03,0.08-0.07,0.16-0.1,0.25c6.27-1.04,12.41-1.28,18.25-0.98
		c1.23,0.07,2.49,0.17,3.78,0.31c-1.65-4.71-3.23-9.46-4.71-14.15c-1.66-5.26-3.15-10.64-4.43-15.99
		c-1.28-5.34-2.37-10.84-3.23-16.33c-0.8-5.13-1.33-10.38-1.56-15.64c-1.59,0.27-3.3,0.46-5.09,0.55
		c-4.81,0.26-10.13,0.23-14.96-0.02c-2.21-0.11-4.3-0.28-6.22-0.51c-0.3,5.32-0.73,10.57-1.3,15.62c-0.61,5.4-1.41,10.82-2.38,16.12
		c-0.97,5.29-2.17,10.62-3.54,15.86c-1.24,4.73-2.7,9.58-4.33,14.42c1.56-0.16,3.1-0.28,4.59-0.37c4-0.24,7.87-0.24,11.87,0
		c1.52,0.09,3.06,0.22,4.62,0.38c-0.02-0.04-0.03-0.08-0.04-0.12c-0.21-0.56-0.43-1.21-0.66-1.94c-0.24-0.76-0.44-1.64-0.61-2.63
		c-0.17-1.01-0.26-2.23-0.26-3.6c0-1.37,0.09-2.68,0.25-3.9c0.17-1.26,0.46-2.4,0.86-3.39c0.43-1.06,1.01-1.92,1.73-2.55
		C244.43,56.84,245.4,56.49,246.54,56.49z M246.36,48.15c-1.16,0-2.2-0.53-3.09-1.57c-0.85-0.99-1.28-2.37-1.28-4.08
		c0-0.79,0.11-1.63,0.32-2.5c0.19-0.81,0.43-1.7,0.69-2.67c0.27-0.95,0.54-2.02,0.84-3.21c0.28-1.15,0.55-2.5,0.78-4.01l0.54-3.48
		l1.37,3.24c1.04,2.47,1.84,4.51,2.37,6.07c0.54,1.57,0.94,2.84,1.21,3.8c0.31,1.16,0.5,2.02,0.57,2.65l0.01,0.08l0,0.08
		c-0.07,1.52-0.47,2.81-1.2,3.85C248.46,47.85,247.22,48.15,246.36,48.15z M245.97,33.78c-0.06,0.28-0.13,0.56-0.19,0.82
		c-0.3,1.21-0.58,2.3-0.85,3.27c-0.26,0.95-0.49,1.82-0.68,2.6c-0.17,0.72-0.26,1.4-0.26,2.03c0,1.23,0.27,2.17,0.8,2.79
		c0.5,0.59,1.01,0.87,1.57,0.87c0.37,0,0.92-0.09,1.49-0.91c0.5-0.71,0.78-1.63,0.84-2.72c-0.06-0.51-0.23-1.27-0.5-2.25
		c-0.26-0.92-0.65-2.15-1.18-3.69C246.74,35.78,246.39,34.84,245.97,33.78z"/>
</g>
<g>
	<path class="st2" d="M68.91,70.5c0.84-0.19,1.39-0.99,1.38-1.82l-0.01-3.24c-0.01-0.2-0.27-0.26-0.38-0.1L68.17,68
		c-0.35,0.54-0.51,1.19-0.37,1.8C67.97,70.5,68.43,70.62,68.91,70.5z"/>
</g>
<g>
	<path class="st2" d="M78.67,57.89c0.51-0.56,0.49-1.43,0.04-2.03l-1.76-2.38c-0.11-0.15-0.34-0.06-0.33,0.12l0.16,2.82
		c0.03,0.57,0.26,1.13,0.7,1.51C77.98,58.36,78.39,58.21,78.67,57.89z"/>
</g>
<g>
	<path class="st2" d="M72.64,41.09c0.74-0.16,1.22-0.88,1.21-1.63l-0.05-2.96c-0.01-0.18-0.25-0.25-0.34-0.1l-1.5,2.4
		c-0.3,0.49-0.44,1.08-0.31,1.63C71.8,41.07,72.22,41.18,72.64,41.09z"/>
</g>
<g>
	<path class="st2" d="M73.21,25.89c0.38-0.47,0.25-1.15-0.2-1.61l-1.77-1.8c-0.11-0.11-0.3-0.03-0.27,0.11l0.46,2.23
		c0.09,0.45,0.35,0.88,0.76,1.16C72.67,26.3,73,26.16,73.21,25.89z"/>
</g>
<g>
	<path class="st2" d="M96.13,24.33c0.31-0.51,0.11-1.16-0.38-1.55l-1.92-1.54c-0.12-0.09-0.29,0.01-0.25,0.14l0.71,2.12
		c0.15,0.43,0.45,0.82,0.88,1.04C95.66,24.8,95.96,24.62,96.13,24.33z"/>
</g>
<g>
	<path class="st2" d="M88.5,44.13c0.68-0.07,1.2-0.64,1.28-1.28l0.33-2.54c0.02-0.16-0.19-0.23-0.29-0.11l-1.64,1.91
		c-0.33,0.39-0.53,0.88-0.48,1.37C87.76,44.04,88.12,44.17,88.5,44.13z"/>
</g>
<g>
	<path class="st2" d="M70.76,53.73c0.68-0.07,1.2-0.64,1.28-1.28l0.33-2.54c0.02-0.16-0.19-0.23-0.29-0.11l-1.64,1.91
		c-0.33,0.39-0.53,0.88-0.48,1.37C70.02,53.63,70.38,53.77,70.76,53.73z"/>
</g>
<g>
	<path class="st2" d="M94.83,55.33c0.48-0.59,0.4-1.45-0.08-2.03l-1.9-2.27c-0.12-0.14-0.35-0.04-0.33,0.14l0.33,2.81
		c0.07,0.57,0.33,1.12,0.78,1.47C94.17,55.84,94.56,55.67,94.83,55.33z"/>
</g>
<g>
	<path class="st2" d="M100.8,70.74c0.7-0.31,1.01-1.11,0.85-1.85l-0.66-2.89c-0.05-0.18-0.29-0.19-0.35-0.02l-0.98,2.65
		c-0.2,0.54-0.21,1.14,0.04,1.66C99.98,70.9,100.41,70.92,100.8,70.74z"/>
</g>
<g>
	<path class="st2" d="M79.72,70.9c0.7-0.31,1.01-1.11,0.85-1.85l-0.66-2.89c-0.05-0.18-0.29-0.19-0.35-0.02l-0.98,2.65
		c-0.2,0.54-0.21,1.14,0.04,1.66C78.89,71.06,79.32,71.08,79.72,70.9z"/>
</g>
<g>
	<path class="st2" d="M30.8,71.02c0.74-0.19,1.18-0.94,1.13-1.69l-0.2-2.96c-0.02-0.18-0.26-0.23-0.34-0.08l-1.39,2.47
		c-0.28,0.5-0.39,1.1-0.23,1.65C29.97,71.05,30.39,71.14,30.8,71.02z"/>
</g>
<g>
	<path class="st2" d="M21.96,62.29c0.7-0.31,1.01-1.11,0.85-1.85l-0.66-2.89c-0.05-0.18-0.29-0.19-0.35-0.02l-0.98,2.65
		c-0.2,0.54-0.21,1.14,0.04,1.66C21.13,62.45,21.56,62.47,21.96,62.29z"/>
</g>
<g>
	<path class="st2" d="M30.37,52.09c0.75-0.11,1.28-0.8,1.31-1.55l0.14-2.96c0-0.18-0.23-0.26-0.33-0.12l-1.66,2.29
		c-0.34,0.47-0.51,1.04-0.42,1.61C29.53,52.01,29.94,52.15,30.37,52.09z"/>
</g>
<g>
	<path class="st2" d="M22.15,38.61c0.7-0.31,1.01-1.11,0.85-1.85l-0.66-2.89c-0.05-0.18-0.29-0.19-0.35-0.02L21,36.51
		c-0.2,0.54-0.21,1.14,0.04,1.66C21.33,38.77,21.76,38.79,22.15,38.61z"/>
</g>
<g>
	<path class="st2" d="M31.9,28.96c0.61-0.12,1.02-0.69,1.03-1.28L33,25.33c0-0.15-0.19-0.2-0.27-0.08l-1.3,1.88
		c-0.26,0.38-0.39,0.85-0.31,1.29C31.23,28.94,31.56,29.03,31.9,28.96z"/>
</g>
<g>
	<path class="st2" d="M41.89,44.74c0.61-0.12,1.02-0.69,1.03-1.28l0.06-2.34c0-0.15-0.19-0.2-0.27-0.08l-1.3,1.88
		c-0.26,0.38-0.39,0.85-0.31,1.29C41.21,44.72,41.55,44.82,41.89,44.74z"/>
</g>
<g>
	<path class="st2" d="M52.79,24.61c0.42-0.63,0.25-1.49-0.29-2.01l-2.12-2.07c-0.14-0.13-0.35,0-0.31,0.17l0.62,2.76
		c0.13,0.56,0.44,1.08,0.93,1.38C52.18,25.19,52.55,24.97,52.79,24.61z"/>
</g>
<g>
	<path class="st2" d="M40.71,20.11c0.56,0.16,1.14-0.17,1.39-0.7l1-2.09c0.06-0.13-0.08-0.26-0.2-0.19l-1.86,1.13
		c-0.38,0.23-0.68,0.59-0.78,1.03C40.15,19.8,40.4,20.03,40.71,20.11z"/>
</g>
<g>
	<path class="st2" d="M24.41,22.12c0.46-0.61,0.35-1.47-0.16-2.02l-1.98-2.2c-0.13-0.13-0.35-0.02-0.32,0.15l0.44,2.79
		c0.09,0.57,0.37,1.1,0.84,1.44C23.77,22.65,24.15,22.46,24.41,22.12z"/>
</g>
<g>
	<path class="st2" d="M31.7,40.33c0.46-0.61,0.35-1.47-0.16-2.02l-1.98-2.2c-0.13-0.13-0.35-0.02-0.32,0.15l0.44,2.79
		c0.09,0.57,0.37,1.1,0.84,1.44C31.05,40.86,31.44,40.67,31.7,40.33z"/>
</g>
<g>
	<path class="st2" d="M84.11,22.93c0.84-0.29,1.35-1.15,1.29-1.97l-0.23-3.22c-0.02-0.2-0.29-0.23-0.39-0.05l-1.58,2.85
		c-0.32,0.58-0.44,1.24-0.26,1.83C83.16,23.04,83.64,23.1,84.11,22.93z"/>
</g>
<g>
	<path class="st2" d="M129.92,26.35c0.75-0.15,1.24-0.86,1.23-1.61l-0.01-2.96c-0.01-0.18-0.24-0.25-0.34-0.1l-1.54,2.37
		c-0.31,0.48-0.46,1.07-0.33,1.63C129.08,26.32,129.5,26.44,129.92,26.35z"/>
</g>
<g>
	<path class="st2" d="M139.63,46.26c0.5-0.41,0.57-1.14,0.25-1.7l-1.23-2.21c-0.08-0.14-0.28-0.09-0.29,0.06l-0.17,2.39
		c-0.03,0.49,0.1,0.98,0.42,1.35C138.99,46.57,139.35,46.49,139.63,46.26z"/>
</g>
<g>
	<path class="st2" d="M138.35,59.25c0.5-0.41,0.57-1.14,0.25-1.7l-1.23-2.21c-0.08-0.14-0.28-0.09-0.29,0.06l-0.17,2.39
		c-0.03,0.49,0.1,0.98,0.42,1.35C137.71,59.57,138.07,59.49,138.35,59.25z"/>
</g>
<g>
	<path class="st2" d="M131.22,47.02c0.75-0.13,1.26-0.83,1.27-1.58l0.06-2.96c0-0.19-0.24-0.26-0.34-0.11l-1.6,2.33
		c-0.32,0.48-0.48,1.06-0.37,1.62C130.38,46.97,130.79,47.1,131.22,47.02z"/>
</g>
<g>
	<path class="st2" d="M130.15,59.73c0.75-0.15,1.23-0.87,1.23-1.62l-0.02-2.96c-0.01-0.18-0.24-0.25-0.34-0.1l-1.53,2.38
		c-0.31,0.48-0.46,1.07-0.33,1.63C129.32,59.7,129.73,59.81,130.15,59.73z"/>
</g>
<g>
	<path class="st2" d="M133.81,71.35c0.72-0.25,1.11-1.02,1-1.77l-0.41-2.93c-0.03-0.18-0.27-0.21-0.35-0.05l-1.2,2.56
		c-0.24,0.52-0.31,1.12-0.11,1.66C132.97,71.43,133.4,71.49,133.81,71.35z"/>
</g>
<g>
	<path class="st2" d="M147.61,70.82c0.5-0.4,0.63-1.11,0.39-1.65l-0.96-2.15c-0.06-0.13-0.26-0.09-0.28,0.06l-0.37,2.32
		c-0.07,0.47,0.01,0.96,0.28,1.32C146.98,71.12,147.33,71.04,147.61,70.82z"/>
</g>
<g>
	<path class="st2" d="M156.98,23.81c0.44-0.45,0.44-1.18,0.08-1.69l-1.4-2.02c-0.09-0.12-0.28-0.06-0.28,0.09l0.07,2.36
		c0.01,0.48,0.19,0.95,0.54,1.27C156.39,24.19,156.73,24.07,156.98,23.81z"/>
</g>
<g>
	<path class="st2" d="M135.61,33.64c0.44-0.51,0.49-1.25,0.2-1.76l-1.16-1.98c-0.08-0.12-0.26-0.04-0.27,0.12l-0.11,2.43
		c-0.02,0.49,0.11,0.97,0.41,1.28C135.03,34.08,135.36,33.93,135.61,33.64z"/>
</g>
<g>
	<path class="st2" d="M142.33,22.2c0.76,0.04,1.41-0.53,1.59-1.26l0.72-2.87c0.04-0.18-0.17-0.3-0.3-0.18l-2.08,1.92
		c-0.42,0.39-0.71,0.92-0.72,1.5C141.53,21.96,141.9,22.18,142.33,22.2z"/>
</g>
<g>
	<path class="st2" d="M183.91,66.18c0.52-0.37,0.66-1.09,0.41-1.66l-0.99-2.26c-0.07-0.14-0.27-0.11-0.29,0.04l-0.4,2.35
		c-0.08,0.48,0,0.98,0.28,1.36C183.26,66.45,183.61,66.39,183.91,66.18z"/>
</g>
<g>
	<path class="st2" d="M176.95,67.07c0.37-0.52,0.27-1.25-0.15-1.7l-1.67-1.81c-0.11-0.11-0.29-0.01-0.26,0.13l0.39,2.35
		c0.08,0.48,0.32,0.92,0.71,1.19C176.42,67.54,176.74,67.37,176.95,67.07z"/>
</g>
<g>
	<path class="st2" d="M180.39,56.07c0.33,0.55,1.03,0.75,1.62,0.54l2.33-0.8c0.14-0.05,0.13-0.26-0.02-0.3l-2.31-0.58
		c-0.47-0.12-0.97-0.08-1.38,0.17C180.17,55.4,180.2,55.76,180.39,56.07z"/>
</g>
<g>
	<path class="st2" d="M182.63,74.37c0.69,0.31,1.51,0,1.94-0.61l1.69-2.43c0.1-0.15-0.05-0.34-0.22-0.28l-2.62,1.06
		c-0.53,0.22-0.99,0.61-1.21,1.14C181.96,73.86,182.23,74.2,182.63,74.37z"/>
</g>
<g>
	<path class="st2" d="M196.48,74.67c0.66-0.04,1.17-0.6,1.27-1.23l0.37-2.51c0.02-0.16-0.18-0.24-0.28-0.12l-1.63,1.84
		c-0.33,0.38-0.53,0.85-0.49,1.34C195.76,74.56,196.11,74.7,196.48,74.67z"/>
</g>
<g>
	<path class="st2" d="M206.95,70.5c0.35-0.57,0.19-1.3-0.28-1.75l-1.84-1.75c-0.12-0.11-0.3,0.01-0.26,0.16l0.57,2.39
		c0.12,0.49,0.39,0.93,0.81,1.18C206.44,71.02,206.76,70.82,206.95,70.5z"/>
</g>
<g>
	<path class="st2" d="M208.52,64.32c0.7-0.31,1.01-1.11,0.85-1.85l-0.66-2.89c-0.05-0.18-0.29-0.19-0.35-0.02l-0.98,2.65
		c-0.2,0.54-0.21,1.14,0.04,1.66C207.7,64.48,208.13,64.5,208.52,64.32z"/>
</g>
<g>
	<path class="st2" d="M212.99,54.35c0.11-0.75-0.39-1.45-1.1-1.7l-2.79-0.99c-0.18-0.06-0.32,0.14-0.21,0.28l1.71,2.25
		c0.35,0.46,0.85,0.79,1.42,0.86C212.68,55.13,212.93,54.78,212.99,54.35z"/>
</g>
<g>
	<path class="st2" d="M201.42,64.65c0.32-0.55,0.13-1.25-0.35-1.65l-1.89-1.61c-0.12-0.1-0.29,0.02-0.25,0.16l0.67,2.26
		c0.14,0.46,0.43,0.87,0.86,1.1C200.94,65.16,201.24,64.96,201.42,64.65z"/>
</g>
<g>
	<path class="st2" d="M196.33,48.9c0.73-0.21,1.16-0.96,1.09-1.71l-0.26-2.95c-0.02-0.18-0.26-0.23-0.35-0.07l-1.34,2.49
		c-0.27,0.51-0.37,1.1-0.2,1.65C195.49,48.94,195.91,49.02,196.33,48.9z"/>
</g>
<g>
	<path class="st2" d="M203.83,21.77c0.38-0.66,0.17-1.5-0.39-1.99l-2.23-1.96c-0.14-0.12-0.35,0.02-0.3,0.19l0.76,2.73
		c0.16,0.55,0.5,1.05,1,1.33C203.25,22.38,203.61,22.14,203.83,21.77z"/>
</g>
<g>
	<path class="st2" d="M187.98,18.17c0.54,0.53,1.41,0.53,2.03,0.1l2.43-1.69c0.15-0.11,0.07-0.34-0.11-0.34l-2.83,0.08
		c-0.57,0.02-1.14,0.23-1.53,0.65C187.53,17.47,187.67,17.88,187.98,18.17z"/>
</g>
<g>
	<path class="st2" d="M184.55,44.69c0.69,0.33,1.51,0.04,1.95-0.56l1.75-2.39c0.11-0.15-0.05-0.34-0.21-0.28l-2.65,0.99
		c-0.54,0.2-1,0.59-1.24,1.11C183.89,44.16,184.16,44.51,184.55,44.69z"/>
</g>
<g>
	<path class="st2" d="M175.43,37.22c0.76,0.04,1.41-0.54,1.59-1.26l0.71-2.88c0.04-0.18-0.17-0.3-0.3-0.18l-2.07,1.93
		c-0.42,0.39-0.7,0.93-0.72,1.5C174.63,36.99,175,37.2,175.43,37.22z"/>
</g>
<g>
	<path class="st2" d="M185.68,33.28c0.32-0.69,0.04-1.51-0.57-1.95l-2.39-1.75c-0.15-0.1-0.34,0.05-0.28,0.21l1,2.65
		c0.2,0.54,0.59,1,1.11,1.23C185.16,33.94,185.5,33.67,185.68,33.28z"/>
</g>
<g>
	<path class="st2" d="M202.95,31.44c0.29-0.52,0.12-1.17-0.32-1.54l-1.71-1.48c-0.11-0.09-0.26,0.02-0.23,0.15l0.6,2.1
		c0.12,0.43,0.39,0.81,0.77,1.01C202.52,31.92,202.79,31.73,202.95,31.44z"/>
</g>
<g>
	<path class="st2" d="M209.24,29.13c0.5-0.57,0.44-1.44-0.02-2.03l-1.83-2.33c-0.12-0.14-0.34-0.05-0.33,0.13l0.25,2.82
		c0.05,0.57,0.3,1.12,0.74,1.49C208.56,29.62,208.96,29.46,209.24,29.13z"/>
</g>
<g>
	<path class="st2" d="M179.07,22.11c0.75,0.11,1.45-0.4,1.7-1.11l0.97-2.8c0.06-0.18-0.15-0.32-0.29-0.21l-2.24,1.73
		c-0.45,0.35-0.79,0.86-0.85,1.43C178.29,21.8,178.64,22.05,179.07,22.11z"/>
</g>
<g>
	<path class="st2" d="M227.32,71.22c0.73,0.2,1.49-0.23,1.82-0.9l1.3-2.66c0.08-0.17-0.11-0.33-0.26-0.24l-2.43,1.45
		c-0.49,0.3-0.88,0.76-1.02,1.31C226.58,70.83,226.9,71.12,227.32,71.22z"/>
</g>
<g>
	<path class="st2" d="M239.07,71.87c0.47-0.59,0.39-1.46-0.1-2.03l-1.92-2.26c-0.12-0.14-0.35-0.03-0.32,0.14l0.36,2.81
		c0.07,0.57,0.34,1.11,0.8,1.46C238.42,72.39,238.81,72.21,239.07,71.87z"/>
</g>
<g>
	<path class="st2" d="M231.15,60.36c0.75,0.14,1.47-0.35,1.74-1.05l1.07-2.76c0.06-0.17-0.13-0.32-0.28-0.22l-2.3,1.65
		c-0.47,0.34-0.82,0.83-0.9,1.4C230.38,60.02,230.73,60.28,231.15,60.36z"/>
</g>
<g>
	<path class="st2" d="M253.2,54.72c0.36-0.67,0.11-1.5-0.47-1.97l-2.3-1.86c-0.15-0.11-0.35,0.03-0.29,0.2l0.87,2.69
		c0.18,0.55,0.54,1.03,1.05,1.29C252.65,55.35,253,55.1,253.2,54.72z"/>
</g>
<g>
	<path class="st2" d="M256.62,71.34c0.7-0.31,1.01-1.11,0.85-1.85l-0.66-2.89c-0.05-0.18-0.29-0.19-0.35-0.02l-0.98,2.65
		c-0.2,0.54-0.21,1.14,0.04,1.66C255.8,71.5,256.23,71.52,256.62,71.34z"/>
</g>
<g>
	<path class="st2" d="M266.41,71.33c0.27-0.71-0.08-1.5-0.72-1.9l-2.52-1.55c-0.16-0.09-0.34,0.07-0.26,0.23l1.21,2.56
		c0.25,0.52,0.67,0.95,1.21,1.14C265.95,72.03,266.26,71.73,266.41,71.33z"/>
</g>
<g>
	<path class="st2" d="M257.64,46.24c0.43-0.63,0.27-1.48-0.26-2.01l-2.1-2.09c-0.13-0.13-0.35-0.01-0.31,0.17l0.58,2.77
		c0.12,0.56,0.43,1.08,0.91,1.39C257.02,46.81,257.4,46.6,257.64,46.24z"/>
</g>
<g>
	<path class="st2" d="M259.2,60.57c0.76,0.03,1.4-0.56,1.57-1.29l0.67-2.89c0.04-0.18-0.18-0.3-0.31-0.18l-2.04,1.96
		c-0.41,0.4-0.69,0.94-0.7,1.51C258.39,60.35,258.77,60.56,259.2,60.57z"/>
</g>
<g>
	<path class="st2" d="M251.59,31.94c0.73-0.2,1.17-0.95,1.11-1.7l-0.22-2.95c-0.02-0.18-0.26-0.23-0.35-0.08l-1.36,2.48
		c-0.28,0.5-0.38,1.1-0.21,1.65C250.75,31.97,251.18,32.06,251.59,31.94z"/>
</g>
<g>
	<path class="st2" d="M256.68,22.42c0.39-0.65,0.18-1.5-0.38-2l-2.21-1.97c-0.14-0.12-0.35,0.01-0.3,0.18l0.74,2.73
		c0.15,0.55,0.49,1.06,0.99,1.34C256.09,23.02,256.46,22.79,256.68,22.42z"/>
</g>
<g>
	<path class="st2" d="M238.66,49.92c0.7-0.31,1.01-1.11,0.85-1.85l-0.66-2.89c-0.05-0.18-0.29-0.19-0.35-0.02l-0.98,2.65
		c-0.2,0.54-0.21,1.14,0.04,1.66C237.84,50.08,238.27,50.1,238.66,49.92z"/>
</g>
<g>
	<path class="st2" d="M236.22,36.17c0.7-0.31,1.01-1.11,0.85-1.85l-0.66-2.89c-0.05-0.18-0.29-0.19-0.35-0.02l-0.98,2.65
		c-0.2,0.54-0.21,1.14,0.04,1.66C235.4,36.33,235.83,36.35,236.22,36.17z"/>
</g>
<g>
	<path class="st2" d="M238.65,23.78c0.76,0.04,1.4-0.54,1.58-1.27l0.69-2.88c0.04-0.18-0.18-0.3-0.3-0.18l-2.06,1.94
		c-0.42,0.4-0.7,0.93-0.71,1.5C237.84,23.55,238.22,23.77,238.65,23.78z"/>
</g>
<g>
	<path class="st2" d="M157.98,72.34c0.57-0.5,0.64-1.37,0.26-2.01l-1.5-2.56c-0.1-0.16-0.33-0.09-0.34,0.08l-0.14,2.83
		c-0.03,0.57,0.14,1.15,0.53,1.58C157.24,72.74,157.66,72.63,157.98,72.34z"/>
</g>
<g>
	<path class="st2" d="M102,37.38c0.45-0.62,0.28-1.48-0.28-2.03l-2.2-2.17c-0.14-0.13-0.36-0.02-0.33,0.16l0.61,2.8
		c0.13,0.57,0.45,1.1,0.96,1.43C101.36,37.93,101.76,37.73,102,37.38z"/>
</g>
<g>
	<path class="st2" d="M104.65,59.93c0.45-0.62,0.28-1.48-0.28-2.03l-2.2-2.17c-0.14-0.13-0.36-0.02-0.33,0.16l0.61,2.8
		c0.13,0.57,0.45,1.1,0.96,1.43C104,60.49,104.4,60.29,104.65,59.93z"/>
</g>
<g>
	<path class="st0" d="M341.47,20.92v-0.2l-0.44-9.24c-0.52,0.08-1.04,0.16-1.56,0.24h-0.02c-3.35,0.5-6.96,0.9-10.88,1.18
		c-4.51,0.32-9.08,0.48-13.67,0.48c-3.23,0-6.39-0.08-9.46-0.26c-3.09-0.18-6.03-0.44-8.8-0.76l-1.06,33.85
		c0.82-1.62,1.78-3.27,2.89-4.95c1.12-1.7,2.29-3.35,3.57-4.99c1.26-1.64,2.59-3.21,3.95-4.75c1.38-1.52,2.75-2.93,4.15-4.27
		c0.14,2.2,0.26,4.21,0.36,6.09c0.08,1.88,0.16,3.53,0.22,4.95c0.06,1.66,0.08,3.17,0.08,4.57c-0.06,3.25-0.24,6.71-0.52,10.4
		c-0.28,3.17-0.68,6.77-1.2,10.82c-0.54,4.05-1.32,8.26-2.35,12.63c3.03-0.46,5.93-0.76,8.66-0.92c2.73-0.16,5.19-0.24,7.38-0.24
		c1.3,0,2.45,0.02,3.49,0.04c0.94,0.04,1.78,0.08,2.47,0.12c0.08,0,0.16,0.02,0.22,0.02c0.9,0.06,1.68,0.12,2.35,0.18
		c-0.8-3.01-1.5-6.11-2.08-9.26c-0.6-3.17-1.08-6.35-1.44-9.54c-0.38-3.17-0.66-6.35-0.86-9.5c-0.18-3.13-0.28-6.21-0.28-9.18
		c0-2.31,0.06-4.57,0.16-6.77c0.08-1.7,0.2-3.35,0.36-4.95c0.04-0.46,0.08-0.92,0.14-1.36c0.66,0.54,1.32,1.12,1.98,1.72
		c2.2,2.06,4.29,4.45,6.29,7.2c1.84,2.51,3.55,5.17,5.15,7.94l0.02,0.02c0.64,1.14,1.28,2.28,1.9,3.45L341.47,20.92z M325.98,47.66
		c0.18,3.17,0.46,6.39,0.84,9.56c0.38,3.21,0.86,6.45,1.46,9.6c0.5,2.69,1.08,5.37,1.74,7.96c-0.3-0.02-0.62-0.04-0.96-0.06
		c-0.68-0.06-1.48-0.1-2.37-0.12c0,0-6.15-30.73-0.24-51.03l0.08,0.3l-0.16,1.36c-0.24,2-0.42,4.15-0.52,6.39
		c-0.1,2.2-0.16,4.47-0.16,6.81C325.68,41.41,325.78,44.52,325.98,47.66z M336.42,33.69c-2.63-3.61-5.47-6.69-8.44-9.12l-1.16-0.94
		c3.25,1.2,12.57,11.71,12.57,11.71c0.56-1.78-1.6-19.16-1.98-22.33c0.92-0.12,1.8-0.24,2.67-0.38l1.38,28.82
		C339.89,38.74,338.19,36.14,336.42,33.69z"/>
	<path class="st1" d="M341.99,10.3l-1.12,0.2c-3.69,0.6-7.86,1.08-12.35,1.4c-7.56,0.54-15.51,0.66-23.03,0.22
		c-3.03-0.18-5.99-0.42-8.72-0.74l-1.08-0.14l-1.24,39.4l2.02-3.97c0.82-1.6,1.78-3.23,2.85-4.87c1.08-1.66,2.28-3.31,3.51-4.91
		c1.24-1.6,2.55-3.17,3.91-4.69c0.86-0.94,1.72-1.84,2.55-2.69c0.08,1.36,0.16,2.65,0.22,3.89c0.08,1.88,0.16,3.51,0.22,4.93
		c0.06,1.64,0.08,3.15,0.08,4.51c-0.06,3.21-0.24,6.71-0.52,10.34c-0.26,3.13-0.68,6.77-1.2,10.76c-0.52,3.99-1.3,8.2-2.34,12.53
		l-0.34,1.44l1.46-0.22c2.99-0.44,5.89-0.74,8.58-0.9c4.33-0.26,8.06-0.28,10.8-0.2c1,0.04,1.9,0.08,2.65,0.14
		c0.76,0.06,1.44,0.1,2.04,0.16c0.1,0,0.2,0.02,0.3,0.02l1.42,0.12l-0.38-1.38c-0.78-2.97-1.48-6.07-2.06-9.18
		c-0.58-3.11-1.06-6.31-1.44-9.46c-0.36-3.15-0.64-6.33-0.84-9.46c-0.18-3.09-0.28-6.17-0.28-9.12c0-2.29,0.06-4.55,0.16-6.73v-0.06
		c0.06-1.48,0.16-2.91,0.3-4.29c2.33,2.1,4.57,4.63,6.67,7.5c2.53,3.51,4.89,7.32,6.98,11.3l2.1,3.99L341.99,10.3z M327.98,24.57
		l-1.16-0.94c-0.02-0.02-0.02-0.02-0.02-0.02l-0.24-0.2l-0.04,0.46l-0.16,1.36c-0.24,2-0.42,4.15-0.52,6.39
		c-0.1,2.2-0.16,4.47-0.16,6.81c0,2.99,0.1,6.11,0.3,9.24c0.18,3.17,0.46,6.39,0.84,9.56c0.38,3.21,0.86,6.45,1.46,9.6
		c0.5,2.69,1.08,5.37,1.74,7.96c-0.3-0.02-0.62-0.04-0.96-0.06c-0.68-0.06-1.48-0.1-2.37-0.12c-0.12-0.02-0.24-0.02-0.36-0.02
		c-2.79-0.08-6.57-0.06-10.98,0.2c-2.32,0.14-4.77,0.38-7.3,0.72c0.88-3.89,1.56-7.68,2.04-11.3c0.54-4.05,0.94-7.7,1.2-10.88
		c0.3-3.67,0.48-7.2,0.54-10.48c0-1.4-0.02-2.93-0.08-4.61c-0.06-1.42-0.14-3.07-0.22-4.95c-0.1-1.88-0.22-3.91-0.36-6.11
		l-0.14-2.14l-1.56,1.48c-1.38,1.34-2.79,2.79-4.19,4.33c-1.4,1.56-2.73,3.15-4.01,4.79c-1.28,1.66-2.49,3.35-3.61,5.05
		c-0.32,0.5-0.64,1-0.94,1.5l0.9-28.72c2.47,0.26,5.09,0.48,7.78,0.64c7.6,0.44,15.63,0.32,23.27-0.22
		c3.09-0.22,6.03-0.52,8.76-0.88c0.92-0.12,1.8-0.24,2.67-0.38l1.38,28.82c-1.58-2.71-3.27-5.31-5.05-7.76
		C333.78,30.08,330.95,27,327.98,24.57z"/>
</g>
<g>
	<path class="st0" d="M387.73,76.69c-1.54-0.3-3.11-0.52-4.72-0.69c-1.61-0.16-3.31-0.29-5.1-0.37c-1.79-0.09-3.69-0.14-5.71-0.16
		c-2.02-0.01-4.22-0.02-6.58-0.02c-1.12,0-2.46,0.01-4.01,0.05c-1.55,0.03-3.22,0.1-5.01,0.22c-1.79,0.12-3.63,0.29-5.52,0.51
		s-3.74,0.51-5.54,0.86c0.65-1.33,1.21-3,1.68-5.03c0.47-2.02,0.86-4.17,1.18-6.45c0.31-2.28,0.55-4.59,0.73-6.96
		c0.18-2.36,0.31-4.56,0.4-6.6c0.09-2.04,0.14-3.8,0.15-5.29c0.01-1.49,0.02-2.52,0.02-3.08c0-0.12-0.01-0.58-0.02-1.37
		c-0.01-0.8-0.04-1.83-0.07-3.1c-0.03-1.27-0.07-2.72-0.13-4.36s-0.14-3.35-0.24-5.12c-0.1-1.77-0.24-3.56-0.4-5.36
		c-0.16-1.8-0.35-3.51-0.58-5.12c-0.22-1.61-0.47-3.06-0.75-4.34c-0.28-1.28-0.61-2.31-1-3.08c2.89,0.41,5.74,0.71,8.55,0.91
		c2.81,0.19,5.52,0.29,8.15,0.29c3.22,0,6.23-0.09,9.04-0.27c2.81-0.18,5.26-0.38,7.35-0.62c2.45-0.27,4.68-0.57,6.69-0.93v20.78
		c-1.71-1.59-3.35-2.82-4.92-3.68c-1.57-0.86-2.95-1.49-4.16-1.9c-1.42-0.47-2.75-0.74-3.99-0.8c-1.48,0-2.68,0.18-3.61,0.55
		c-0.93,0.37-1.65,0.84-2.17,1.42c-0.52,0.57-0.86,1.22-1.04,1.95c-0.18,0.72-0.27,1.45-0.27,2.19c0,0.77,0.11,1.54,0.33,2.3
		s0.57,1.46,1.04,2.08s1.09,1.13,1.84,1.53c0.75,0.4,1.65,0.6,2.68,0.6c0.86,0,1.64-0.2,2.35-0.6s1.31-0.85,1.82-1.35
		c0.59-0.56,1.14-1.21,1.64-1.95v18.03c-0.47-1.12-1.03-2.01-1.66-2.66c-0.64-0.65-1.26-1.13-1.86-1.44
		c-0.61-0.31-1.15-0.5-1.64-0.57c-0.49-0.07-0.82-0.11-1-0.11c-1.92,0-3.35,0.59-4.3,1.77s-1.42,2.7-1.42,4.56
		c0,1.36,0.15,2.51,0.46,3.46c0.31,0.94,0.72,1.71,1.24,2.3c0.52,0.59,1.12,1.02,1.82,1.28c0.69,0.27,1.42,0.4,2.19,0.4
		c1.18,0,2.45-0.27,3.81-0.8c1.36-0.53,2.67-1.24,3.92-2.13c1.25-0.89,2.41-1.9,3.46-3.03c1.05-1.14,1.88-2.3,2.5-3.48L387.73,76.69
		z"/>
	<path class="st1" d="M386.05,48.48l-1.56,2.99c-0.56,1.08-1.36,2.2-2.35,3.25c-0.98,1.08-2.1,2.06-3.29,2.89
		c-1.18,0.84-2.43,1.52-3.71,2.02c-2,0.78-3.75,0.98-5.27,0.4c-0.56-0.2-1.02-0.54-1.44-1.02c-0.42-0.48-0.78-1.14-1.04-1.96
		c-0.28-0.84-0.42-1.9-0.42-3.13c0-1.64,0.4-2.95,1.2-3.95c0.76-0.94,1.92-1.4,3.53-1.4c0.14,0,0.42,0.04,0.84,0.1
		c0.38,0.06,0.84,0.22,1.34,0.48c0.5,0.26,1.04,0.68,1.6,1.26c0.56,0.56,1.04,1.34,1.46,2.34l1.92,4.57V31.09l-1.82,2.67
		c-0.46,0.68-0.98,1.28-1.52,1.82c-0.44,0.44-0.98,0.84-1.6,1.18c-1.28,0.72-2.99,0.56-4.09,0c-0.62-0.34-1.12-0.76-1.5-1.26
		c-0.4-0.52-0.7-1.12-0.88-1.76c-0.2-0.68-0.3-1.36-0.3-2.04c0-0.66,0.08-1.3,0.24-1.96c0.14-0.56,0.4-1.06,0.82-1.52
		c0.4-0.46,1.02-0.84,1.8-1.16c0.8-0.32,1.9-0.48,3.19-0.48c0.36,0.02,0.72,0.06,1.1,0.12c0.82,0.1,1.7,0.32,2.61,0.62
		c1.16,0.4,2.49,1.02,4.01,1.84l0.04,0.02c1.46,0.82,3.05,2.02,4.67,3.51l1.68,1.58V10.02l-1.16,0.2c-2,0.36-4.21,0.66-6.65,0.92
		c-2.06,0.24-4.53,0.46-7.3,0.62c-5.03,0.32-10.84,0.42-17.04-0.02c-2.79-0.18-5.65-0.48-8.48-0.9l-1.9-0.26l0.86,1.7
		c0.34,0.68,0.66,1.64,0.92,2.85c0.26,1.24,0.52,2.67,0.74,4.25c0.22,1.6,0.4,3.29,0.56,5.07c0.16,1.8,0.3,3.57,0.4,5.33
		c0.1,1.78,0.18,3.47,0.24,5.11c0.06,1.64,0.12,3.07,0.14,4.35l0.1,4.45c0,0.56-0.02,1.58-0.04,3.07c0,1.48-0.06,3.23-0.14,5.25
		c-0.1,2.04-0.22,4.23-0.4,6.57c-0.18,2.33-0.42,4.67-0.74,6.91c-0.3,2.24-0.68,4.37-1.16,6.35c-0.44,1.96-0.98,3.57-1.6,4.83
		l-0.88,1.8l1.96-0.38c1.78-0.36,3.61-0.64,5.47-0.86c1.86-0.22,3.71-0.38,5.47-0.5c1.78-0.12,3.41-0.2,4.97-0.22
		c1.54-0.04,2.87-0.04,3.97-0.04c2.37,0,4.57,0,6.59,0.02c2,0,3.89,0.06,5.67,0.14c1.78,0.1,3.45,0.22,5.05,0.38
		c1.58,0.16,3.13,0.38,4.63,0.68l1.3,0.24L386.05,48.48z M383.12,75.02c-1.64-0.18-3.35-0.3-5.15-0.38c-1.8-0.1-3.71-0.16-5.75-0.16
		c-2.04-0.02-4.23-0.02-6.61-0.02c-1.12,0-2.45,0-4.01,0.04c-1.58,0.02-3.25,0.1-5.07,0.22c-1.8,0.12-3.65,0.3-5.57,0.52
		c-1.26,0.14-2.53,0.32-3.77,0.54c0.38-1.04,0.72-2.2,1.02-3.49c0.48-2.04,0.88-4.25,1.2-6.55c0.3-2.28,0.56-4.63,0.74-7
		c0.16-2.37,0.3-4.59,0.4-6.63c0.08-2.06,0.14-3.83,0.14-5.33c0.02-1.5,0.04-2.53,0.04-3.09c0-0.1-0.02-0.48-0.02-1.12l-0.08-3.39
		c-0.02-1.26-0.08-2.71-0.14-4.37c-0.06-1.64-0.14-3.35-0.24-5.15c-0.1-1.78-0.24-3.57-0.4-5.39c-0.16-1.82-0.36-3.53-0.58-5.15
		c-0.22-1.66-0.48-3.13-0.78-4.43c-0.12-0.6-0.26-1.16-0.42-1.64c2.34,0.3,4.67,0.52,6.95,0.68c6.31,0.44,12.19,0.34,17.32,0.02
		c2.79-0.18,5.29-0.38,7.38-0.62c1.08-0.12,2.14-0.24,3.13-0.38c0.86-0.12,1.68-0.24,2.45-0.36v17.4c-1.18-0.96-2.34-1.76-3.43-2.36
		c-0.6-0.34-1.18-0.64-1.74-0.9c-0.94-0.46-1.8-0.82-2.59-1.08c-1.5-0.5-2.93-0.8-4.31-0.86c-1.18,0-2.2,0.12-3.07,0.34
		c-0.02,0-0.02,0-0.02,0v0.02c-0.32,0.06-0.6,0.16-0.88,0.26c-1.08,0.44-1.94,1-2.55,1.68c-0.62,0.7-1.04,1.5-1.26,2.39
		c-0.2,0.8-0.3,1.6-0.3,2.41c0,0.86,0.12,1.74,0.38,2.59c0.24,0.88,0.66,1.68,1.2,2.41c0.56,0.72,1.3,1.34,2.18,1.8
		c1.66,0.88,4.13,1.02,5.99-0.02c0.02,0,0.02-0.02,0.04-0.02c0.74-0.42,1.38-0.9,1.92-1.42v11.89c-0.7-0.7-1.38-1.22-2.08-1.58
		c-0.7-0.36-1.34-0.58-1.94-0.68c-0.56-0.08-0.94-0.12-1.14-0.12c-0.28,0-0.56,0.02-0.82,0.04c0,0-0.02,0-0.04,0
		c-1.82,0.16-3.25,0.86-4.23,2.12c-1.08,1.36-1.64,3.09-1.64,5.19c0,1.46,0.18,2.71,0.52,3.75c0.36,1.08,0.84,1.98,1.44,2.65
		c0.62,0.72,1.38,1.24,2.22,1.56c1.5,0.58,3.13,0.62,4.93,0.18h0.02c0.58-0.14,1.18-0.34,1.78-0.58c1.42-0.56,2.81-1.32,4.13-2.24
		c1.32-0.92,2.53-2,3.61-3.17c0.38-0.4,0.72-0.82,1.04-1.24l1.96,20.64c-0.96-0.16-1.94-0.3-2.91-0.4
		C383.5,75.06,383.32,75.04,383.12,75.02z"/>
</g>
<g>
	<path class="st0" d="M440.54,46.39c0,2.84-0.2,5.57-0.6,8.22c-0.4,2.64-1,5.13-1.82,7.44c-0.81,2.32-1.83,4.45-3.06,6.4
		c-1.23,1.95-2.67,3.65-4.32,5.09c2.33,4.22,5.54,8.06,9.61,11.52c-5.32,1.71-9.97,4.43-13.96,8.15c-0.74-5.47-2.1-10.55-4.08-15.24
		c-1.03,0.27-2.1,0.48-3.21,0.64c-1.11,0.16-2.25,0.24-3.43,0.24c-4.22,0-7.89-0.85-11.01-2.55c-3.12-1.7-5.7-4.02-7.75-6.96
		c-2.05-2.94-3.58-6.38-4.59-10.32c-1-3.94-1.51-8.16-1.51-12.65c0-3.31,0.31-6.5,0.93-9.57c0.62-3.07,1.48-5.94,2.57-8.59
		c1.09-2.66,2.41-5.08,3.94-7.27c1.53-2.18,3.23-4.05,5.07-5.6c1.85-1.55,3.81-2.75,5.89-3.61c2.08-0.86,4.23-1.28,6.45-1.28
		c3.72,0,7.11,0.91,10.17,2.72c3.06,1.82,5.67,4.34,7.84,7.56c2.17,3.22,3.85,7.01,5.05,11.39
		C439.94,36.49,440.54,41.25,440.54,46.39z M422.42,42.57c0-2.21-0.18-4.26-0.53-6.13c-0.35-1.88-0.83-3.5-1.44-4.87
		c-0.61-1.37-1.32-2.45-2.15-3.23c-0.83-0.78-1.7-1.17-2.61-1.17c-0.89,0-1.73,0.46-2.53,1.39c-0.8,0.93-1.5,2.14-2.1,3.61
		c-0.61,1.48-1.09,3.13-1.44,4.96c-0.36,1.83-0.53,3.65-0.53,5.45c0,1.74,0.16,3.36,0.47,4.85c0.31,1.49,0.75,2.78,1.31,3.88
		c0.56,1.09,1.25,1.96,2.06,2.59c0.81,0.64,1.73,0.95,2.77,0.95c1,0,1.93-0.32,2.77-0.95c0.84-0.64,1.55-1.5,2.13-2.59
		c0.58-1.09,1.03-2.39,1.35-3.88C422.26,45.93,422.42,44.32,422.42,42.57z"/>
	<path class="st1" d="M422.87,36.26c-0.36-1.94-0.88-3.65-1.52-5.11c-0.64-1.48-1.44-2.67-2.37-3.55c-1.52-1.44-3.31-1.84-4.95-1.02
		c0,0-0.02,0.02-0.04,0.02c-0.56,0.3-1.1,0.72-1.58,1.3c-0.88,1.02-1.64,2.31-2.27,3.89c-0.64,1.52-1.14,3.25-1.5,5.15
		c-0.36,1.88-0.56,3.77-0.56,5.63c0,1.8,0.16,3.51,0.5,5.07c0.32,1.56,0.8,2.95,1.4,4.13c0.62,1.2,1.4,2.2,2.31,2.91
		c1,0.78,2.14,1.16,3.39,1.16c0.08,0,0.14,0,0.22-0.02c0.04,0,0.1,0,0.14-0.02c0.84-0.02,1.66-0.26,2.39-0.72
		c0.2-0.1,0.42-0.24,0.62-0.4c0.96-0.72,1.76-1.7,2.41-2.91c0.6-1.16,1.1-2.55,1.44-4.13c0.32-1.5,0.5-3.13,0.52-4.87v-0.2
		C423.43,40.31,423.23,38.18,422.87,36.26z M421.43,42.57c0,1.68-0.16,3.23-0.48,4.65c-0.3,1.4-0.72,2.61-1.26,3.61
		c-0.5,0.96-1.12,1.72-1.84,2.28c-1.36,1.02-3.07,0.98-4.33,0c-0.7-0.54-1.3-1.3-1.78-2.26c-0.52-1.02-0.94-2.24-1.22-3.63
		c-0.3-1.42-0.46-2.97-0.46-4.65c0-1.72,0.18-3.49,0.52-5.25c0.34-1.78,0.8-3.37,1.38-4.77c0.58-1.38,1.22-2.49,1.96-3.35
		c0.6-0.7,1.18-1.04,1.76-1.04c0.14,0,0.28,0.02,0.42,0.04c0.5,0.1,1.02,0.38,1.52,0.86c0.72,0.68,1.38,1.68,1.92,2.91
		c0.58,1.3,1.04,2.87,1.38,4.65c0.1,0.54,0.18,1.08,0.24,1.66C421.35,39.64,421.43,41.07,421.43,42.57z M422.87,36.26
		c-0.36-1.94-0.88-3.65-1.52-5.11c-0.64-1.48-1.44-2.67-2.37-3.55c-1.52-1.44-3.31-1.84-4.95-1.02c0,0-0.02,0.02-0.04,0.02
		c-0.56,0.3-1.1,0.72-1.58,1.3c-0.88,1.02-1.64,2.31-2.27,3.89c-0.64,1.52-1.14,3.25-1.5,5.15c-0.36,1.88-0.56,3.77-0.56,5.63
		c0,1.8,0.16,3.51,0.5,5.07c0.32,1.56,0.8,2.95,1.4,4.13c0.62,1.2,1.4,2.2,2.31,2.91c1,0.78,2.14,1.16,3.39,1.16
		c0.08,0,0.14,0,0.22-0.02c0.04,0,0.1,0,0.14-0.02c0.84-0.02,1.66-0.26,2.39-0.72c0.2-0.1,0.42-0.24,0.62-0.4
		c0.96-0.72,1.76-1.7,2.41-2.91c0.6-1.16,1.1-2.55,1.44-4.13c0.32-1.5,0.5-3.13,0.52-4.87v-0.2
		C423.43,40.31,423.23,38.18,422.87,36.26z M421.43,42.57c0,1.68-0.16,3.23-0.48,4.65c-0.3,1.4-0.72,2.61-1.26,3.61
		c-0.5,0.96-1.12,1.72-1.84,2.28c-1.36,1.02-3.07,0.98-4.33,0c-0.7-0.54-1.3-1.3-1.78-2.26c-0.52-1.02-0.94-2.24-1.22-3.63
		c-0.3-1.42-0.46-2.97-0.46-4.65c0-1.72,0.18-3.49,0.52-5.25c0.34-1.78,0.8-3.37,1.38-4.77c0.58-1.38,1.22-2.49,1.96-3.35
		c0.6-0.7,1.18-1.04,1.76-1.04c0.14,0,0.28,0.02,0.42,0.04c0.5,0.1,1.02,0.38,1.52,0.86c0.72,0.68,1.38,1.68,1.92,2.91
		c0.58,1.3,1.04,2.87,1.38,4.65c0.1,0.54,0.18,1.08,0.24,1.66C421.35,39.64,421.43,41.07,421.43,42.57z M441.03,84.32l-0.02-0.02
		c-3.75-3.17-6.77-6.71-9-10.56c1.48-1.38,2.79-2.97,3.91-4.77c1.26-2,2.31-4.21,3.15-6.59c0.82-2.37,1.46-4.95,1.86-7.64
		c0.4-2.67,0.62-5.49,0.62-8.36c0-5.19-0.62-10.08-1.84-14.53c-1.22-4.45-2.97-8.38-5.19-11.67c-2.24-3.33-4.99-5.97-8.16-7.86
		c-0.28-0.18-0.58-0.34-0.88-0.48c-2.97-1.58-6.27-2.37-9.8-2.37c-2.33,0-4.63,0.46-6.83,1.36c-2.16,0.88-4.23,2.16-6.15,3.77
		c-1.92,1.6-3.67,3.55-5.25,5.79c-1.58,2.24-2.93,4.75-4.05,7.46c-1.12,2.69-2,5.65-2.63,8.78c-0.62,3.11-0.94,6.41-0.94,9.76
		c0,4.55,0.52,8.9,1.54,12.89c1.02,4.05,2.61,7.62,4.73,10.66c2.14,3.05,4.85,5.49,8.08,7.26c3.25,1.78,7.12,2.67,11.5,2.67
		c1.22,0,2.41-0.1,3.57-0.26c0.86-0.12,1.68-0.28,2.47-0.46c1.78,4.37,3.01,9.14,3.69,14.21l0.26,1.9l1.4-1.32
		c3.87-3.59,8.44-6.27,13.59-7.92l1.72-0.56L441.03,84.32z M436.16,85.6c-3.29,1.46-6.33,3.35-9.04,5.65
		c-0.78-4.85-2.1-9.44-3.87-13.65l-0.34-0.8l-0.82,0.22c-1,0.24-2.04,0.46-3.11,0.62c-1.08,0.16-2.18,0.24-3.29,0.24
		c-4.03,0-7.58-0.82-10.54-2.43c-2.95-1.62-5.45-3.85-7.4-6.65c-1.98-2.83-3.47-6.19-4.43-10c-0.98-3.85-1.48-8.02-1.48-12.41
		c0-3.23,0.3-6.39,0.9-9.36c0.62-3.01,1.46-5.85,2.51-8.42c1.06-2.57,2.35-4.95,3.85-7.06c1.48-2.12,3.11-3.93,4.89-5.43
		c1.76-1.48,3.65-2.63,5.63-3.45c1.96-0.8,3.99-1.2,6.07-1.2c2.61,0,5.05,0.46,7.32,1.42c0.8,0.32,1.58,0.72,2.34,1.16
		c2.91,1.74,5.45,4.17,7.52,7.26c2.1,3.11,3.75,6.85,4.91,11.1c1.18,4.25,1.78,8.96,1.78,13.99c0,2.77-0.2,5.49-0.6,8.08
		c-0.38,2.55-0.98,5.01-1.78,7.26c-0.78,2.24-1.78,4.31-2.95,6.19c-1.16,1.86-2.55,3.49-4.13,4.89l-0.6,0.52l0.38,0.7
		c2.14,3.85,5.01,7.44,8.54,10.66C437.66,84.96,436.9,85.28,436.16,85.6z M421.35,31.15c-0.64-1.48-1.44-2.67-2.37-3.55
		c-1.52-1.44-3.31-1.84-4.95-1.02c0,0-0.02,0.02-0.04,0.02c-0.56,0.3-1.1,0.72-1.58,1.3c-0.88,1.02-1.64,2.31-2.27,3.89
		c-0.64,1.52-1.14,3.25-1.5,5.15c-0.36,1.88-0.56,3.77-0.56,5.63c0,1.8,0.16,3.51,0.5,5.07c0.32,1.56,0.8,2.95,1.4,4.13
		c0.62,1.2,1.4,2.2,2.31,2.91c1,0.78,2.14,1.16,3.39,1.16c0.08,0,0.14,0,0.22-0.02c0.04,0,0.1,0,0.14-0.02
		c0.84-0.02,1.66-0.26,2.39-0.72c0.2-0.1,0.42-0.24,0.62-0.4c0.96-0.72,1.76-1.7,2.41-2.91c0.6-1.16,1.1-2.55,1.44-4.13
		c0.32-1.5,0.5-3.13,0.52-4.87v-0.2c0-2.26-0.2-4.39-0.56-6.31C422.51,34.33,421.99,32.61,421.35,31.15z M421.43,42.57
		c0,1.68-0.16,3.23-0.48,4.65c-0.3,1.4-0.72,2.61-1.26,3.61c-0.5,0.96-1.12,1.72-1.84,2.28c-1.36,1.02-3.07,0.98-4.33,0
		c-0.7-0.54-1.3-1.3-1.78-2.26c-0.52-1.02-0.94-2.24-1.22-3.63c-0.3-1.42-0.46-2.97-0.46-4.65c0-1.72,0.18-3.49,0.52-5.25
		c0.34-1.78,0.8-3.37,1.38-4.77c0.58-1.38,1.22-2.49,1.96-3.35c0.6-0.7,1.18-1.04,1.76-1.04c0.14,0,0.28,0.02,0.42,0.04
		c0.5,0.1,1.02,0.38,1.52,0.86c0.72,0.68,1.38,1.68,1.92,2.91c0.58,1.3,1.04,2.87,1.38,4.65c0.1,0.54,0.18,1.08,0.24,1.66
		C421.35,39.64,421.43,41.07,421.43,42.57z M422.87,36.26c-0.36-1.94-0.88-3.65-1.52-5.11c-0.64-1.48-1.44-2.67-2.37-3.55
		c-1.52-1.44-3.31-1.84-4.95-1.02c0,0-0.02,0.02-0.04,0.02c-0.56,0.3-1.1,0.72-1.58,1.3c-0.88,1.02-1.64,2.31-2.27,3.89
		c-0.64,1.52-1.14,3.25-1.5,5.15c-0.36,1.88-0.56,3.77-0.56,5.63c0,1.8,0.16,3.51,0.5,5.07c0.32,1.56,0.8,2.95,1.4,4.13
		c0.62,1.2,1.4,2.2,2.31,2.91c1,0.78,2.14,1.16,3.39,1.16c0.08,0,0.14,0,0.22-0.02c0.04,0,0.1,0,0.14-0.02
		c0.84-0.02,1.66-0.26,2.39-0.72c0.2-0.1,0.42-0.24,0.62-0.4c0.96-0.72,1.76-1.7,2.41-2.91c0.6-1.16,1.1-2.55,1.44-4.13
		c0.32-1.5,0.5-3.13,0.52-4.87v-0.2C423.43,40.31,423.23,38.18,422.87,36.26z M421.43,42.57c0,1.68-0.16,3.23-0.48,4.65
		c-0.3,1.4-0.72,2.61-1.26,3.61c-0.5,0.96-1.12,1.72-1.84,2.28c-1.36,1.02-3.07,0.98-4.33,0c-0.7-0.54-1.3-1.3-1.78-2.26
		c-0.52-1.02-0.94-2.24-1.22-3.63c-0.3-1.42-0.46-2.97-0.46-4.65c0-1.72,0.18-3.49,0.52-5.25c0.34-1.78,0.8-3.37,1.38-4.77
		c0.58-1.38,1.22-2.49,1.96-3.35c0.6-0.7,1.18-1.04,1.76-1.04c0.14,0,0.28,0.02,0.42,0.04c0.5,0.1,1.02,0.38,1.52,0.86
		c0.72,0.68,1.38,1.68,1.92,2.91c0.58,1.3,1.04,2.87,1.38,4.65c0.1,0.54,0.18,1.08,0.24,1.66
		C421.35,39.64,421.43,41.07,421.43,42.57z M422.87,36.26c-0.36-1.94-0.88-3.65-1.52-5.11c-0.64-1.48-1.44-2.67-2.37-3.55
		c-1.52-1.44-3.31-1.84-4.95-1.02c0,0-0.02,0.02-0.04,0.02c-0.56,0.3-1.1,0.72-1.58,1.3c-0.88,1.02-1.64,2.31-2.27,3.89
		c-0.64,1.52-1.14,3.25-1.5,5.15c-0.36,1.88-0.56,3.77-0.56,5.63c0,1.8,0.16,3.51,0.5,5.07c0.32,1.56,0.8,2.95,1.4,4.13
		c0.62,1.2,1.4,2.2,2.31,2.91c1,0.78,2.14,1.16,3.39,1.16c0.08,0,0.14,0,0.22-0.02c0.04,0,0.1,0,0.14-0.02
		c0.84-0.02,1.66-0.26,2.39-0.72c0.2-0.1,0.42-0.24,0.62-0.4c0.96-0.72,1.76-1.7,2.41-2.91c0.6-1.16,1.1-2.55,1.44-4.13
		c0.32-1.5,0.5-3.13,0.52-4.87v-0.2C423.43,40.31,423.23,38.18,422.87,36.26z M421.43,42.57c0,1.68-0.16,3.23-0.48,4.65
		c-0.3,1.4-0.72,2.61-1.26,3.61c-0.5,0.96-1.12,1.72-1.84,2.28c-1.36,1.02-3.07,0.98-4.33,0c-0.7-0.54-1.3-1.3-1.78-2.26
		c-0.52-1.02-0.94-2.24-1.22-3.63c-0.3-1.42-0.46-2.97-0.46-4.65c0-1.72,0.18-3.49,0.52-5.25c0.34-1.78,0.8-3.37,1.38-4.77
		c0.58-1.38,1.22-2.49,1.96-3.35c0.6-0.7,1.18-1.04,1.76-1.04c0.14,0,0.28,0.02,0.42,0.04c0.5,0.1,1.02,0.38,1.52,0.86
		c0.72,0.68,1.38,1.68,1.92,2.91c0.58,1.3,1.04,2.87,1.38,4.65c0.1,0.54,0.18,1.08,0.24,1.66
		C421.35,39.64,421.43,41.07,421.43,42.57z"/>
</g>
<g>
	<path class="st0" d="M494.15,12.18c-0.68,3.4-1.23,7.47-1.64,12.23c-0.41,4.76-0.62,9.85-0.62,15.29c0,0.77,0.01,1.51,0.02,2.24
		c0.02,0.72,0.04,1.47,0.07,2.24c0.03,0.77,0.05,1.57,0.07,2.39c0.01,0.83,0.02,1.71,0.02,2.66c0,1.98-0.08,4.09-0.24,6.34
		c-0.16,2.24-0.52,4.48-1.09,6.69s-1.36,4.35-2.39,6.4c-1.03,2.06-2.41,3.85-4.14,5.41c-1.73,1.55-3.86,2.79-6.4,3.72
		c-2.54,0.93-5.58,1.4-9.13,1.4c-3.34,0-6.21-0.38-8.62-1.13c-2.41-0.75-4.45-1.79-6.11-3.1c-1.67-1.31-3.02-2.86-4.05-4.63
		c-1.03-1.77-1.83-3.68-2.39-5.74c-0.56-2.05-0.94-4.19-1.13-6.4c-0.19-2.21-0.29-4.42-0.29-6.6c0-0.98,0.01-1.79,0.02-2.46
		c0.01-0.66,0.04-1.27,0.07-1.82c0.03-0.55,0.06-1.1,0.09-1.66c0.03-0.56,0.06-1.22,0.09-2c0.03-0.77,0.05-1.7,0.07-2.79
		c0.01-1.09,0.02-2.45,0.02-4.08c0-1.98-0.04-4.22-0.11-6.73s-0.23-4.99-0.46-7.42c-0.24-2.44-0.57-4.67-1-6.69
		c-0.43-2.02-1-3.54-1.71-4.54c2.98,0.53,5.78,0.89,8.4,1.06c2.61,0.18,5.03,0.27,7.24,0.27c1.42,0,2.7-0.03,3.85-0.09
		c1.15-0.06,2.14-0.12,2.97-0.18c0.97-0.09,1.82-0.18,2.53-0.27c-0.38,1.83-0.77,3.89-1.15,6.16c-0.38,2.28-0.72,4.71-1.02,7.31
		c-0.3,2.6-0.54,5.33-0.73,8.2c-0.19,2.87-0.29,5.77-0.29,8.73c0,3.69,0.07,6.69,0.2,8.99s0.35,4.1,0.64,5.38
		c0.29,1.28,0.68,2.16,1.15,2.64c0.47,0.47,1.05,0.71,1.73,0.71c0.92,0,1.69-0.29,2.33-0.86c0.64-0.58,1.17-1.55,1.6-2.92
		c0.43-1.37,0.74-3.18,0.93-5.43c0.19-2.24,0.3-5.05,0.33-8.42c-0.06-4.81-0.21-9.3-0.44-13.47c-0.09-1.77-0.21-3.56-0.38-5.36
		c-0.16-1.8-0.36-3.5-0.58-5.1c-0.22-1.59-0.48-3.03-0.78-4.32c-0.3-1.28-0.64-2.3-1.02-3.04c2.95,0.53,5.69,0.89,8.2,1.06
		c2.51,0.18,4.77,0.27,6.78,0.27c1.33,0,2.52-0.03,3.57-0.09c1.05-0.06,1.94-0.12,2.68-0.18C492.75,12.36,493.5,12.27,494.15,12.18z
		"/>
	<path class="st1" d="M494.26,11.16l-0.24,0.04c-0.6,0.08-1.26,0.16-2.02,0.24c-0.06,0-0.12,0.02-0.18,0.02
		c-0.74,0.06-1.64,0.12-2.65,0.18c-2.59,0.14-6.09,0.1-10.24-0.18c-2.45-0.18-5.19-0.54-8.08-1.06l-2-0.36l0.5,0.98l-1.34,0.18
		c-0.7,0.08-1.52,0.18-2.45,0.26c-0.84,0.06-1.82,0.12-2.95,0.18c-2.89,0.14-6.73,0.1-10.98-0.18c-2.57-0.18-5.37-0.54-8.3-1.06
		l-2.37-0.42l1.4,1.98c0.62,0.9,1.14,2.29,1.54,4.17c0.42,1.98,0.76,4.19,0.98,6.59c0.24,2.41,0.4,4.89,0.46,7.34
		c0.08,2.51,0.12,4.75,0.12,6.71c0,1.64-0.02,2.97-0.02,4.07c-0.02,1.08-0.04,2.02-0.08,2.77c-0.02,0.76-0.06,1.42-0.08,1.98
		l-0.08,1.66c-0.04,0.56-0.06,1.18-0.08,1.86c-0.02,0.66-0.02,1.5-0.02,2.47c0,2.22,0.1,4.47,0.3,6.69
		c0.18,2.28,0.58,4.49,1.16,6.59c0.58,2.14,1.42,4.13,2.49,5.97c1.1,1.88,2.53,3.53,4.29,4.91c1.76,1.4,3.93,2.49,6.45,3.27
		c2.47,0.78,5.49,1.18,8.9,1.18c3.65,0,6.83-0.48,9.48-1.46c1.36-0.5,2.61-1.08,3.77-1.76c1.08-0.64,2.08-1.36,2.95-2.16
		c1.82-1.64,3.27-3.55,4.37-5.71c1.06-2.1,1.88-4.33,2.45-6.61c0.58-2.24,0.96-4.55,1.12-6.87c0.16-2.26,0.24-4.41,0.24-6.41
		c0-0.94,0-1.84-0.02-2.67c0-0.84-0.04-1.64-0.06-2.41c-0.02-0.76-0.06-1.5-0.06-2.22c-0.02-0.72-0.02-1.46-0.02-2.22
		c0-5.39,0.2-10.5,0.6-15.21c0.34-3.87,0.78-7.32,1.3-10.3v-0.02c0.1-0.62,0.22-1.22,0.34-1.8l0.28-1.38L494.26,11.16z
		 M469.39,11.08l0.4,0.76c0.34,0.68,0.66,1.62,0.94,2.81c0.28,1.24,0.54,2.65,0.76,4.23c0.22,1.58,0.4,3.25,0.56,5.05
		c0.16,1.78,0.28,3.55,0.38,5.33c0.24,4.13,0.38,8.66,0.44,13.39c-0.02,3.33-0.14,6.13-0.32,8.34c-0.2,2.18-0.5,3.93-0.9,5.23
		c-0.38,1.18-0.82,2.02-1.32,2.47c-0.44,0.4-0.98,0.6-1.66,0.6c-0.42,0-0.74-0.12-1.02-0.42c-0.14-0.14-0.4-0.5-0.68-1.36
		c-0.06-0.22-0.14-0.48-0.2-0.78c-0.28-1.24-0.5-2.99-0.62-5.23c-0.14-2.28-0.2-5.29-0.2-8.94c0-2.91,0.1-5.83,0.28-8.66
		c0.2-2.83,0.44-5.57,0.74-8.14c0.28-2.53,0.62-4.99,1-7.26c0-0.04,0.02-0.08,0.02-0.12c0.38-2.22,0.74-4.21,1.14-5.99L469.39,11.08
		z M491.52,24.33c-0.42,4.75-0.62,9.94-0.62,15.37c0,0.78,0,1.54,0.02,2.26c0,0.74,0.04,1.48,0.06,2.26
		c0.02,0.76,0.06,1.56,0.06,2.37c0.02,0.82,0.02,1.7,0.02,2.63c0,1.94-0.08,4.05-0.24,6.27c-0.16,2.2-0.5,4.39-1.06,6.53
		c-0.54,2.14-1.32,4.21-2.31,6.19c-0.96,1.94-2.28,3.65-3.91,5.11c-1.64,1.48-3.67,2.65-6.09,3.53c-0.84,0.32-1.72,0.56-2.67,0.76
		c0,0,0,0-0.02,0c-0.42,0.1-0.88,0.18-1.32,0.24l-0.24,0.04c-0.72,0.1-1.48,0.18-2.26,0.24h-0.14c-0.7,0.04-1.4,0.06-2.14,0.06
		c-3.21,0-6.01-0.36-8.32-1.08c-2.28-0.72-4.21-1.7-5.79-2.93c-1.56-1.24-2.85-2.69-3.81-4.35c-0.98-1.7-1.76-3.53-2.3-5.51
		c-0.54-1.98-0.9-4.07-1.1-6.23c-0.18-2.16-0.28-4.35-0.28-6.51c0-0.96,0-1.78,0.02-2.43c0.02-0.66,0.04-1.26,0.06-1.8l0.1-1.66
		c0.02-0.56,0.06-1.24,0.08-2c0.04-0.78,0.06-1.72,0.08-2.83c0-1.1,0.02-2.45,0.02-4.09c0-1.98-0.04-4.23-0.12-6.75
		c-0.06-2.51-0.22-5.05-0.46-7.5s-0.58-4.75-1.02-6.79c-0.24-1.18-0.54-2.18-0.88-3.03c2.28,0.36,4.47,0.62,6.53,0.76
		c4.03,0.26,7.7,0.32,10.6,0.18c0.22,0,0.42,0,0.62-0.02c1.16-0.06,2.16-0.1,3.01-0.18c0.42-0.02,0.8-0.06,1.18-0.1
		c-0.3,1.48-0.6,3.09-0.88,4.85c-0.4,2.29-0.74,4.77-1.04,7.36c-0.3,2.59-0.54,5.37-0.74,8.24c-0.18,2.85-0.28,5.81-0.28,8.78
		c0,3.69,0.06,6.75,0.2,9.06c0.14,2.35,0.36,4.21,0.66,5.55c0.34,1.48,0.8,2.49,1.42,3.11c0.08,0.08,0.16,0.16,0.26,0.22
		c0.62,0.52,1.36,0.78,2.18,0.78c1.18,0,2.18-0.38,2.99-1.12c0.78-0.7,1.4-1.82,1.9-3.37c0.44-1.44,0.76-3.33,0.96-5.63
		c0.2-2.28,0.32-5.13,0.34-8.52c-0.06-4.79-0.2-9.34-0.44-13.51c-0.1-1.78-0.22-3.57-0.38-5.39c-0.18-1.82-0.36-3.53-0.58-5.15
		c-0.24-1.62-0.5-3.11-0.8-4.41c-0.12-0.54-0.26-1.06-0.42-1.52c2.33,0.36,4.53,0.62,6.55,0.78c4.23,0.28,7.82,0.32,10.48,0.16
		c0.24-0.02,0.46-0.02,0.66-0.04c0.78-0.04,1.46-0.08,2.08-0.14c0.32-0.02,0.62-0.06,0.92-0.1
		C492.34,16.49,491.88,20.16,491.52,24.33z"/>
</g>
<g>
	<path class="st0" d="M520.28,75.4c0,0-7.58-34.13-3.93-62.15c0.02-0.2,0.06-0.42,0.08-0.62c-0.96,0.04-2.04,0.08-3.23,0.08
		c-2,0-4.25-0.08-6.75-0.26c-2.49-0.18-5.23-0.54-8.22-1.08c0.38,0.74,0.72,1.76,1,3.05c0.28,1.28,0.54,2.71,0.76,4.31
		c0.22,1.6,0.4,3.29,0.58,5.09c0.16,1.82,0.28,3.59,0.4,5.37c0.1,1.78,0.18,3.47,0.24,5.11c0.06,1.64,0.1,3.09,0.12,4.37
		c0.04,1.28,0.06,2.3,0.08,3.09c0,0.8,0.02,1.26,0.02,1.38c0,0.56-0.02,1.6-0.02,3.11c-0.02,1.5-0.08,3.29-0.16,5.35
		c-0.08,2.08-0.22,4.31-0.4,6.69c-0.18,2.39-0.42,4.75-0.74,7.08c-0.3,2.32-0.7,4.49-1.16,6.53c-0.48,2.04-1.04,3.73-1.7,5.05
		c3.69-0.6,7.12-1,10.28-1.2c3.17-0.2,5.95-0.3,8.34-0.3c1.24,0,2.31,0,3.27,0.04c0.42,0,0.82,0.02,1.18,0.04L520.28,75.4z"/>
	<path class="st1" d="M524.61,75.54c-0.74-2.69-1.4-5.57-1.9-8.54c-0.52-2.97-0.94-6.07-1.28-9.16c-0.34-3.09-0.58-6.27-0.72-9.4
		c-0.16-3.09-0.22-6.23-0.22-9.32c0-2.65,0.04-5.25,0.14-7.7c0.12-2.51,0.26-4.93,0.48-7.16c0.2-2.26,0.44-4.43,0.7-6.43
		c0.26-1.98,0.56-3.79,0.92-5.43l0.3-1.4l-1.42,0.2c-0.64,0.08-1.38,0.18-2.2,0.26c-0.74,0.06-1.64,0.12-2.67,0.18
		c-2.63,0.14-6.11,0.1-10.24-0.18c-2.43-0.18-5.17-0.54-8.1-1.06l-2-0.36l0.94,1.8c0.34,0.66,0.64,1.6,0.9,2.79
		c0.28,1.26,0.52,2.67,0.74,4.25c0.22,1.58,0.42,3.25,0.58,5.05c0.16,1.8,0.28,3.55,0.4,5.33c0.1,1.76,0.18,3.45,0.24,5.09
		c0.06,1.64,0.1,3.09,0.12,4.35l0.08,3.09c0.02,0.8,0.02,1.24,0.02,1.36c0,0.56,0,1.6-0.02,3.09c-0.02,1.5-0.08,3.27-0.16,5.33
		c-0.08,2.06-0.22,4.27-0.4,6.67c-0.18,2.35-0.42,4.71-0.72,7c-0.3,2.28-0.7,4.43-1.16,6.45c-0.46,1.96-1,3.57-1.62,4.83l-0.84,1.74
		l1.9-0.3c3.63-0.6,7.06-1,10.18-1.2c4.81-0.32,8.8-0.36,11.52-0.26c0.94,0.02,1.72,0.06,2.39,0.12c0.76,0.06,1.46,0.12,2.08,0.18
		l1.44,0.14L524.61,75.54z M519.18,74.5c-2.79-0.1-6.85-0.06-11.71,0.26c-2.67,0.18-5.57,0.5-8.6,0.94
		c0.38-1.04,0.74-2.24,1.04-3.57c0.48-2.06,0.88-4.29,1.2-6.63c0.32-2.33,0.56-4.73,0.74-7.12c0.18-2.39,0.3-4.65,0.4-6.73
		c0.08-2.08,0.14-3.87,0.16-5.39c0.02-1.52,0.02-2.55,0.02-3.11c0-0.12,0-0.58-0.02-1.4l-0.08-3.09c-0.02-1.28-0.06-2.73-0.12-4.39
		c-0.06-1.64-0.14-3.35-0.26-5.13c-0.1-1.78-0.24-3.57-0.4-5.39s-0.36-3.53-0.58-5.15c-0.22-1.62-0.48-3.09-0.76-4.39
		c-0.12-0.56-0.26-1.08-0.4-1.56c2.33,0.38,4.55,0.64,6.57,0.8c3.93,0.26,7.32,0.32,9.94,0.18c0.18,0,0.36,0,0.54-0.02
		c1.08-0.06,1.98-0.1,2.75-0.18c0.3-0.02,0.62-0.06,0.9-0.08c-0.24,1.32-0.48,2.71-0.66,4.21c-0.28,2.04-0.52,4.21-0.72,6.51
		c-0.2,2.28-0.36,4.71-0.48,7.26c-0.1,2.47-0.14,5.09-0.14,7.78c0,3.11,0.06,6.29,0.22,9.42c0.14,3.17,0.4,6.37,0.74,9.52
		c0.34,3.13,0.76,6.27,1.28,9.28c0.44,2.53,0.98,4.99,1.58,7.34c-0.2-0.02-0.42-0.02-0.66-0.04c-0.46-0.04-0.98-0.08-1.56-0.1
		C519.82,74.52,519.5,74.5,519.18,74.5z"/>
</g>
<g>
	<path class="st0" d="M567.57,76.69c-1.03-0.24-2.25-0.44-3.65-0.62c-1.4-0.18-2.87-0.31-4.39-0.4c-1.52-0.09-3.03-0.15-4.52-0.2
		c-1.49-0.04-2.84-0.07-4.03-0.09c-1.2-0.01-2.18-0.02-2.95-0.02s-1.18,0-1.24,0c-1.83,0.03-3.81,0.12-5.94,0.27
		c-1.83,0.15-3.92,0.36-6.27,0.64c-2.35,0.28-4.81,0.67-7.38,1.17c0.59-2.28,1.11-4.82,1.55-7.64c0.44-2.82,0.81-5.81,1.11-8.97
		c0.3-3.16,0.52-6.42,0.67-9.79c0.15-3.37,0.22-6.73,0.22-10.1c0-2.78-0.05-5.51-0.15-8.22c-0.1-2.7-0.27-5.29-0.49-7.78
		c-0.22-2.48-0.49-4.83-0.8-7.04c-0.31-2.21-0.69-4.24-1.13-6.07c3.07,0.56,5.86,0.93,8.35,1.11c2.49,0.18,4.7,0.27,6.63,0.27
		c1.21,0,2.29-0.02,3.23-0.07c0.94-0.05,1.74-0.1,2.39-0.15c0.77-0.09,1.43-0.18,1.99-0.27c-0.65,2.13-1.26,4.43-1.82,6.91
		c-0.56,2.48-1.04,5.03-1.44,7.64c-0.4,2.62-0.71,5.24-0.93,7.86c-0.22,2.63-0.33,5.14-0.33,7.53c0,3.04,0.19,5.65,0.57,7.82
		c0.38,2.17,0.95,3.94,1.71,5.32c0.75,1.37,1.67,2.38,2.75,3.03c1.08,0.65,2.31,0.98,3.7,0.98c1.86,0,3.7-0.67,5.52-2.02
		c1.82-1.34,3.39-3.3,4.72-5.87L567.57,76.69z"/>
	<path class="st1" d="M568.06,71.27l-2.18-22.81l-1.56,3.01c-1.26,2.41-2.73,4.27-4.43,5.53c-2.81,2.1-5.93,2.3-8.1,0.98
		c-0.92-0.56-1.72-1.44-2.37-2.65c-0.7-1.28-1.24-2.95-1.6-5.01c-0.38-2.1-0.56-4.67-0.56-7.64c0-2.39,0.1-4.89,0.32-7.44
		c0.22-2.59,0.52-5.23,0.92-7.8c0.4-2.59,0.88-5.15,1.44-7.58c0.54-2.43,1.16-4.73,1.8-6.83l0.22-0.74l0.24-0.8l-1.14,0.18
		l-0.44,0.08c-0.32,0.04-0.68,0.1-1.06,0.14c-0.28,0.04-0.56,0.08-0.86,0.12c-0.64,0.04-1.44,0.1-2.35,0.14
		c-2.43,0.12-5.83,0.08-9.74-0.2c-2.45-0.16-5.23-0.54-8.24-1.1l-1.52-0.26l0.36,1.48c0.44,1.82,0.82,3.83,1.12,5.99
		c0.3,2.22,0.58,4.55,0.78,6.98c0.22,2.43,0.38,5.03,0.5,7.72c0.1,2.67,0.14,5.43,0.14,8.18c0,3.37-0.06,6.75-0.2,10.06
		c-0.16,3.41-0.38,6.69-0.68,9.74c-0.28,3.09-0.66,6.11-1.1,8.92c-0.44,2.75-0.94,5.31-1.54,7.54l-0.38,1.54l1.54-0.3
		c2.53-0.5,4.99-0.9,7.32-1.18c2.32-0.28,4.39-0.48,6.21-0.64c2.14-0.14,4.11-0.22,5.87-0.26h1.24c0.78,0,1.76,0.02,2.93,0.02
		c1.2,0.02,2.53,0.04,4.03,0.1c1.48,0.04,2.97,0.1,4.49,0.2c1.5,0.08,2.95,0.22,4.31,0.38c1.34,0.18,2.53,0.38,3.55,0.6l1.36,0.32
		L568.06,71.27z M559.58,74.68c-1.52-0.1-3.03-0.16-4.55-0.2c-1.5-0.06-2.83-0.08-4.03-0.1c-1.22,0-2.2-0.02-2.97-0.02h-1.26
		c-1.82,0.04-3.83,0.12-5.99,0.28c-1.86,0.14-3.95,0.36-6.31,0.64c-1.92,0.22-3.89,0.52-5.93,0.9c0.44-1.92,0.84-3.99,1.2-6.23
		c0.44-2.85,0.82-5.89,1.12-9.02c0.28-3.09,0.52-6.41,0.66-9.84c0.16-3.35,0.22-6.77,0.22-10.16c0-2.79-0.04-5.57-0.14-8.26
		c-0.12-2.71-0.28-5.35-0.5-7.82c-0.22-2.45-0.48-4.85-0.8-7.08c-0.24-1.66-0.5-3.23-0.82-4.69c2.51,0.42,4.87,0.7,6.98,0.86
		c3.69,0.26,6.95,0.32,9.4,0.22c0.2,0,0.4-0.02,0.58-0.02c0.96-0.04,1.76-0.1,2.45-0.16c0.16-0.02,0.32-0.04,0.48-0.06
		c-0.5,1.74-0.96,3.57-1.4,5.49c-0.56,2.47-1.04,5.07-1.46,7.72c-0.4,2.61-0.72,5.29-0.94,7.92c-0.22,2.61-0.32,5.19-0.32,7.62
		c0,3.09,0.2,5.79,0.58,7.98c0.4,2.28,1.02,4.17,1.82,5.63c0.84,1.52,1.88,2.67,3.11,3.41c2.85,1.72,6.85,1.48,10.32-1.1
		c1.24-0.92,2.39-2.12,3.41-3.57l1.94,20.42c-0.74-0.12-1.54-0.26-2.39-0.36c-0.44-0.06-0.9-0.1-1.38-0.16
		C561.67,74.82,560.63,74.74,559.58,74.68z"/>
</g>
<g>
	<path class="st0" d="M626.12,76.47c-1.83-0.24-3.6-0.4-5.29-0.49c-1.7-0.09-3.42-0.13-5.16-0.13c-4.7,0-9.51,0.46-14.44,1.37
		c0.18-0.71,0.38-1.34,0.6-1.88c0.22-0.55,0.42-1.15,0.6-1.82c0.18-0.66,0.33-1.44,0.44-2.33c0.12-0.89,0.18-2.02,0.18-3.41
		c0-1.42-0.1-2.77-0.31-4.06c-0.21-1.28-0.52-2.42-0.93-3.41c-0.41-0.99-0.92-1.78-1.53-2.37c-0.6-0.59-1.31-0.88-2.1-0.88
		c-0.89,0-1.63,0.27-2.24,0.8c-0.61,0.53-1.09,1.26-1.46,2.17c-0.37,0.92-0.64,1.96-0.8,3.14c-0.16,1.18-0.24,2.44-0.24,3.77
		c0,1.33,0.08,2.48,0.24,3.43c0.16,0.96,0.36,1.79,0.58,2.5c0.22,0.71,0.43,1.34,0.64,1.88c0.21,0.55,0.35,1.08,0.44,1.62
		c-2.04-0.24-4.04-0.41-6-0.53c-1.97-0.12-3.92-0.18-5.87-0.18s-3.91,0.06-5.87,0.18c-1.97,0.12-4,0.29-6.09,0.53
		c1.83-5.32,3.43-10.59,4.81-15.82c1.37-5.23,2.55-10.48,3.52-15.77c0.97-5.29,1.76-10.63,2.37-16.04
		c0.61-5.41,1.06-10.94,1.35-16.61c2.19,0.29,4.58,0.51,7.2,0.64c2.61,0.13,5.29,0.2,8.04,0.2c2.33,0,4.6-0.06,6.8-0.18
		c2.2-0.12,4.23-0.37,6.09-0.75c0.21,5.64,0.74,11.19,1.59,16.66c0.86,5.46,1.93,10.88,3.21,16.24c1.28,5.36,2.75,10.66,4.41,15.9
		S624.29,71.3,626.12,76.47z M601.31,42.09c-0.06-0.56-0.24-1.39-0.53-2.48c-0.27-0.94-0.66-2.19-1.2-3.74s-1.31-3.55-2.35-6
		c-0.24,1.54-0.5,2.9-0.8,4.1c-0.3,1.2-0.58,2.28-0.84,3.23c-0.27,0.96-0.5,1.84-0.69,2.64c-0.19,0.8-0.29,1.55-0.29,2.26
		c0,1.48,0.35,2.62,1.04,3.43c0.69,0.81,1.47,1.22,2.33,1.22c0.92,0,1.68-0.44,2.3-1.33C600.91,44.53,601.25,43.42,601.31,42.09z"/>
	<path class="st1" d="M601.74,39.34c-0.28-0.96-0.68-2.22-1.22-3.79c-0.54-1.58-1.32-3.55-2.37-6.07l-1.36-3.25l-0.12,0.84
		l-0.42,2.65c-0.24,1.48-0.5,2.83-0.78,4.01c-0.3,1.18-0.58,2.26-0.84,3.19c-0.28,0.98-0.5,1.88-0.7,2.67
		c-0.16,0.74-0.28,1.44-0.3,2.14c-0.02,0.12-0.02,0.24-0.02,0.36c0,1.72,0.44,3.09,1.28,4.07c0.9,1.06,1.94,1.58,3.09,1.58
		c0.86,0,2.1-0.3,3.11-1.76c0.74-1.04,1.14-2.33,1.2-3.85v-0.14C602.24,41.35,602.04,40.47,601.74,39.34z M599.47,44.84
		c-0.56,0.8-1.12,0.9-1.48,0.9c-0.56,0-1.08-0.28-1.58-0.88c-0.52-0.62-0.8-1.56-0.8-2.77c0-0.64,0.1-1.32,0.26-2.04
		c0.2-0.78,0.42-1.64,0.68-2.59c0.28-0.98,0.56-2.06,0.86-3.27c0.06-0.26,0.12-0.52,0.18-0.8c0.42,1.06,0.78,2,1.06,2.79
		c0.52,1.54,0.9,2.75,1.16,3.69c0.34,1.18,0.46,1.88,0.5,2.26C600.25,43.21,599.97,44.13,599.47,44.84z M601.74,39.34
		c-0.28-0.96-0.68-2.22-1.22-3.79c-0.54-1.58-1.32-3.55-2.37-6.07l-1.36-3.25l-0.12,0.84l-0.42,2.65c-0.24,1.48-0.5,2.83-0.78,4.01
		c-0.3,1.18-0.58,2.26-0.84,3.19c-0.28,0.98-0.5,1.88-0.7,2.67c-0.16,0.74-0.28,1.44-0.3,2.14c-0.02,0.12-0.02,0.24-0.02,0.36
		c0,1.72,0.44,3.09,1.28,4.07c0.9,1.06,1.94,1.58,3.09,1.58c0.86,0,2.1-0.3,3.11-1.76c0.74-1.04,1.14-2.33,1.2-3.85v-0.14
		C602.24,41.35,602.04,40.47,601.74,39.34z M599.47,44.84c-0.56,0.8-1.12,0.9-1.48,0.9c-0.56,0-1.08-0.28-1.58-0.88
		c-0.52-0.62-0.8-1.56-0.8-2.77c0-0.64,0.1-1.32,0.26-2.04c0.2-0.78,0.42-1.64,0.68-2.59c0.28-0.98,0.56-2.06,0.86-3.27
		c0.06-0.26,0.12-0.52,0.18-0.8c0.42,1.06,0.78,2,1.06,2.79c0.52,1.54,0.9,2.75,1.16,3.69c0.34,1.18,0.46,1.88,0.5,2.26
		C600.25,43.21,599.97,44.13,599.47,44.84z M601.74,39.34c-0.28-0.96-0.68-2.22-1.22-3.79c-0.54-1.58-1.32-3.55-2.37-6.07
		l-1.36-3.25l-0.12,0.84l-0.42,2.65c-0.24,1.48-0.5,2.83-0.78,4.01c-0.3,1.18-0.58,2.26-0.84,3.19c-0.28,0.98-0.5,1.88-0.7,2.67
		c-0.16,0.74-0.28,1.44-0.3,2.14c-0.02,0.12-0.02,0.24-0.02,0.36c0,1.72,0.44,3.09,1.28,4.07c0.9,1.06,1.94,1.58,3.09,1.58
		c0.86,0,2.1-0.3,3.11-1.76c0.74-1.04,1.14-2.33,1.2-3.85v-0.14C602.24,41.35,602.04,40.47,601.74,39.34z M599.47,44.84
		c-0.56,0.8-1.12,0.9-1.48,0.9c-0.56,0-1.08-0.28-1.58-0.88c-0.52-0.62-0.8-1.56-0.8-2.77c0-0.64,0.1-1.32,0.26-2.04
		c0.2-0.78,0.42-1.64,0.68-2.59c0.28-0.98,0.56-2.06,0.86-3.27c0.06-0.26,0.12-0.52,0.18-0.8c0.42,1.06,0.78,2,1.06,2.79
		c0.52,1.54,0.9,2.75,1.16,3.69c0.34,1.18,0.46,1.88,0.5,2.26C600.25,43.21,599.97,44.13,599.47,44.84z M601.74,39.34
		c-0.28-0.96-0.68-2.22-1.22-3.79c-0.54-1.58-1.32-3.55-2.37-6.07l-1.36-3.25l-0.12,0.84l-0.42,2.65c-0.24,1.48-0.5,2.83-0.78,4.01
		c-0.3,1.18-0.58,2.26-0.84,3.19c-0.28,0.98-0.5,1.88-0.7,2.67c-0.16,0.74-0.28,1.44-0.3,2.14c-0.02,0.12-0.02,0.24-0.02,0.36
		c0,1.72,0.44,3.09,1.28,4.07c0.9,1.06,1.94,1.58,3.09,1.58c0.86,0,2.1-0.3,3.11-1.76c0.74-1.04,1.14-2.33,1.2-3.85v-0.14
		C602.24,41.35,602.04,40.47,601.74,39.34z M599.47,44.84c-0.56,0.8-1.12,0.9-1.48,0.9c-0.56,0-1.08-0.28-1.58-0.88
		c-0.52-0.62-0.8-1.56-0.8-2.77c0-0.64,0.1-1.32,0.26-2.04c0.2-0.78,0.42-1.64,0.68-2.59c0.28-0.98,0.56-2.06,0.86-3.27
		c0.06-0.26,0.12-0.52,0.18-0.8c0.42,1.06,0.78,2,1.06,2.79c0.52,1.54,0.9,2.75,1.16,3.69c0.34,1.18,0.46,1.88,0.5,2.26
		C600.25,43.21,599.97,44.13,599.47,44.84z M627.07,76.14c-0.08-0.22-0.16-0.42-0.22-0.64c-1.76-4.97-3.43-10-5.01-14.95
		c-1.64-5.19-3.11-10.52-4.39-15.83c-1.26-5.31-2.34-10.76-3.19-16.17c-0.84-5.43-1.38-11-1.58-16.54l-0.04-1.18l-1.16,0.24
		c-0.82,0.18-1.7,0.32-2.59,0.42c-1.08,0.16-2.2,0.26-3.35,0.32c-4.75,0.24-9.9,0.22-14.75-0.04c-2.57-0.12-4.95-0.34-7.1-0.62
		L582.61,11l-0.06,1.1c-0.3,5.67-0.74,11.24-1.34,16.54c-0.6,5.35-1.4,10.72-2.35,15.97c-0.98,5.25-2.16,10.52-3.51,15.71
		c-1.36,5.17-2.97,10.46-4.79,15.75l-0.52,1.5l1.58-0.18c2.08-0.24,4.11-0.42,6.03-0.52c3.93-0.24,7.7-0.24,11.63,0
		c1.18,0.06,2.37,0.16,3.61,0.28h0.02c0.78,0.06,1.54,0.14,2.32,0.24l1.32,0.16l-0.22-1.32c-0.1-0.6-0.26-1.22-0.5-1.8
		c-0.2-0.54-0.4-1.14-0.62-1.84c-0.22-0.66-0.4-1.46-0.54-2.37c-0.16-0.9-0.24-2.02-0.24-3.27s0.08-2.47,0.24-3.63
		c0.14-1.08,0.4-2.06,0.74-2.89c0.3-0.76,0.7-1.38,1.2-1.8c0.34-0.3,0.78-0.5,1.24-0.54c0.58-0.08,1.22,0.08,1.74,0.58
		c0.52,0.5,0.96,1.2,1.32,2.06c0.38,0.92,0.66,1.98,0.86,3.17c0.2,1.24,0.3,2.53,0.3,3.91c0,1.32-0.06,2.41-0.16,3.27
		c-0.12,0.84-0.26,1.58-0.42,2.2c-0.18,0.62-0.36,1.2-0.56,1.7c-0.24,0.6-0.46,1.28-0.66,2.02l-0.36,1.52l1.52-0.28
		c6.65-1.24,13.13-1.56,19.38-1.24c1.68,0.1,3.43,0.26,5.21,0.48l1.62,0.22L627.07,76.14z M620.88,74.98
		c-5.89-0.3-11.99-0.06-18.24,0.98c0.04-0.08,0.08-0.16,0.1-0.24c0.24-0.58,0.46-1.24,0.64-1.94c0.2-0.7,0.34-1.54,0.48-2.45
		c0.12-0.94,0.18-2.14,0.18-3.53c0-1.48-0.12-2.89-0.32-4.21c-0.22-1.36-0.56-2.59-1-3.65c-0.46-1.1-1.06-2.02-1.76-2.69
		c-0.8-0.78-1.74-1.18-2.79-1.18c-1.14,0-2.12,0.36-2.89,1.06c-0.72,0.62-1.32,1.48-1.74,2.53c-0.02,0.04-0.04,0.06-0.04,0.1v0.02
		c-0.38,0.96-0.66,2.06-0.82,3.27c-0.18,1.24-0.26,2.53-0.26,3.89c0,1.38,0.08,2.59,0.26,3.61c0.16,1,0.38,1.88,0.62,2.63
		c0.22,0.72,0.44,1.38,0.66,1.94c0,0.04,0.02,0.08,0.04,0.12c-1.42-0.14-2.79-0.28-4.13-0.34c-0.16-0.02-0.32-0.04-0.48-0.04
		c-3.99-0.24-7.86-0.24-11.85,0c-1.5,0.08-3.01,0.2-4.59,0.36c1.62-4.83,3.07-9.68,4.33-14.41c1.36-5.23,2.55-10.56,3.53-15.85
		c0.98-5.29,1.78-10.72,2.37-16.11c0.56-5.01,1-10.26,1.3-15.59c1.92,0.22,4.01,0.4,6.21,0.5c4.91,0.26,10.14,0.3,14.95,0.02
		c0.98-0.04,1.94-0.12,2.85-0.24c0.78-0.08,1.52-0.18,2.24-0.3c0.24,5.25,0.76,10.5,1.56,15.61c0.86,5.47,1.96,10.96,3.23,16.32
		c1.28,5.35,2.77,10.72,4.43,15.97c1.48,4.69,3.05,9.44,4.71,14.15c-0.86-0.1-1.68-0.16-2.49-0.22
		C621.72,75.04,621.3,75,620.88,74.98z M600.53,35.54c-0.54-1.58-1.32-3.55-2.37-6.07l-1.36-3.25l-0.12,0.84l-0.42,2.65
		c-0.24,1.48-0.5,2.83-0.78,4.01c-0.3,1.18-0.58,2.26-0.84,3.19c-0.28,0.98-0.5,1.88-0.7,2.67c-0.16,0.74-0.28,1.44-0.3,2.14
		c-0.02,0.12-0.02,0.24-0.02,0.36c0,1.72,0.44,3.09,1.28,4.07c0.9,1.06,1.94,1.58,3.09,1.58c0.86,0,2.1-0.3,3.11-1.76
		c0.74-1.04,1.14-2.33,1.2-3.85v-0.14c-0.06-0.64-0.26-1.52-0.56-2.65C601.47,38.38,601.07,37.12,600.53,35.54z M599.47,44.84
		c-0.56,0.8-1.12,0.9-1.48,0.9c-0.56,0-1.08-0.28-1.58-0.88c-0.52-0.62-0.8-1.56-0.8-2.77c0-0.64,0.1-1.32,0.26-2.04
		c0.2-0.78,0.42-1.64,0.68-2.59c0.28-0.98,0.56-2.06,0.86-3.27c0.06-0.26,0.12-0.52,0.18-0.8c0.42,1.06,0.78,2,1.06,2.79
		c0.52,1.54,0.9,2.75,1.16,3.69c0.34,1.18,0.46,1.88,0.5,2.26C600.25,43.21,599.97,44.13,599.47,44.84z M601.74,39.34
		c-0.28-0.96-0.68-2.22-1.22-3.79c-0.54-1.58-1.32-3.55-2.37-6.07l-1.36-3.25l-0.12,0.84l-0.42,2.65c-0.24,1.48-0.5,2.83-0.78,4.01
		c-0.3,1.18-0.58,2.26-0.84,3.19c-0.28,0.98-0.5,1.88-0.7,2.67c-0.16,0.74-0.28,1.44-0.3,2.14c-0.02,0.12-0.02,0.24-0.02,0.36
		c0,1.72,0.44,3.09,1.28,4.07c0.9,1.06,1.94,1.58,3.09,1.58c0.86,0,2.1-0.3,3.11-1.76c0.74-1.04,1.14-2.33,1.2-3.85v-0.14
		C602.24,41.35,602.04,40.47,601.74,39.34z M599.47,44.84c-0.56,0.8-1.12,0.9-1.48,0.9c-0.56,0-1.08-0.28-1.58-0.88
		c-0.52-0.62-0.8-1.56-0.8-2.77c0-0.64,0.1-1.32,0.26-2.04c0.2-0.78,0.42-1.64,0.68-2.59c0.28-0.98,0.56-2.06,0.86-3.27
		c0.06-0.26,0.12-0.52,0.18-0.8c0.42,1.06,0.78,2,1.06,2.79c0.52,1.54,0.9,2.75,1.16,3.69c0.34,1.18,0.46,1.88,0.5,2.26
		C600.25,43.21,599.97,44.13,599.47,44.84z M601.74,39.34c-0.28-0.96-0.68-2.22-1.22-3.79c-0.54-1.58-1.32-3.55-2.37-6.07
		l-1.36-3.25l-0.12,0.84l-0.42,2.65c-0.24,1.48-0.5,2.83-0.78,4.01c-0.3,1.18-0.58,2.26-0.84,3.19c-0.28,0.98-0.5,1.88-0.7,2.67
		c-0.16,0.74-0.28,1.44-0.3,2.14c-0.02,0.12-0.02,0.24-0.02,0.36c0,1.72,0.44,3.09,1.28,4.07c0.9,1.06,1.94,1.58,3.09,1.58
		c0.86,0,2.1-0.3,3.11-1.76c0.74-1.04,1.14-2.33,1.2-3.85v-0.14C602.24,41.35,602.04,40.47,601.74,39.34z M599.47,44.84
		c-0.56,0.8-1.12,0.9-1.48,0.9c-0.56,0-1.08-0.28-1.58-0.88c-0.52-0.62-0.8-1.56-0.8-2.77c0-0.64,0.1-1.32,0.26-2.04
		c0.2-0.78,0.42-1.64,0.68-2.59c0.28-0.98,0.56-2.06,0.86-3.27c0.06-0.26,0.12-0.52,0.18-0.8c0.42,1.06,0.78,2,1.06,2.79
		c0.52,1.54,0.9,2.75,1.16,3.69c0.34,1.18,0.46,1.88,0.5,2.26C600.25,43.21,599.97,44.13,599.47,44.84z"/>
</g>
<g>
	<path class="st3" d="M313.82,30.58c0,0-2.83,38.6-2.6,40.46s0.22,1.86,0.22,1.86s0.28,1.26,1.07-2.16s4.45-38.97,2.11-40.37
		C314.62,30.37,313.97,30.13,313.82,30.58z"/>
</g>
<g>
	<path class="st3" d="M351.68,19.35c0,0,3.2,36.44,0,45.59c0,0,2.53,0.89,2.53-0.89C354.21,62.26,354.65,18.9,351.68,19.35z"/>
</g>
<g>
	<path class="st3" d="M415.75,73.94c0,0,0.56,2.68-2.79,2.08c-3.35-0.59-22.24-15.25-18.07-33.77c0,0,0.15-1.56,1.71,0
		S393.97,65.41,415.75,73.94z"/>
</g>
<g>
	<polygon class="st3" points="425.38,76.69 429.25,87.33 427.62,88.59 425.38,77.09 	"/>
</g>
<g>
	<path class="st3" d="M449.26,25.83c0,0-1.36,39.13,7.44,46.48c0,0,1.64,0.45,2.23-0.59s-9-10.41-8.03-41.8
		C450.89,29.93,451.27,24.05,449.26,25.83z"/>
</g>
<g>
	<path class="st3" d="M475.61,18.82c0,0,1.08,36.98-1.26,40.99c0,0,1.66,1.44,1.93-0.39c0.27-1.86,1.34-34.96,1.12-39.49
		C477.4,19.93,476.28,18.22,475.61,18.82z"/>
</g>
<g>
	<path class="st3" d="M504,21.13c0,0,0.67,36.22-0.74,45.96c0,0,1.5,0.55,1.52,0.73c0.22,1.41,1.38-45.13,0.56-47.28
		C504.52,18.38,504,21.13,504,21.13z"/>
</g>
<g>
	<path class="st3" d="M586.33,18.63c0,0-2.83,25.17-4.54,29.64c0,0,0.87,1.27,1.71,0c0.42-0.65,4.16-29.64,4.16-29.64
		C588.04,17.79,586.33,18.63,586.33,18.63z"/>
</g>
<g>
	<path class="st3" d="M576.14,71.73l2.9-12.37c0,0,1.78-0.71,1.71,0.98c-0.07,1.69-2.83,11.38-3.72,11.38H576.14z"/>
</g>
<g>
	<path class="st3" d="M532.78,18.65c0,0,1.78,39.25-0.3,49.88c0,0,1.09,0.67,2.22-0.37c1.13-1.04-0.66-48.42-0.66-48.42
		S533.15,16.96,532.78,18.65z"/>
</g>
<g>
	<path class="st3" d="M398.94,25.11c0,0-0.86,1.9,0.56,1.56c1.41-0.33,4.76-9.33,10.82-10.38c0,0,1.56-1.12-0.74-0.52
		C407.27,16.37,400.28,22.29,398.94,25.11z"/>
</g>
<g>
	<path class="st3" d="M300.29,17.01c0,0-2.2,14.2-1.37,16.54c0,0,0.15,0.39,0.59-0.47c0.44-0.86,1.11-15.9,1.11-15.9
		S300.41,16.22,300.29,17.01z"/>
</g>
<g>
	<path class="st4" d="M330.01,74.78c-0.3-0.02-0.62-0.04-0.96-0.06c-0.68-0.06-3.15-0.15-4.05-0.17c0,0-4.48-30.69,1.43-50.98
		l0.08,0.3l-0.16,1.36c-0.24,2-0.42,4.15-0.52,6.39c-0.1,2.2-0.16,4.47-0.16,6.81c0,2.99,0.1,6.11,0.3,9.24
		c0.18,3.17,0.46,6.39,0.84,9.56c0.38,3.21,0.86,6.45,1.46,9.6C328.77,69.51,329.35,72.19,330.01,74.78z"/>
</g>
<g>
	<path class="st4" d="M341.47,41.45c-1.58-2.71-3.27-5.31-5.05-7.76c-2.63-3.61-5.47-6.69-8.44-9.12l-1.16-0.94
		c3.25,1.2,11.7,8.57,11.7,8.57c0.56-1.78-0.72-16.02-1.1-19.19c0.92-0.12,1.8-0.24,2.67-0.38L341.47,41.45z"/>
</g>
<path class="st4" d="M386.61,75.48c-0.96-0.16-3.57-0.52-4.55-0.62l0.67-13.29c0,0-5.99,1.27-10.9,1.05l2.24-0.55h0.02
	c0.58-0.14,1.18-0.34,1.78-0.58c1.42-0.56,2.81-1.32,4.13-2.24c1.32-0.92,2.53-2,3.61-3.17c0.38-0.4,0.72-0.82,1.04-1.24
	L386.61,75.48z"/>
<path class="st4" d="M385.31,12.39v17.4c-1.18-0.96-2.34-1.76-3.43-2.36c-0.6-0.34-1.18-0.64-1.74-0.9c1.86,0.12,3.19,0,3.13-0.64
	l-0.42-13.15C383.72,12.63,384.53,12.51,385.31,12.39z"/>
<path class="st4" d="M376.85,37.06v11.89c-0.7-0.7-1.38-1.22-2.08-1.58c-0.7-0.36-1.34-0.58-1.94-0.68
	c-0.56-0.08-0.94-0.12-1.14-0.12c-0.28,0-2.33,0.38-2.59,0.4c2.51-0.86,5.6-1.18,5.6-1.18l0.23-7.32
	C375.67,38.06,376.31,37.58,376.85,37.06z"/>
<path class="st4" d="M430.1,72.8l-0.6,0.52l0.38,0.7c2.14,3.85,5.01,7.44,8.54,10.66c-0.76,0.28-1.52,0.6-2.26,0.92
	c-5.17-3.93-9.14-14.89-9.14-14.89c22.35-31.41,1.48-53.01-4.01-57.84c0.8,0.32,1.58,0.72,2.34,1.16c2.91,1.74,5.45,4.17,7.52,7.26
	c2.1,3.11,3.75,6.85,4.91,11.1c1.18,4.25,1.78,8.96,1.78,13.99c0,2.77-0.2,5.49-0.6,8.08c-0.38,2.55-0.98,5.01-1.78,7.26
	c-0.78,2.24-1.78,4.31-2.95,6.19C433.07,69.77,431.67,71.41,430.1,72.8z"/>
<path class="st4" d="M466.24,60.29c0.08,0.08,0.16,0.16,0.26,0.22l-0.28,0.26c-6.19-7.28-4.33-43.59-4.13-47.14
	c0.22,0,0.42,0,0.62-0.02c1.16-0.06,2.16-0.1,3.01-0.18c0.42-0.02,0.8-0.06,1.18-0.1c-0.3,1.48-0.6,3.09-0.88,4.85
	c-0.4,2.29-0.74,4.77-1.04,7.36c-0.3,2.59-0.54,5.37-0.74,8.24c-0.18,2.85-0.28,5.81-0.28,8.78c0,3.69,0.06,6.75,0.2,9.06
	c0.14,2.35,0.36,4.21,0.66,5.55C465.16,58.65,465.62,59.67,466.24,60.29z"/>
<path class="st4" d="M491.52,24.33c-0.42,4.75-0.62,9.94-0.62,15.37c0,0.78,0,1.54,0.02,2.26c0,0.74,0.04,1.48,0.06,2.26
	c0.02,0.76,0.06,1.56,0.06,2.37c0.02,0.82,0.02,1.7,0.02,2.63c0,1.94-0.08,4.05-0.24,6.27c-0.16,2.2-0.5,4.39-1.06,6.53
	c-0.54,2.14-1.32,4.21-2.31,6.19c-0.96,1.94-2.28,3.65-3.91,5.11c-1.64,1.48-3.67,2.65-6.09,3.53c-0.84,0.32-1.72,0.56-2.67,0.76
	c11.58-3.89,12.59-19.08,12.59-19.08l2.55-44.94c0.78-0.04,1.46-0.08,2.08-0.14c0.32-0.02,0.62-0.06,0.92-0.1
	C492.34,16.49,491.88,20.16,491.52,24.33z"/>
<path class="st4" d="M522.32,74.68c-0.2-0.02-0.42-0.02-0.66-0.04c-0.46-0.04-0.98-0.08-1.56-0.1c-1.12-5.39-7-35.56-3.79-60.91
	c0.18,0,0.36,0,0.54-0.02c1.08-0.06,1.98-0.1,2.75-0.18c0.3-0.02,0.62-0.06,0.9-0.08c-0.24,1.32-0.48,2.71-0.66,4.21
	c-0.28,2.04-0.52,4.21-0.72,6.51c-0.2,2.28-0.36,4.71-0.48,7.26c-0.1,2.47-0.14,5.09-0.14,7.78c0,3.11,0.06,6.29,0.22,9.42
	c0.14,3.17,0.4,6.37,0.74,9.52c0.34,3.13,0.76,6.27,1.28,9.28C521.18,69.87,521.72,72.32,522.32,74.68z"/>
<path class="st4" d="M566.44,75.44c-0.74-0.12-1.54-0.26-2.39-0.36c-0.44-0.06-2.56-0.24-3.04-0.3l-0.26-12.28
	c0,0-9.94,2.97-14.81-3.58c-4.51-6.07-0.66-39.87-0.08-44.76c0.2,0,0.4-0.02,0.58-0.02c0.96-0.04,1.76-0.1,2.45-0.16
	c0.16-0.02,0.32-0.04,0.48-0.06c-0.5,1.74-0.96,3.57-1.4,5.49c-0.56,2.47-1.04,5.07-1.46,7.72c-0.4,2.61-0.72,5.29-0.94,7.92
	c-0.22,2.61-0.32,5.19-0.32,7.62c0,3.09,0.2,5.79,0.58,7.98c0.4,2.28,1.02,4.17,1.82,5.63c0.84,1.52,1.88,2.67,3.11,3.41
	c2.85,1.72,6.85,1.48,10.32-1.1c1.24-0.92,2.39-2.12,3.41-3.57L566.44,75.44z"/>
<path class="st4" d="M624.66,75.3c-0.86-0.1-1.68-0.16-2.49-0.22c-8.9-10.98-13.07-54.8-13.67-61.53c0.78-0.08,1.52-0.18,2.24-0.3
	c0.24,5.25,0.76,10.5,1.56,15.61c0.86,5.47,1.96,10.96,3.23,16.32c1.28,5.35,2.77,10.72,4.43,15.97
	C621.42,65.84,623,70.59,624.66,75.3z"/>
<path class="st4" d="M594,75.24c-1.42-0.14-2.79-0.28-4.13-0.34c-0.12-1.74,0.1-11.79,4.13-16.82c-0.38,0.96-1.16,3.75-1.32,4.96
	c-0.18,1.24-0.26,2.53-0.26,3.89c0,1.38,0.08,2.59,0.26,3.61c0.16,1,0.38,1.88,0.62,2.63c0.22,0.72,0.44,1.38,0.66,1.94
	C593.96,75.16,593.98,75.2,594,75.24z"/>
<path class="st4" d="M596.68,26.9v0.16l-0.42,2.65c-0.24,1.48-0.5,2.83-0.78,4.01c-0.3,1.18-0.58,2.26-0.84,3.19
	c-0.28,0.98-0.5,1.88-0.7,2.67c-0.16,0.74-0.28,1.44-0.3,2.14c-0.02-0.02-0.02-0.02-0.02-0.04C592.01,36,596.68,26.9,596.68,26.9z"
	/>
<path class="st4" d="M415.91,55.82c-4.01,0.7-7.72-1.14-8.4-9.74c-1.22-15.39,4.05-18.74,6.49-19.48c-0.56,0.3-1.1,0.72-1.58,1.3
	c-0.88,1.02-1.64,2.31-2.27,3.89c-0.64,1.52-1.14,3.25-1.5,5.15c-0.36,1.88-0.56,3.77-0.56,5.63c0,1.8,0.16,3.51,0.5,5.07
	c0.32,1.56,0.8,2.95,1.4,4.13c0.62,1.2,1.4,2.2,2.31,2.91c1,0.78,2.14,1.16,3.39,1.16C415.77,55.84,415.83,55.84,415.91,55.82z"/>
</svg>
