<?xml version="1.0" encoding="utf-8"?>
<!-- Generator: Adobe Illustrator 26.0.0, SVG Export Plug-In . SVG Version: 6.00 Build 0)  -->
<svg version="1.1" xmlns="http://www.w3.org/2000/svg" xmlns:xlink="http://www.w3.org/1999/xlink" x="0px" y="0px"
	 viewBox="0 0 242.98 165.76" style="enable-background:new 0 0 242.98 165.76;" xml:space="preserve">
<style type="text/css">
	.st0{fill:#F7ECEC;}
	.st1{fill:#111011;}
	.st2{fill:#3A9848;}
	.st3{fill:#4F9E56;}
	.st4{fill:#C23346;}
	.st5{fill:#D1808D;}
	.st6{fill:#97BE8D;}
	.st7{fill:#972334;}
	.st8{fill:#377C61;}
	.st9{fill:#C4DEE4;}
	.st10{fill:#DDA296;}
	.st11{fill:#DDA297;}
	.st12{fill:#171412;}
	.st13{fill:#333437;stroke:#171412;stroke-miterlimit:10;}
	.st14{fill:#FFFFFF;}
	.st15{fill:#0F0E0F;}
	.st16{fill:#0C0A0C;}
	.st17{fill:#333437;}
	.st18{fill:#A96B7D;}
	.st19{fill:#D4D3E8;}
	.st20{fill:#E8E8F3;}
	.st21{fill:#EFEFF7;}
	.st22{fill:#272565;}
	.st23{fill:none;stroke:#A96B7D;stroke-width:3;stroke-miterlimit:10;}
	.st24{fill:#F4F4DD;}
	.st25{fill:#E6E5C2;}
	.st26{fill:#DDDEED;}
	.st27{fill:#B2B1D4;}
	.st28{fill:#C684A8;}
	.st29{fill:#0B090B;}
	.st30{fill:#181118;}
	.st31{fill:#C8B724;}
	.st32{fill:#F2E434;}
	.st33{fill:#F9EFD3;}
	.st34{fill:#EFE16B;}
</style>
<g id="Capa_6">
	<g>
		<path class="st0" d="M177.15,73.24l-0.64,1.2c-3.11-1.7-6.09-2.81-8.72-3l-0.27-0.02c-2.36-0.11-4.23,0.54-5.73,2l-0.94-0.98
			c1.75-1.7,4.01-2.5,6.72-2.38l0.3,0.02C170.69,70.29,173.86,71.45,177.15,73.24z"/>
		<path class="st0" d="M202.45,94.23l-0.68,1.3c-5.9-6.16-14.71-14.64-22.93-19.72l0.66-1.2C187.78,79.69,196.51,88.04,202.45,94.23
			z"/>
		<path class="st0" d="M209.67,102.16l-1.03,0.88c-0.08-0.07-1.93-2.26-4.9-5.42l0.68-1.3C207.43,99.52,209.38,101.82,209.67,102.16
			z"/>
	</g>
	<g>
		<path class="st0" d="M171.39,83.89l-0.63,1.18l-0.01,0c-1.29-0.64-2.49-1.06-3.58-1.22l0.2-1.33
			C168.6,82.7,169.95,83.18,171.39,83.89z"/>
		<path class="st0" d="M190.78,100.26c-0.61,0-1.21,0.05-1.78,0.14c-5.23-5.53-10.98-10.93-15.89-14l0.64-1.19
			C179.1,88.55,185.29,94.42,190.78,100.26z"/>
		<path class="st0" d="M205.75,117.7l-1.07,0.83c-0.1-0.12-3.2-4.1-7.72-9.34c0.44-0.23,0.81-0.5,1.14-0.79
			C202.4,113.41,205.38,117.26,205.75,117.7z"/>
	</g>
	<g>
		<path class="st0" d="M165.25,94.35c0.13,0.05,0.28,0.1,0.41,0.17l-0.64,1.2c-0.09-0.03-0.17-0.07-0.25-0.1L165.25,94.35z"/>
		<path class="st0" d="M203.75,134.61l-1.12,0.78c-0.22-0.33-21.15-30.42-35.18-38.46l0.64-1.21
			C182.39,103.89,202.83,133.28,203.75,134.61z"/>
	</g>
	<g>
		<path class="st0" d="M199.22,150.32c-0.25-0.4-25.02-40.34-39.87-45.15l0.42-1.29c15.32,4.96,39.58,44.07,40.6,45.73
			L199.22,150.32z"/>
	</g>
	<g>
		<path class="st0" d="M191.51,158.77c-0.22-0.39-22.58-39.15-37.99-44.39l0.44-1.28c15.89,5.41,37.8,43.39,38.73,45L191.51,158.77z
			"/>
	</g>
	<g>
		<path class="st0" d="M10.25,124.42l-0.14,1.59C8,124.48,6,122.68,4.09,120.57l1.02-0.92C6.75,121.45,8.47,123.04,10.25,124.42z"/>
		<path class="st0" d="M22.21,130.58l-0.18,1.36c-3.69-1.09-7.27-2.74-10.64-5.02l0.14-1.57C14.91,127.75,18.5,129.43,22.21,130.58z
			"/>
		<path class="st0" d="M46.98,132.89c-4.87,0.84-9.94,1.21-14.98,0.85c-2.91-0.21-5.81-0.66-8.66-1.42l0.18-1.36
			c7.67,2.07,15.75,1.89,23.35,0.58C46.91,131.99,46.95,132.44,46.98,132.89z"/>
		<path class="st0" d="M81.32,120.06c-0.27,0.17-15.13,9.25-33,12.6c-0.04-0.45-0.06-0.9-0.09-1.35
			c17.51-3.3,32.11-12.23,32.38-12.4L81.32,120.06z"/>
	</g>
	<g>
		<path class="st0" d="M12.1,120.65c-0.56,0.16-1.01,0.42-1.29,0.74c-2.44-1.89-4.76-4.19-6.91-6.95l1.08-0.83
			C7.18,116.44,9.57,118.77,12.1,120.65z"/>
		<path class="st0" d="M22.82,126l-0.18,1.36c-2.57-0.73-5.11-1.75-7.54-3.12c0.73-0.08,1.34-0.3,1.77-0.61
			C18.82,124.63,20.8,125.41,22.82,126z"/>
		<path class="st0" d="M46.61,127.59c-5.05,1.07-10.35,1.61-15.62,1.24c-2.37-0.17-4.72-0.53-7.03-1.11l0.19-1.35
			c7.36,1.86,15.13,1.41,22.38-0.13C46.56,126.68,46.58,127.13,46.61,127.59z"/>
		<path class="st0" d="M77.88,114.53c-0.26,0.17-13.63,9.03-29.93,12.78c-0.03-0.48-0.06-0.93-0.08-1.37
			c15.92-3.7,29-12.38,29.25-12.54L77.88,114.53z"/>
	</g>
	<g>
		<path class="st0" d="M23.39,121.88l-0.19,1.37c-6.53-1.92-12.85-5.84-18.4-12.7l1.04-0.86C11.12,116.22,17.16,119.99,23.39,121.88
			z"/>
		<path class="st0" d="M46.37,123.25c-4.86,1.19-10.02,1.81-15.2,1.44c-2.22-0.16-4.45-0.51-6.65-1.07l0.19-1.37
			c7.25,1.89,14.71,1.32,21.58-0.36C46.31,122.28,46.34,122.74,46.37,123.25z"/>
		<path class="st0" d="M48.68,122.64c-0.32,0.1-0.65,0.2-0.98,0.27c-0.01-0.27-0.02-0.53-0.04-0.78
			C47.96,122.33,48.3,122.5,48.68,122.64z"/>
		<path class="st0" d="M67.62,114.46c-3.24,1.89-7.34,4-12.07,5.87c-0.02-0.44-0.2-0.86-0.51-1.25c3.73-1.46,7.12-3.12,9.95-4.67
			c0.31,0.08,0.63,0.13,0.97,0.15C66.55,114.6,67.11,114.56,67.62,114.46z"/>
		<path class="st0" d="M69.9,113.1c0.2-0.27,0.31-0.59,0.34-0.91c0.01-0.2-0.01-0.41-0.06-0.62c-0.02-0.06-0.03-0.12-0.07-0.18
			c0.01-0.01,0.03-0.01,0.04-0.02c2.38-1.52,3.77-2.56,3.85-2.62l0.82,1.08C74.72,109.9,72.92,111.25,69.9,113.1z"/>
	</g>
	<g>
		<path class="st0" d="M24.42,117.22c-0.18,0.22-0.3,0.45-0.35,0.72l-0.15-0.02l-0.08,0.55c-6.8-1.64-13.31-5.4-18.74-12.37
			l1.07-0.83C11.43,112.04,17.77,115.66,24.42,117.22z"/>
		<path class="st0" d="M68.54,108.45c-0.48,0.28-0.99,0.57-1.53,0.87c-0.21-0.04-0.44-0.07-0.67-0.09c-2.25-0.16-4.17,0.9-4.28,2.37
			c-0.01,0.09,0,0.18,0.01,0.27c-8.37,4.04-20.36,8.38-32.14,7.54l-0.11-0.01c0.19-0.24,0.3-0.54,0.32-0.83
			c0.01-0.18,0-0.34-0.06-0.51c15.38,1.1,31.2-6.91,38.36-11.12C68.48,107.46,68.52,107.98,68.54,108.45z"/>
		<path class="st0" d="M73.17,105.57c-0.07,0.05-1.26,0.88-3.32,2.1c-0.03-0.49-0.06-1-0.1-1.52c1.64-1,2.58-1.65,2.64-1.7
			L73.17,105.57z"/>
	</g>
	<g>
		<path class="st0" d="M68.25,103.19c-6.73,4.7-22.82,14.56-38.42,13.45c-0.41-0.03-0.83-0.06-1.23-0.11
			c-0.41-0.19-0.86-0.31-1.36-0.34c-0.27-0.02-0.54-0.01-0.8,0.02l-0.01,0c-8.52-1.53-15.59-6.5-21.03-14.75l1.14-0.75
			c5.4,8.2,12.45,13.02,20.95,14.31c16.52,2.51,34.31-8.86,40.72-13.45C68.21,102.1,68.22,102.65,68.25,103.19z"/>
		<path class="st0" d="M71.52,100.76c-0.04,0.02-0.74,0.59-1.96,1.49c-0.01-0.59-0.03-1.14-0.03-1.69c0.7-0.52,1.09-0.83,1.12-0.86
			L71.52,100.76z"/>
	</g>
	<g>
		<polygon class="st0" points="214.52,76.99 214.25,77.7 214.17,77.66 		"/>
		<path class="st0" d="M215.73,73.91l-0.78,2.01l-0.4,1.02l-0.03,0.05l-0.35,0.67l-9.75,18.65l-0.68,1.3l-4.25,8.13
			c0.01,0.04,0.01,0.1,0,0.14c-0.07,0.97-0.57,1.84-1.39,2.54c-0.33,0.29-0.71,0.56-1.14,0.79c-1.53,0.84-3.61,1.28-5.89,1.12
			c-4.45-0.32-7.9-2.82-7.7-5.59c0.15-2.15,2.49-3.85,5.64-4.32c0.56-0.1,1.17-0.15,1.78-0.14c0.33,0,0.67,0.01,1,0.03
			c2.6,0.19,4.84,1.11,6.23,2.4l3.75-7.17l0.68-1.3l9.18-17.57L184.2,65.88l-0.01,0l-4.69,8.72l-0.66,1.2l-5.08,9.41l-0.64,1.19
			l-5.02,9.31l-0.64,1.21l-1.32,2.44l-2.4-1.29l1.27-2.36l0.64-1.2l5.09-9.44l0.01,0l0.63-1.18l5.11-9.45l0.64-1.2l5.31-9.83l0-0.01
			l0.02-0.04l0.86-2.17L215.73,73.91z"/>
	</g>
	<g>
		<polygon class="st0" points="215.05,75.99 214.55,76.94 214.95,75.92 		"/>
	</g>
	<g>
		<path class="st0" d="M48.68,122.64c-0.38-0.14-0.73-0.31-1.02-0.51c0.02,0.25,0.03,0.51,0.04,0.78c0.05,0.87,0.11,1.9,0.18,3.03
			c0.02,0.44,0.05,0.89,0.08,1.37c0.09,1.27,0.17,2.62,0.27,4c0.04,0.45,0.06,0.9,0.09,1.35c0.37,4.84,0.88,9.7,1.48,11.84
			l-0.72,0.21l0.02,0.1c-0.54,0.12-1.04,0.16-1.53,0.12c-5.25-0.37-8-9.02-8.14-9.42l2.6-0.81c0.63,2.04,3.01,7.5,5.94,7.51
			c-0.38-2.5-0.72-5.91-0.98-9.32c-0.04-0.45-0.07-0.9-0.11-1.35c-0.09-1.37-0.19-2.71-0.26-3.95c-0.03-0.46-0.06-0.92-0.08-1.35
			c-0.07-1.11-0.12-2.12-0.17-2.99c-0.03-0.51-0.05-0.97-0.08-1.37c-0.05-1.04-0.08-1.71-0.09-1.84l0.04,0
			c-0.01-0.06-0.01-0.11,0-0.16c0.11-1.58,2.29-2.72,4.86-2.54c1.73,0.12,3.21,0.81,3.94,1.74c0.31,0.39,0.49,0.81,0.51,1.25
			c0.01,0.07,0,0.15,0,0.22c-0.11,1.58-2.29,2.71-4.86,2.52C49.96,123.02,49.28,122.87,48.68,122.64z"/>
	</g>
	<g>
		<path class="st0" d="M30.14,118.57c-0.02,0.3-0.12,0.59-0.32,0.83c-0.52,0.75-1.64,1.2-2.89,1.11c-0.73-0.05-1.39-0.29-1.9-0.64
			l-0.32,2.37l-0.19,1.37l-0.36,2.75l-0.19,1.35l-0.44,3.25l-0.18,1.36l-0.84,6.24l-0.05,0l-0.03,0.42l-13.46-1.17l0.23-2.7
			l0.08,0.01l0.83-9.09l0.14-1.59l0.22-2.31c0.01-0.12,0.03-0.23,0.08-0.33c0.06-0.15,0.14-0.28,0.26-0.39
			c0.28-0.32,0.73-0.57,1.29-0.74c0.58-0.18,1.3-0.25,2.04-0.19c1.96,0.14,3.48,1.11,3.41,2.16c-0.03,0.39-0.27,0.74-0.67,1.01
			c-0.43,0.31-1.04,0.52-1.77,0.61c-0.38,0.05-0.81,0.06-1.24,0.03c-0.84-0.06-1.6-0.28-2.19-0.59l-0.15,1.68l-0.14,1.57l-0.76,8.31
			l10.82,0.94l0.57-4.23l0.18-1.36l0.43-3.22l0.18-1.36l0.37-2.75l0.19-1.37l0.45-3.41l0.08-0.55l0.15,0.02
			c0.05-0.27,0.17-0.5,0.35-0.72c0.41-0.54,1.14-0.91,2-1.01l0.01,0c0.26-0.04,0.53-0.04,0.8-0.02c0.5,0.04,0.95,0.15,1.36,0.34
			c0.77,0.33,1.32,0.9,1.48,1.53C30.14,118.23,30.15,118.39,30.14,118.57z"/>
	</g>
	<g>
		<path class="st0" d="M10.55,121.78c-0.05,0.11-0.07,0.21-0.08,0.33l0.02-0.34L10.55,121.78z"/>
	</g>
	<g>
		<path class="st0" d="M70.23,112.19c-0.02,0.32-0.14,0.64-0.34,0.91l-0.01,0.01c-0.41,0.64-1.21,1.11-2.2,1.32
			c-0.01,0.01-0.04,0.01-0.06,0.02c-0.51,0.1-1.07,0.14-1.67,0.1c-0.34-0.02-0.66-0.07-0.97-0.15c-1.63-0.37-2.82-1.38-2.92-2.53
			c-0.01-0.1-0.01-0.18-0.01-0.27c0.11-1.47,2.03-2.53,4.28-2.37c0.23,0.02,0.46,0.05,0.67,0.09c0.62,0.11,1.19,0.32,1.66,0.58
			c-0.04-0.42-0.08-0.92-0.13-1.45c-0.02-0.46-0.07-0.98-0.1-1.5c-0.08-1.19-0.15-2.49-0.19-3.75c-0.03-0.55-0.04-1.09-0.05-1.62
			c-0.05-2.36,0.01-4.46,0.31-5.43l1.29,0.39c-0.21,0.71-0.28,2.21-0.26,4.03c0,0.54,0.02,1.1,0.03,1.69
			c0.05,1.27,0.11,2.62,0.18,3.9c0.03,0.52,0.06,1.02,0.1,1.52c0.1,1.45,0.21,2.75,0.29,3.69c-0.01,0.01-0.03,0.01-0.04,0.02
			c0.04,0.06,0.05,0.13,0.07,0.18C70.22,111.78,70.25,111.98,70.23,112.19z"/>
		<path class="st0" d="M70.17,111.57c-0.02-0.06-0.03-0.12-0.07-0.18c0.01-0.01,0.03-0.01,0.04-0.02
			C70.15,111.43,70.16,111.5,70.17,111.57z"/>
	</g>
</g>
<g id="Capa_2">
	<g>
		<g>
			<path class="st1" d="M163.04,51.89c-0.55-0.76-1.13-1.49-1.75-2.19c-1.94-6.54-8.85-10.15-14.6-13.02
				c-5.93-2.95-12.26-5.1-18.75-6.43c-2.15-0.44-4.31-0.8-6.47-1.04c0.1-0.12,0.19-0.25,0.27-0.4c3.99-7.37,9.89-13.52,16.94-18.02
				c1.47-0.94,0.76-3-0.51-3.66c-1.93-0.97-3.45-3.43-5.68-4.38c-3.19-1.37-5.27,0.99-7.55,2.85c-4.98,4.07-10.6,7.57-14.59,12.72
				c-2.26,2.94-3.78,6.35-4.23,10.04c-0.02,0.22-0.02,0.42,0.01,0.6c-6.82,0.59-13.56,2.09-20.02,4.48
				c-7.92,2.93-15.36,7.2-21.89,12.54c-0.72,0.58-0.9,1.48-0.69,2.24c-5.36,4-9.13,9.91-10.98,16.39c-2.57,9-1.55,18.47,0.87,27.38
				c4.97,18.3,15.15,35.11,28.73,48.31c6.16,5.99,13.26,12.18,21.82,14.25c9.02,2.19,18.2-1.67,25.25-7.13
				c3.97-3.09,7.47-6.72,10.93-10.34c3.33-3.48,6.59-7.03,9.7-10.7c5.99-7.1,11.4-14.76,15.29-23.23
				C172.61,86.91,173.92,66.98,163.04,51.89z M119.1,14.62c1.46-1.11,5.87-4.36,7.29-5.51c0.66-0.54,2.22-1,2.86-1.57
				c0.34-0.29,0.66-0.67,1.04-0.91c0.04-0.03,0.28-0.16,0.33-0.17l-0.49-0.35c0.67,0.03,2.25,1.66,2.9,2.25
				c0.23,0.21,0.46,0.42,0.69,0.64c-6.62,4.75-12.57,12.63-16.47,19.81c0.19,0.02,0.39,0.02,0.58,0.04
				c1.29-2.68-0.87,0.49-0.58-0.04c-2.28-0.14-6.11-0.16-8.4-0.09C109.82,21.42,113.6,18.81,119.1,14.62z M95.22,35.09
				c3.12-0.79,6.3-1.36,9.52-1.73c12.28-1.38,24.85,0.54,36.22,5.36c0.55,0.24,1.09,0.48,1.64,0.72c2.61,1.19,5.15,2.51,7.58,4.01
				c1.78,1.09,3.74,2.39,5.19,4.03c0.26,0.3,0.51,0.61,0.71,0.93c-0.32-0.05-0.62-0.1-0.93-0.14c-2.79-0.38-5.61-0.81-8.38-1.36
				c-5.08-1.03-10.06-2.49-14.58-5c-0.93-0.51-2.13,0.07-2.64,0.91c-0.5,0.67-0.59,1.57,0.15,2.38c4.2,4.6,9.07,10,9.6,16.35
				c-5.98-4.99-11.78-10.41-15.12-17.53c-1.07-2.29-4.12-1.25-4.08,1.1c0.12,8.93-2.76,17.74-7.93,24.98
				c-4.94-7.18-5.99-16.68-2.52-24.75c0.99-2.29-2.17-3.93-3.68-2.1c-5.78,7.02-13.2,12.45-21.54,15.94
				c1.87-5.65,5.47-10.85,10.71-13.8c1.96-1.1,1.47-4.46-1.1-4.08c-4.14,0.6-8.29,1.22-12.43,1.82c-2.58,0.38-5.15,0.76-7.73,1.14
				C80.44,40.09,87.67,36.98,95.22,35.09z M163.33,96.36c-6.02,16.36-18.2,30.01-30.43,42.08c-6.11,6.03-13.37,11.76-22.25,12.41
				c-2.28,0.17-4.46-0.1-6.54-0.68c-2.6-0.73-5.07-1.96-7.4-3.43c-2.54-1.61-4.92-3.52-7.14-5.43
				c-13.32-11.42-23.57-26.34-29.59-42.8c-5.3-14.46-8.49-34.12,4.55-45.65c1.36-1.2,2.84-2.25,4.46-3.08
				c0.3-0.15,0.53-0.35,0.71-0.57c0.5-0.07,0.99-0.14,1.49-0.22c5.24-0.77,10.5-1.54,15.74-2.32c-3.98,4.31-6.54,9.82-7.68,15.69
				c-0.33,1.71,1.51,2.72,2.94,2.25c7.95-2.66,15.24-7,21.38-12.64c-0.94,8.17,1.52,16.69,6.95,22.98c0.8,0.94,2.09,1.05,3,0.33
				c0.13-0.1,0.26-0.23,0.38-0.37c1.12-1.37,2.15-2.79,3.08-4.28c0.04-0.05,0.07-0.12,0.11-0.17c0-0.01,0.01-0.01,0.01-0.01
				c0.01-0.03,0.03-0.05,0.04-0.08c3.56-5.6,5.85-11.96,6.74-18.54c4.35,6.09,10.2,11,16,15.75c1.32,1.09,3.08,0.05,3.4-1.43
				c1.35-6.28-1.13-11.92-4.67-16.89c4.01,1.28,8.19,2.1,12.37,2.74c2.56,0.39,5.12,0.73,7.64,1.06
				C168.34,65.02,168.5,82.27,163.33,96.36z"/>
			<path class="st2" d="M112.91,28.71c1.45-0.01,2.9,0.03,4.34,0.12c3.9-7.17,9.84-15.06,16.47-19.81
				c-0.23-0.21-0.46-0.43-0.68-0.64c-0.2-0.18-0.46-0.43-0.73-0.68C129.21,9.58,117.97,17.06,112.91,28.71z"/>
			<path class="st3" d="M156.07,48.42c-0.32-0.05-0.62-0.1-0.93-0.14c-7.91-1.07-15.96-2.48-22.96-6.36
				c-0.93-0.51-2.13,0.07-2.64,0.91c-0.5,0.67-0.59,1.57,0.15,2.38c4.2,4.6,9.07,10,9.6,16.35c-5.98-4.99-11.78-10.41-15.12-17.53
				c-1.07-2.29-4.12-1.25-4.08,1.1c0.12,8.93-2.76,17.74-7.93,24.98c-4.94-7.18-5.99-16.68-2.52-24.75c0.99-2.29-2.17-3.93-3.68-2.1
				c-5.78,7.02-13.2,12.45-21.54,15.94c1.87-5.65,5.47-10.85,10.71-13.8c1.96-1.1,1.47-4.46-1.1-4.08
				c-6.72,0.98-13.44,1.98-20.16,2.96c9.3-5.9,19.88-9.68,30.87-10.91c12.28-1.38,24.85,0.54,36.22,5.36
				c3.17,1.36,6.28,2.92,9.22,4.73c1.78,1.09,3.74,2.39,5.19,4.03C155.62,47.78,155.86,48.1,156.07,48.42z"/>
			<path class="st4" d="M158.6,53.05c-6.62-0.87-13.54-1.74-20.01-3.81c3.54,4.97,6.02,10.61,4.67,16.89
				c-0.32,1.48-2.08,2.51-3.4,1.43c-5.81-4.75-11.66-9.66-16-15.75c-0.89,6.58-3.18,12.94-6.74,18.54c0.12,0.85,0.62,5.68-2.84,5.15
				c-0.34-0.05-0.59-0.14-0.78-0.24c-0.91,0.72-2.2,0.6-3-0.33c-5.44-6.28-7.89-14.81-6.95-22.98C97.4,57.6,90.11,61.94,82.15,64.6
				c-1.43,0.48-3.27-0.54-2.94-2.25c1.14-5.87,3.7-11.38,7.68-15.69c-5.74,0.85-11.48,1.7-17.23,2.54
				c-0.18,0.22-0.42,0.42-0.71,0.57c-1.62,0.83-3.1,1.88-4.46,3.08c-13.03,11.53-9.84,31.19-4.55,45.65
				c6.02,16.46,16.27,31.38,29.59,42.8c5.91,5.06,12.89,10.16,21.09,9.55c8.88-0.66,16.14-6.38,22.25-12.41
				c12.24-12.07,24.42-25.72,30.43-42.08C168.5,82.27,168.34,65.02,158.6,53.05z M62.4,70.3l3.5-4.2c0.23-0.26,0.64-0.07,0.6,0.25
				l-0.6,5.18c-0.13,1.05-0.61,2.06-1.44,2.7c-0.97,0.74-1.7,0.42-2.2-0.2C61.37,72.96,61.52,71.37,62.4,70.3z M71.52,96.15
				c-0.04-1.76,0.12-4.17,1.06-6.03c0.19-0.39,0.76-0.36,0.93,0.04l1.88,4.47c0.38,0.91,0.41,1.94,0.05,2.85
				c-0.15,0.38-0.45,0.63-0.83,0.79C73.15,98.89,71.55,97.73,71.52,96.15z M86.14,119.46c0.35,0.96,0.36,2.03-0.09,2.95
				c-0.32,0.67-0.85,1.18-1.66,0.83c-0.9-0.39-1.36-1.41-1.18-2.38l0.99-5.69c0.03-0.19,0.29-0.21,0.35-0.04L86.14,119.46z
				 M97.64,140.64c-0.35,0.72-1.96,1.69-2.41-0.15l-0.21-4.52c-0.02-0.31,0.39-0.46,0.58-0.21l1.68,2.18
				C97.88,138.71,98.06,139.76,97.64,140.64z M111.26,141.87c0.25,1.09-0.03,2.27-0.84,3.06c-0.52,0.52-1.16,0.78-1.74,0.09
				c-0.99-1.18,0.6-4.09,1.44-5.45c0.17-0.28,0.59-0.21,0.65,0.11L111.26,141.87z M105.44,117.48c0.42,1.01,0.45,2.16-0.03,3.12
				c-0.36,0.71-0.94,1.26-1.86,0.92c-1.02-0.36-1.54-1.49-1.33-2.55l0.97-5.02c0.08-0.38,0.6-0.43,0.74-0.08L105.44,117.48z
				 M87.81,75.16c-1.04-0.71-1.33-2.13-0.82-3.28c0.73-1.67,1.93-4.33,2.74-5.7c0.18-0.3,0.64-0.21,0.69,0.14l0.65,4.49
				c0.18,1.28-0.07,2.62-0.86,3.66C89.6,75.26,88.78,75.83,87.81,75.16z M101.87,95.92c-3.24,6.21-4.58-0.95-4.58-0.95l2.51-6.94
				L101.87,95.92z M127.7,136.1l-0.1,2.47c-0.03,0.85-0.41,1.67-1.11,2.16c-0.62,0.44-2.46,0.92-2.09-0.34l2.83-4.43
				C127.37,135.73,127.7,135.84,127.7,136.1z M122.23,114.44l0.27,4.49c0.05,0.83-0.22,1.68-0.83,2.24
				c-0.63,0.56-1.2,0.46-1.69,0.08c-1.09-0.81-1.28-2.4-0.57-3.56l2.07-3.42C121.69,113.91,122.21,114.04,122.23,114.44z
				 M126.07,97.55c-0.74,0.58-1.4,0.43-1.94,0.02c-0.99-0.73-1.27-2.09-0.82-3.24l1.88-4.72c0.11-0.27,0.5-0.25,0.57,0.04l1.24,4.8
				C127.29,95.59,126.98,96.84,126.07,97.55z M141.57,113.42l-0.51,4.84c-0.09,0.85-0.56,1.66-1.35,2.01
				c-0.88,0.41-1.41-0.06-1.74-0.76c-0.57-1.18-0.29-2.61,0.55-3.63l2.33-2.78C141.1,112.79,141.62,113.01,141.57,113.42z
				 M150.48,90.52l-0.34,5.07c-0.06,0.92-0.35,1.84-0.92,2.57c-1,1.27-1.84,1.06-2.48,0.44c-1.01-1.01-1.01-2.65-0.16-3.8l3.31-4.5
				C150.08,90.04,150.5,90.19,150.48,90.52z M141.94,69.84c0.64,1.53,0.65,3.29-0.13,4.76c-0.7,1.33-1.83,2.09-3.48-0.53
				c-0.37-0.59-0.5-1.31-0.38-1.99l0.79-4.95l2.77,1.68L141.94,69.84z M161.5,71.63c0.43,1.03,0.46,2.22-0.04,3.23
				c-0.66,1.33-1.49,1.09-2.21,0.4c-1.26-1.2-1.7-3.04-1.37-4.76l0.83-4.28c0.05-0.26,0.4-0.29,0.5-0.05L161.5,71.63z"/>
		</g>
	</g>
	<path class="st5" d="M96.69,146.74c-2.54-1.61-4.92-3.52-7.14-5.43c-13.32-11.42-23.57-26.34-29.59-42.8
		c-5.3-14.46-8.49-34.12,4.55-45.65c1.36-1.2,2.84-2.25,4.46-3.08c0.3-0.15,0.53-0.35,0.71-0.57c0.5-0.07,0.99-0.14,1.49-0.22
		C66.63,52.69,33.7,83.43,96.69,146.74z"/>
	<path class="st6" d="M95.22,35.09c-6.82,2.98-11.18,6.03-13.62,8.05c-2.58,0.38-5.15,0.76-7.73,1.14
		C80.44,40.09,87.67,36.98,95.22,35.09z"/>
	<path class="st7" d="M163.33,96.36c-6.02,16.36-18.2,30.01-30.43,42.08c-6.11,6.03-13.37,11.76-22.25,12.41
		c-2.28,0.17-4.46-0.1-6.54-0.68c62.27-28.16,49.54-87.97,46.86-98.19c2.56,0.39,5.12,0.73,7.64,1.06
		C168.34,65.02,168.5,82.27,163.33,96.36z"/>
	<path class="st8" d="M156.07,48.42c-0.32-0.05-0.62-0.1-0.93-0.14c-2.79-0.38-5.61-0.81-8.38-1.36c-0.21-1.54-1.09-4.12-4.17-7.48
		c2.61,1.19,5.15,2.51,7.58,4.01c1.78,1.09,3.74,2.39,5.19,4.03C155.62,47.78,155.86,48.1,156.07,48.42z"/>
	<path class="st6" d="M108.84,28.74c0.85-0.03,3.22-0.04,4.06-0.03c5.06-11.65,16.36-19.13,19.44-21.01
		c-0.63-0.54-1.76-1.56-2.22-1.57c-0.06,0,0.05-0.03,0,0c-0.38,0.23-0.61,0.37-0.95,0.66c-0.64,0.57-1.29,0.91-1.96,1.45
		c-1.41,1.16-2,1.62-3.72,2.85C115.71,16.72,109.83,21.42,108.84,28.74z"/>
	<g>
		<path class="st9" d="M99.79,88.03l2.08,7.89c-3.24,6.21-4.58-0.95-4.58-0.95L99.79,88.03z"/>
	</g>
	<g>
		<path class="st9" d="M125.77,89.67l1.24,4.8c0.29,1.13-0.03,2.37-0.94,3.08c-0.74,0.58-1.4,0.43-1.94,0.02
			c-0.99-0.73-1.27-2.09-0.82-3.24l1.88-4.72C125.3,89.35,125.7,89.37,125.77,89.67z"/>
	</g>
	<g>
		<path class="st9" d="M150.48,90.52l-0.34,5.07c-0.06,0.92-0.35,1.84-0.92,2.57c-1,1.27-1.84,1.06-2.48,0.44
			c-1.01-1.01-1.01-2.65-0.16-3.8l3.31-4.5C150.08,90.04,150.5,90.19,150.48,90.52z"/>
	</g>
	<g>
		<path class="st9" d="M159.21,66.17l2.29,5.46c0.43,1.03,0.46,2.22-0.04,3.23c-0.66,1.33-1.49,1.09-2.21,0.4
			c-1.26-1.2-1.7-3.04-1.37-4.76l0.83-4.28C158.76,65.97,159.1,65.93,159.21,66.17z"/>
	</g>
	<g>
		<path class="st9" d="M141.5,68.82l0.43,1.03c0.64,1.53,0.65,3.29-0.13,4.76c-0.7,1.33-1.83,2.09-3.48-0.53
			c-0.37-0.59-0.5-1.31-0.38-1.99l0.79-4.95L141.5,68.82z"/>
	</g>
	<g>
		<path class="st10" d="M117.09,70.23c0,0,0.01,0.05,0.02,0.13c0.12,0.85,0.62,5.68-2.84,5.15c-0.34-0.05-0.59-0.14-0.78-0.24
			c0.13-0.1,0.26-0.23,0.38-0.37c1.12-1.37,2.15-2.79,3.08-4.28c0.06-0.04,0.09-0.1,0.11-0.17c0-0.01,0.01-0.01,0.01-0.01
			C117.1,70.34,117.09,70.23,117.09,70.23z"/>
	</g>
	<g>
		<path class="st9" d="M90.42,66.32l0.65,4.49c0.18,1.28-0.07,2.62-0.86,3.66c-0.6,0.8-1.43,1.36-2.4,0.7
			c-1.04-0.71-1.33-2.13-0.82-3.28c0.73-1.67,1.93-4.33,2.74-5.7C89.91,65.88,90.37,65.97,90.42,66.32z"/>
	</g>
	<g>
		<path class="st9" d="M66.5,66.36l-0.6,5.18c-0.13,1.05-0.61,2.06-1.44,2.7c-0.97,0.74-1.7,0.42-2.2-0.2
			c-0.89-1.08-0.74-2.68,0.15-3.74l3.5-4.2C66.13,65.85,66.54,66.04,66.5,66.36z"/>
	</g>
	<g>
		<path class="st9" d="M73.51,90.17l1.88,4.47c0.38,0.91,0.41,1.94,0.05,2.85c-0.15,0.38-0.45,0.63-0.83,0.79
			c-1.46,0.61-3.06-0.55-3.09-2.13c-0.04-1.76,0.12-4.17,1.06-6.03C72.77,89.73,73.34,89.77,73.51,90.17z"/>
	</g>
	<g>
		<path class="st9" d="M84.55,115.14l1.59,4.32c0.35,0.96,0.36,2.03-0.09,2.95c-0.32,0.67-0.85,1.18-1.66,0.83
			c-0.9-0.39-1.36-1.41-1.18-2.38l0.99-5.69C84.23,114.99,84.49,114.97,84.55,115.14z"/>
	</g>
	<g>
		<path class="st9" d="M103.92,113.87l1.52,3.61c0.42,1.01,0.45,2.16-0.03,3.12c-0.36,0.71-0.94,1.26-1.86,0.92
			c-1.02-0.36-1.54-1.49-1.33-2.55l0.97-5.02C103.26,113.57,103.77,113.51,103.92,113.87z"/>
	</g>
	<g>
		<path class="st9" d="M122.23,114.44l0.27,4.49c0.05,0.83-0.22,1.68-0.83,2.24c-0.63,0.56-1.2,0.46-1.69,0.08
			c-1.09-0.81-1.28-2.4-0.57-3.56l2.07-3.42C121.69,113.91,122.21,114.04,122.23,114.44z"/>
	</g>
	<g>
		<path class="st9" d="M141.57,113.42l-0.51,4.84c-0.09,0.85-0.56,1.66-1.35,2.01c-0.88,0.41-1.41-0.06-1.74-0.76
			c-0.57-1.18-0.29-2.61,0.55-3.63l2.33-2.78C141.1,112.79,141.62,113.01,141.57,113.42z"/>
	</g>
	<g>
		<path class="st9" d="M120.55,142.55l0.49,2.2c0.25,1.09-0.03,2.27-0.84,3.06c-0.52,0.52-1.16,0.78-1.74,0.09
			c-0.99-1.18,0.6-4.09,1.44-5.45C120.07,142.16,120.49,142.23,120.55,142.55z"/>
	</g>
	<g>
		<path class="st9" d="M97.64,140.64c-0.35,0.72-1.96,1.69-2.41-0.15l-0.21-4.52c-0.02-0.31,0.39-0.46,0.58-0.21l1.68,2.18
			C97.88,138.71,98.06,139.76,97.64,140.64z"/>
	</g>
	<path class="st11" d="M74.61,98.28c-1.46,0.61-3.06-0.55-3.09-2.13c-0.04-1.76,0.12-4.17,1.06-6.03c0.19-0.39,0.76-0.36,0.93,0.04
		l1.88,4.47c0.38,0.91,0.41,1.94,0.05,2.85C75.29,97.87,74.99,98.12,74.61,98.28z"/>
	<path class="st11" d="M84.55,115.14l1.59,4.32c0.35,0.96,0.36,2.03-0.09,2.95c-0.32,0.67-0.85,1.18-1.66,0.83
		c-0.9-0.39-1.36-1.41-1.18-2.38l0.99-5.69C84.23,114.99,84.49,114.97,84.55,115.14z"/>
	<path class="st11" d="M62.26,74.04c-0.89-1.08-0.74-2.68,0.15-3.74l3.5-4.2c0.23-0.26,0.64-0.07,0.6,0.25l-0.6,5.18
		c-0.13,1.05-0.61,2.06-1.44,2.7C63.48,74.98,62.75,74.66,62.26,74.04z"/>
	<path class="st11" d="M97.28,137.95c0.59,0.76,0.77,1.81,0.35,2.69c-0.35,0.72-1.96,1.69-2.41-0.15l-0.21-4.52
		c-0.02-0.31,0.39-0.46,0.58-0.21L97.28,137.95z"/>
	<path class="st11" d="M120.55,142.55l0.49,2.2c0.25,1.09-0.03,2.27-0.84,3.06c-0.52,0.52-1.16,0.78-1.74,0.09
		c-0.99-1.18,0.6-4.09,1.44-5.45C120.07,142.16,120.49,142.23,120.55,142.55z"/>
	<path class="st11" d="M103.92,113.87l1.52,3.61c0.42,1.01,0.45,2.16-0.03,3.12c-0.36,0.71-0.94,1.26-1.86,0.92
		c-1.02-0.36-1.54-1.49-1.33-2.55l0.97-5.02C103.26,113.57,103.77,113.51,103.92,113.87z"/>
	<path class="st11" d="M87.81,75.16c-1.04-0.71-1.33-2.13-0.82-3.28c0.73-1.67,1.93-4.33,2.74-5.7c0.18-0.3,0.64-0.21,0.69,0.14
		l0.65,4.49c0.18,1.28-0.07,2.62-0.86,3.66C89.6,75.26,88.78,75.83,87.81,75.16z"/>
	<path class="st11" d="M97.29,94.97l2.51-6.94l2.08,7.89C98.63,102.13,97.29,94.97,97.29,94.97z"/>
	<path class="st11" d="M122.23,114.44l0.27,4.49c0.05,0.83-0.22,1.68-0.83,2.24c-0.63,0.56-1.2,0.46-1.69,0.08
		c-1.09-0.81-1.28-2.4-0.57-3.56l2.07-3.42C121.69,113.91,122.21,114.04,122.23,114.44z"/>
	<path class="st11" d="M124.13,97.58c-0.99-0.73-1.27-2.09-0.82-3.24l1.88-4.72c0.11-0.27,0.5-0.25,0.57,0.04l1.24,4.8
		c0.29,1.13-0.03,2.37-0.94,3.08C125.32,98.13,124.67,97.98,124.13,97.58z"/>
	<path class="st11" d="M108.58,144.99c-0.73-0.75-0.75-1.93-0.15-2.81l2.44-3.65c0.14-0.21,0.48-0.13,0.49,0.12l0.25,4.17
		c0.06,0.98-0.43,1.97-1.34,2.43C109.53,145.63,108.98,145.4,108.58,144.99z"/>
	<path class="st11" d="M137.97,119.51c-0.57-1.18-0.29-2.61,0.55-3.63l2.33-2.78c0.26-0.32,0.77-0.1,0.72,0.31l-0.51,4.84
		c-0.09,0.85-0.56,1.66-1.35,2.01C138.83,120.68,138.3,120.21,137.97,119.51z"/>
	<path class="st11" d="M146.74,98.6c-1.01-1.01-1.01-2.65-0.16-3.8l3.31-4.5c0.2-0.27,0.62-0.11,0.6,0.22l-0.34,5.07
		c-0.06,0.92-0.35,1.84-0.92,2.57C148.22,99.43,147.38,99.22,146.74,98.6z"/>
	<path class="st11" d="M138.33,74.07c-0.37-0.59-0.5-1.31-0.38-1.99l0.79-4.95l2.77,1.68l0.43,1.03c0.64,1.53,0.65,3.29-0.13,4.76
		C141.11,75.93,139.98,76.69,138.33,74.07z"/>
	<path class="st11" d="M159.24,75.25c-1.26-1.2-1.7-3.04-1.37-4.76l0.83-4.28c0.05-0.26,0.4-0.29,0.5-0.05l2.29,5.46
		c0.43,1.03,0.46,2.22-0.04,3.23C160.79,76.18,159.97,75.95,159.24,75.25z"/>
</g>
<g id="Capa_3">
	<g>
		<path class="st12" d="M139.03,161.57v0.23h-0.01C139.02,161.72,139.03,161.66,139.03,161.57z"/>
	</g>
	<g>
		<path class="st12" d="M80.67,160.72L80.67,160.72v2.12H65.34c0-4.23,3.43-7.66,7.68-7.66h3.47c-0.31-8.21,1.78-18.22,1.88-18.74
			l3.72,1.16C82.05,137.76,78.55,153.25,80.67,160.72z"/>
	</g>
	<circle class="st13" cx="132.2" cy="87.43" r="6.82"/>
	<circle class="st14" cx="134.17" cy="84.5" r="2.58"/>
	<circle class="st13" cx="87.18" cy="87.09" r="6.82"/>
	<circle class="st14" cx="89.14" cy="84.16" r="2.58"/>
	<g>
		<path class="st15" d="M102.47,99.91c5.61,8.7,8.32,7.33,14.67,0.34c-0.56,1.72-1.4,3.35-2.57,4.8
			C109.48,111.4,103.31,106.49,102.47,99.91L102.47,99.91z"/>
	</g>
	<g>
		<path class="st12" d="M211.23,45.39c0,3.07-2.32,5.59-5.3,5.93c-8.97,29.21-44.53,32.59-44.89,32.63l-0.34-4.06
			c0.34-0.04,33.01-3.19,41.27-29.57c-1.59-1.06-2.63-2.88-2.63-4.94c0-3.28,2.66-5.95,5.94-5.95
			C208.57,39.44,211.23,42.11,211.23,45.39z"/>
	</g>
	<g>
		<path class="st12" d="M54.03,73.51c-0.01,0-0.01,0-0.03,0c-0.57,0-7.57-0.12-12.74-5.98C37.28,63,35.52,56.43,36,47.94
			c-2.06-0.94-3.49-3.01-3.49-5.43c0-3.28,2.66-5.95,5.95-5.95c3.28,0,5.94,2.67,5.94,5.95c0,2.74-1.84,5.05-4.35,5.72
			c-0.42,7.3,0.99,12.86,4.2,16.55c4.03,4.6,9.68,4.65,9.74,4.65L54.03,73.51z"/>
	</g>
	<g>
		<path class="st12" d="M139.21,157.19c0.15-6.25-0.07-15.37-1.89-19.08l3.66-1.79c2.08,4.25,2.41,12.75,2.33,18.85h3.36
			c4.25,0,7.68,3.43,7.68,7.66h-15.33v-1.26C139.1,160.45,139.17,158.94,139.21,157.19z"/>
	</g>
</g>
<g id="Capa_9">
	<g>
		<path class="st16" d="M235.41,61.83c-2.13,1.64-3.63,4.14-6.14,5.42c-1.54,0.93-3.35,0.88-5.09,0.89l-0.39,0.02
			c-0.55,0.03-1.09-0.15-1.57-0.45c1.32-1.39,3.16-4.49-0.3-4.15c-0.44,0.04-0.91,0.23-1.23,0.53c-0.79,0.77-0.54,2.07-0.02,2.91
			c0.12,0.2,0.26,0.4,0.42,0.57c-0.6,0.35-1.43,0.81-2.06,0.96c-2.76,0.96-5.91,0.02-8.02-1.91c0.61-0.31,0.77-0.61,0.85-1.67
			c0.84-0.18,1.41-0.51,1.43-0.51l0.1-0.06l0.73-1.92c0.19-0.05,0.29-0.09,0.3-0.1l0.13-0.05l9.13-21.35
			c2.69-0.94,5.02-2.85,6.36-5.54c2.79-5.6,0.34-12.49-5.44-15.37c-5.78-2.88-12.76-0.67-15.54,4.92c-2.01,4.05-1.3,8.77,1.44,12.16
			l-4.19,22.88l0.1,0.12c0.26,0.31,0.53,0.58,0.81,0.83l-0.14,1.98l0.08,0.1c0.57,0.78,1.2,1.28,1.82,1.59
			c0.09,0.05,0.18,0.08,0.28,0.12c-0.11,0.56-0.29,1.73,0.21,2.14c0.04,0.03,0.08,0.06,0.13,0.09c0.16,0.08,0.39,0.11,0.71-0.03
			c0.03-0.01,0.06-0.03,0.08-0.04c2.68,2.71,6.99,3.55,10.38,1.72c0.3-0.16,0.6-0.34,0.89-0.52c0.62,0.47,1.39,0.75,2.2,0.7
			c1.94-0.06,4.01,0.04,5.74-1.02c2.56-1.32,4.01-3.75,6.17-5.49c1.7-1.22,3.74-1.73,5.76-2.15
			C239.63,59.72,237.04,60.69,235.41,61.83z M228.93,35.88c-0.07,0.08-0.5,0.56-1.26,1.14c-0.09-0.39-0.27-1.04-0.51-1.53
			c0.29-0.29,0.49-0.47,0.57-0.5l-0.01-0.04c0.23-0.08,0.46-0.16,0.68-0.25l0,0.07c0.18-0.02,0.44,0.57,0.57,1.15L228.93,35.88z
			 M212.1,32.03l0-0.01c0.17,0.12,0.33,0.23,0.51,0.35c0.15,0.36,0.32,0.81,0.49,1.32c-0.44,0.28-0.89,0.65-1.28,1.01
			c-0.13-0.7-0.38-1.47-0.66-2.19C211.55,32.21,211.89,32.02,212.1,32.03z M211.03,32.18c-0.22-0.56-0.44-1.06-0.62-1.46
			c0.41,0.33,0.86,0.69,1.35,1.05C211.54,31.86,211.29,32,211.03,32.18z M213.09,32.68c0.29,0.19,0.6,0.37,0.92,0.55
			c-0.19,0.06-0.4,0.15-0.62,0.27C213.29,33.21,213.19,32.93,213.09,32.68z M213.21,34c0.31,0.95,0.62,2,0.85,2.81
			c-0.24,0.21-0.48,0.42-0.69,0.61c-0.53-0.29-1.06-0.62-1.62-0.98c0.17-0.33,0.2-0.82,0.12-1.38
			C212.3,34.68,212.77,34.29,213.21,34z M213.49,33.82c0.41-0.24,0.77-0.37,1-0.3l0.01-0.01c0.13,0.07,0.27,0.15,0.4,0.21
			l-0.01,0.01c0.21,0.28,0.51,0.94,0.81,1.7c-0.44,0.35-0.92,0.75-1.38,1.15C214.09,35.76,213.8,34.74,213.49,33.82z M215.42,33.97
			c0.47,0.23,0.96,0.44,1.46,0.63c-0.25,0.14-0.57,0.36-0.92,0.62C215.77,34.74,215.59,34.3,215.42,33.97z M214.15,37.16
			c0.09,0.32,0.16,0.59,0.2,0.77c-0.22-0.1-0.45-0.22-0.68-0.34C213.83,37.45,213.99,37.3,214.15,37.16z M214.42,36.92
			c0.5-0.43,0.99-0.84,1.41-1.18c0.48,1.26,0.95,2.69,1.09,3.15c0.01,0.01,0.01,0.03,0.01,0.03c-0.01,0-0.03-0.01-0.04-0.01
			c-0.69-0.2-1.41-0.46-2.15-0.8C214.72,38.03,214.6,37.57,214.42,36.92z M216.1,35.54c0.6-0.48,1.05-0.78,1.19-0.78l0-0.01
			c0.07,0.03,0.13,0.05,0.2,0.07l-0.02,0.02c0.36,0.35,0.85,1.42,1.28,2.44l-1.57,1.36C217,38.07,216.55,36.73,216.1,35.54z
			 M217.99,35c0.87,0.27,1.76,0.48,2.7,0.61l-1.68,1.46C218.69,36.3,218.32,35.5,217.99,35z M218.89,37.61
			c0.32,0.79,0.58,1.51,0.68,1.8c-0.73-0.06-1.5-0.19-2.3-0.4L218.89,37.61z M219.14,37.38l1.98-1.72c0.21,0.02,0.43,0.04,0.65,0.05
			c0.31,0.39,0.53,0.91,0.69,1.43l-2.46,2.3c-0.03,0-0.05,0-0.08,0C219.88,39.33,219.56,38.4,219.14,37.38z M224.05,35.71
			c-0.02,0-0.04,0-0.06,0.01l-1.27,1.19c-0.13-0.41-0.31-0.82-0.54-1.17c0.59,0.03,1.19,0.02,1.8-0.02l0.07-0.06l-0.03,0.04
			C224.03,35.7,224.04,35.7,224.05,35.71z M222.55,37.5c0.22,0.89,0.28,1.69,0.28,1.71l0.18-0.01c-0.78,0.17-1.64,0.27-2.55,0.26
			L222.55,37.5z M222.82,37.26l1.41-1.33c0.22,0.32,0.47,0.89,0.7,1.47c-0.67,0.74-1.27,1.42-1.52,1.71l-0.01,0
			c-0.08,0.02-0.16,0.04-0.24,0.06C223.14,39.01,223.07,38.16,222.82,37.26z M224.44,35.67c0.72-0.08,1.46-0.21,2.21-0.41
			c0.03,0.05,0.08,0.1,0.12,0.17c-0.46,0.47-1.04,1.08-1.6,1.69C224.96,36.59,224.7,36.01,224.44,35.67z M225.06,37.73
			c0.09,0.25,0.17,0.48,0.25,0.7c-0.41,0.19-0.86,0.36-1.33,0.51C224.31,38.57,224.69,38.15,225.06,37.73z M225.3,37.47
			c0.59-0.65,1.17-1.27,1.62-1.73c0.18,0.41,0.35,0.97,0.47,1.5c-0.49,0.35-1.08,0.72-1.79,1.06
			C225.54,38.11,225.43,37.8,225.3,37.47z M226.98,35.17c0.02,0,0.05-0.01,0.08-0.02c-0.01,0.01-0.03,0.03-0.06,0.05
			C226.99,35.19,226.99,35.18,226.98,35.17z M229.44,35.13c-0.07,0.15-0.15,0.28-0.23,0.42c-0.1-0.35-0.26-0.77-0.5-0.99
			c0.4-0.16,0.79-0.34,1.19-0.54C229.78,34.4,229.62,34.77,229.44,35.13z M230.52,30.41c0.01,0.15,0,0.3-0.01,0.45
			c-0.03-0.13-0.07-0.29-0.11-0.47C230.45,30.39,230.48,30.4,230.52,30.41z M220.21,32.34c-0.16-0.41-0.42-0.98-0.79-1.68
			c0.91-0.31,1.89-0.58,2.86-0.82c0.28,0.57,0.51,1.1,0.7,1.55C221.86,31.74,220.87,32.09,220.21,32.34z M220.04,32.8
			c-0.03,0-0.07-0.01-0.1-0.03l0.08-0.03C220.03,32.77,220.03,32.79,220.04,32.8z M216.53,31.56c-0.01,0-0.01,0-0.02-0.01
			c0,0,0-0.01,0.01-0.01c-0.33-0.68-0.7-1.31-1.08-1.89c0.73-0.36,1.53-0.7,2.39-1c0.45,0.66,0.82,1.27,1.12,1.83
			c-0.9,0.32-1.73,0.68-2.43,1.07C216.52,31.55,216.53,31.55,216.53,31.56z M224.06,26.71c-0.32-0.59-0.68-1.18-1.08-1.77
			c0.62-0.13,1.2-0.26,1.74-0.36c0.45,0.62,0.84,1.23,1.2,1.81C225.35,26.48,224.72,26.58,224.06,26.71z M226.12,26.7
			c0.39,0.66,0.73,1.28,1.02,1.83c-0.61,0.1-1.26,0.21-1.95,0.34c-0.27-0.59-0.59-1.21-0.94-1.85
			C224.9,26.9,225.53,26.79,226.12,26.7z M223.73,26.77c-0.81,0.16-1.66,0.34-2.51,0.54c-0.35-0.54-0.73-1.09-1.17-1.64
			c0.9-0.25,1.77-0.47,2.59-0.65C223.05,25.6,223.4,26.19,223.73,26.77z M219.84,25.39c-0.43-0.53-0.9-1.06-1.41-1.58
			c0.94-0.29,1.86-0.53,2.73-0.74c0.47,0.54,0.89,1.1,1.29,1.66C221.62,24.92,220.74,25.14,219.84,25.39z M219.5,25.49
			c-0.96,0.27-1.96,0.59-2.93,0.96c-0.43-0.5-0.89-1-1.4-1.5c0.95-0.39,1.94-0.73,2.91-1.03C218.59,24.43,219.06,24.96,219.5,25.49z
			 M216.24,26.57c-0.81,0.31-1.6,0.64-2.37,1.01c-0.45-0.52-0.9-0.99-1.33-1.39c0.71-0.41,1.49-0.77,2.29-1.12
			C215.35,25.57,215.82,26.08,216.24,26.57z M216.46,26.83c0.44,0.52,0.83,1.04,1.17,1.53c-0.85,0.31-1.65,0.64-2.38,1.01
			c-0.38-0.56-0.77-1.07-1.16-1.54C214.86,27.47,215.65,27.13,216.46,26.83z M216.79,26.71c0.97-0.36,1.96-0.67,2.93-0.94
			c0.44,0.55,0.83,1.09,1.18,1.62c-1,0.25-1.99,0.53-2.94,0.86C217.61,27.76,217.22,27.24,216.79,26.71z M221.09,27.69
			c0.4,0.64,0.75,1.26,1.04,1.84c-0.98,0.24-1.96,0.52-2.87,0.83c-0.3-0.55-0.66-1.17-1.11-1.83
			C219.1,28.22,220.09,27.93,221.09,27.69z M221.42,27.62c0.85-0.2,1.69-0.38,2.49-0.54c0.35,0.64,0.66,1.26,0.93,1.86
			c-0.77,0.15-1.58,0.32-2.39,0.52C222.16,28.87,221.82,28.26,221.42,27.62z M224.99,29.24c0.22,0.5,0.42,0.97,0.59,1.4
			c-0.78,0.2-1.56,0.43-2.29,0.65c-0.18-0.46-0.41-0.98-0.68-1.54C223.41,29.56,224.22,29.39,224.99,29.24z M225.32,29.18
			c0.7-0.13,1.36-0.25,1.96-0.34c0.24,0.49,0.43,0.93,0.6,1.33c-0.64,0.1-1.3,0.23-1.98,0.39
			C225.73,30.13,225.54,29.67,225.32,29.18z M227.61,28.78c0.72-0.11,1.34-0.19,1.83-0.26c0.23,0.57,0.4,1.08,0.52,1.5
			c-0.53-0.02-1.12,0.01-1.76,0.1C228.04,29.72,227.85,29.27,227.61,28.78z M227.46,28.48c-0.29-0.56-0.62-1.18-1-1.83
			c0.76-0.11,1.43-0.2,1.97-0.27c0.36,0.66,0.65,1.27,0.89,1.83C228.82,28.28,228.19,28.37,227.46,28.48z M226.28,26.34
			c-0.35-0.58-0.74-1.19-1.19-1.82c0.75-0.15,1.42-0.26,1.96-0.34c0.47,0.65,0.86,1.28,1.21,1.89
			C227.71,26.13,227.04,26.22,226.28,26.34z M224.87,24.22c-0.39-0.55-0.82-1.11-1.3-1.69c0.75-0.14,1.39-0.26,1.88-0.34
			c0.51,0.57,0.97,1.14,1.38,1.7C226.29,23.96,225.62,24.08,224.87,24.22z M224.52,24.29c-0.54,0.11-1.12,0.23-1.73,0.37
			c-0.39-0.57-0.81-1.13-1.27-1.68c0.6-0.14,1.16-0.26,1.69-0.38C223.69,23.17,224.12,23.73,224.52,24.29z M221.28,22.7
			c-0.56-0.64-1.17-1.26-1.83-1.81c0.69-0.16,1.33-0.3,1.89-0.4c0.59,0.61,1.14,1.23,1.64,1.83
			C222.45,22.44,221.88,22.56,221.28,22.7z M220.92,22.79c-0.88,0.21-1.81,0.47-2.75,0.75c-0.59-0.59-1.24-1.16-1.95-1.7
			c0.98-0.35,1.95-0.63,2.84-0.85C219.72,21.54,220.35,22.14,220.92,22.79z M217.81,23.65c-0.98,0.31-1.96,0.66-2.9,1.04
			c-0.53-0.51-1.11-1.02-1.74-1.51c0.87-0.47,1.78-0.87,2.69-1.22C216.57,22.51,217.22,23.08,217.81,23.65z M214.58,24.84
			c-0.8,0.34-1.58,0.72-2.29,1.12c-0.57-0.52-1.07-0.93-1.45-1.22c0.62-0.52,1.31-0.98,2.03-1.39
			C213.49,23.84,214.06,24.34,214.58,24.84z M212,26.13c-0.56,0.33-1.07,0.68-1.53,1.07c-0.34-0.33-0.69-0.68-1.04-1.06
			c0.34-0.42,0.72-0.81,1.14-1.18C210.95,25.23,211.44,25.62,212,26.13z M212.25,26.36L212.25,26.36c0.42,0.4,0.87,0.85,1.31,1.37
			c-0.54,0.27-1.06,0.56-1.56,0.86c-0.43-0.36-0.86-0.75-1.29-1.16C211.18,27.05,211.69,26.7,212.25,26.36z M213.79,27.98
			c0.4,0.47,0.79,0.98,1.18,1.55c-0.35,0.18-0.66,0.38-0.95,0.58c-0.57-0.39-1.15-0.81-1.74-1.3
			C212.76,28.52,213.27,28.24,213.79,27.98z M215.14,29.8c0.32,0.47,0.62,0.97,0.89,1.51c-0.57-0.29-1.15-0.63-1.73-1.01
			C214.57,30.12,214.85,29.96,215.14,29.8z M219.11,30.76c0.37,0.71,0.63,1.29,0.79,1.69c-0.22,0.08-0.39,0.15-0.5,0.19
			c-0.82-0.22-1.66-0.52-2.53-0.92C217.53,31.37,218.29,31.05,219.11,30.76z M223.1,31.69c0.27,0.71,0.42,1.23,0.49,1.49
			c-0.98,0.02-2.05-0.06-3.18-0.29c-0.02-0.05-0.05-0.13-0.09-0.25C221,32.39,221.99,32.04,223.1,31.69z M223.41,31.59
			c0.73-0.22,1.51-0.44,2.3-0.64c0.34,0.88,0.55,1.55,0.66,1.89c-0.73,0.16-1.55,0.28-2.43,0.32
			C223.87,32.93,223.71,32.37,223.41,31.59z M226.03,30.87c0.68-0.16,1.35-0.3,1.98-0.39c0.33,0.83,0.51,1.41,0.57,1.67
			c-0.54,0.22-1.17,0.43-1.9,0.61C226.58,32.44,226.37,31.76,226.03,30.87z M228.34,30.44c0.64-0.08,1.22-0.12,1.72-0.08
			c0.14,0.53,0.2,0.87,0.21,0.96c-0.25,0.15-0.73,0.42-1.39,0.71C228.81,31.75,228.64,31.2,228.34,30.44z M230.51,30.08
			c-0.06-0.01-0.13-0.02-0.2-0.03c-0.13-0.43-0.3-0.96-0.54-1.57c0.23-0.03,0.42-0.05,0.54-0.06
			C230.43,28.97,230.49,29.52,230.51,30.08z M230.25,28.11c-0.13,0.01-0.34,0.04-0.59,0.07c-0.24-0.56-0.52-1.18-0.87-1.84
			c0.4-0.05,0.69-0.08,0.85-0.09C229.9,26.84,230.1,27.46,230.25,28.11z M229.49,25.92c-0.2,0.02-0.5,0.06-0.88,0.11
			c-0.34-0.61-0.74-1.25-1.21-1.9c0.42-0.06,0.74-0.1,0.93-0.13C228.79,24.6,229.17,25.25,229.49,25.92z M228.1,23.7
			c-0.22,0.03-0.53,0.07-0.91,0.13c-0.4-0.56-0.85-1.13-1.36-1.7c0.31-0.05,0.53-0.08,0.62-0.09
			C227.07,22.53,227.62,23.1,228.1,23.7z M226.11,21.75c-0.14,0.02-0.31,0.05-0.52,0.09c-0.32-0.36-0.66-0.72-1.04-1.08
			C225.11,21.05,225.62,21.38,226.11,21.75z M223.61,20.32c0.58,0.53,1.11,1.06,1.59,1.58c-0.5,0.09-1.13,0.2-1.85,0.35
			c-0.5-0.6-1.04-1.21-1.62-1.82c0.77-0.13,1.34-0.2,1.61-0.22C223.42,20.24,223.52,20.28,223.61,20.32z M222.64,19.97
			c-0.32,0.04-0.73,0.1-1.19,0.18c-0.19-0.2-0.39-0.4-0.6-0.59C221.46,19.64,222.05,19.77,222.64,19.97z M220.32,19.49
			c0.26,0.24,0.51,0.48,0.74,0.73c-0.57,0.11-1.22,0.24-1.92,0.41c-0.49-0.39-1-0.75-1.54-1.07
			C218.49,19.42,219.4,19.4,220.32,19.49z M217.09,19.64c0.58,0.32,1.13,0.69,1.65,1.09c-0.9,0.23-1.86,0.52-2.83,0.88
			c-0.49-0.36-0.99-0.71-1.54-1.05C215.23,20.13,216.14,19.83,217.09,19.64z M214.03,20.74c0.54,0.32,1.04,0.65,1.51,1.01
			c-0.9,0.34-1.79,0.75-2.65,1.22c-0.31-0.24-0.65-0.49-0.99-0.73C212.55,21.65,213.26,21.15,214.03,20.74z M211.66,22.47
			c0.33,0.22,0.63,0.44,0.93,0.67c-0.72,0.42-1.4,0.89-2.01,1.41c-0.18-0.12-0.31-0.21-0.39-0.27
			C210.61,23.61,211.11,23.01,211.66,22.47z M209.62,25.26c0.12-0.24,0.25-0.48,0.39-0.71c0.07,0.05,0.17,0.12,0.31,0.21
			c-0.31,0.27-0.6,0.56-0.87,0.86C209.5,25.5,209.56,25.38,209.62,25.26z M209.05,26.67c2.41,2.57,4.77,4.27,6.98,5.38
			c7.13,3.55,12.82,0.83,14.38-0.08c-0.05,0.4-0.13,0.8-0.24,1.2l-0.01-0.02c-10.99,6.04-20.39-3.73-21.49-4.95
			C208.76,27.69,208.88,27.18,209.05,26.67z M208.58,29.04c0.28,0.29,0.69,0.69,1.21,1.14c0.01,0.03,0.03,0.07,0.05,0.1
			c-0.41,0.22-0.88,0.61-1.21,0.91C208.53,30.48,208.52,29.76,208.58,29.04z M208.68,31.6c0.47-0.44,0.96-0.82,1.3-1.02
			c0.24,0.5,0.52,1.13,0.78,1.8l0,0.01c-0.59,0.45-1.18,1.02-1.5,1.34C208.99,33.04,208.8,32.32,208.68,31.6z M209.88,35.08
			c-0.18-0.33-0.35-0.68-0.5-1.02c0.42-0.43,0.98-0.95,1.5-1.35c0.29,0.77,0.54,1.56,0.65,2.23c-0.35,0.33-0.64,0.62-0.81,0.79
			C210.45,35.52,210.17,35.31,209.88,35.08z M210.99,35.92c0.17-0.19,0.37-0.39,0.59-0.58c0.03,0.38,0,0.69-0.1,0.92
			C211.32,36.15,211.15,36.04,210.99,35.92z M213.74,38.34c6.24,3.1,10.96,1.35,13.52-0.29c-3.21,3.02-8.2,3.85-12.49,1.71
			c-1.54-0.77-2.83-1.84-3.83-3.09C211.91,37.34,212.84,37.89,213.74,38.34z M206.98,59.83l4.04-22.06
			c0.95,1.03,2.11,1.92,3.45,2.58c2.71,1.35,5.69,1.58,8.37,0.87l-8.81,20.59C213.33,62.05,209.8,63.05,206.98,59.83z M210.37,66.2
			c-0.11,0.05-0.23,0.1-0.36,0.15c-0.11,0.05-0.16,0.04-0.16,0.04c-0.12-0.09-0.14-0.72,0-1.44c0.47,0.12,0.93,0.13,1.34,0.1
			C211.14,65.87,211.05,65.92,210.37,66.2z M207.72,62.74l0.08-1.3c0.33,0.24,0.65,0.43,0.99,0.6c1.76,0.87,3.49,0.79,4.56,0.59
			l-0.49,1.3C212.32,64.22,209.74,65.38,207.72,62.74z M221.67,67.24c-0.49-0.5-0.81-1.17-0.83-1.86c-0.02-0.55,0.34-0.96,0.84-1.09
			c0.51-0.1,1.72-0.3,1.52,0.55C222.97,65.72,222.27,66.56,221.67,67.24z"/>
		<path class="st0" d="M224.84,28.94c-0.77,0.15-1.58,0.32-2.39,0.52c-0.29-0.58-0.64-1.2-1.04-1.84c0.85-0.2,1.69-0.38,2.49-0.54
			C224.26,27.72,224.57,28.35,224.84,28.94z"/>
		<path class="st0" d="M219.9,32.45c-0.22,0.08-0.39,0.15-0.5,0.19c-0.82-0.22-1.66-0.52-2.53-0.92c0.66-0.35,1.42-0.67,2.24-0.96
			C219.49,31.47,219.74,32.05,219.9,32.45z"/>
		<path class="st0" d="M230.27,31.31c-0.25,0.15-0.73,0.42-1.39,0.71c-0.07-0.28-0.24-0.82-0.54-1.59c0.64-0.08,1.22-0.12,1.72-0.08
			C230.2,30.88,230.26,31.22,230.27,31.31z"/>
		<path class="st0" d="M228.58,32.15c-0.54,0.22-1.17,0.43-1.9,0.61c-0.1-0.33-0.31-1-0.65-1.89c0.68-0.16,1.35-0.3,1.98-0.39
			C228.34,31.31,228.51,31.9,228.58,32.15z"/>
		<path class="st0" d="M226.36,32.84c-0.73,0.16-1.55,0.28-2.43,0.32c-0.06-0.23-0.22-0.79-0.53-1.57c0.73-0.22,1.51-0.44,2.3-0.64
			C226.04,31.83,226.26,32.51,226.36,32.84z"/>
		<path class="st0" d="M223.6,33.18c-0.98,0.02-2.05-0.06-3.18-0.29c-0.02-0.05-0.05-0.13-0.09-0.25c0.67-0.25,1.66-0.6,2.78-0.95
			C223.37,32.39,223.53,32.92,223.6,33.18z"/>
		<path class="st0" d="M222.98,31.38c-1.12,0.36-2.11,0.71-2.77,0.95c-0.16-0.41-0.42-0.98-0.79-1.68c0.91-0.31,1.89-0.58,2.86-0.82
			C222.56,30.4,222.79,30.93,222.98,31.38z"/>
		<path class="st0" d="M225.58,30.64c-0.78,0.2-1.56,0.43-2.29,0.65c-0.18-0.46-0.41-0.98-0.68-1.54c0.81-0.19,1.62-0.36,2.39-0.51
			C225.21,29.74,225.41,30.21,225.58,30.64z"/>
		<path class="st0" d="M227.88,30.17c-0.64,0.1-1.3,0.23-1.98,0.39c-0.16-0.43-0.36-0.89-0.58-1.38c0.7-0.13,1.36-0.25,1.96-0.34
			C227.52,29.32,227.71,29.77,227.88,30.17z"/>
		<path class="st0" d="M229.97,30.02c-0.53-0.02-1.12,0.01-1.76,0.1c-0.16-0.4-0.36-0.85-0.6-1.33c0.72-0.11,1.34-0.19,1.83-0.26
			C229.68,29.09,229.84,29.61,229.97,30.02z"/>
		<path class="st0" d="M230.51,30.08c-0.06-0.01-0.13-0.02-0.2-0.03c-0.13-0.43-0.3-0.96-0.54-1.57c0.23-0.03,0.42-0.05,0.54-0.06
			C230.43,28.97,230.49,29.52,230.51,30.08z"/>
		<path class="st0" d="M230.25,28.11c-0.13,0.01-0.34,0.04-0.59,0.07c-0.24-0.56-0.52-1.18-0.87-1.84c0.4-0.05,0.69-0.08,0.85-0.09
			C229.9,26.84,230.1,27.46,230.25,28.11z"/>
		<path class="st0" d="M229.32,28.21c-0.5,0.07-1.13,0.16-1.85,0.27c-0.29-0.56-0.62-1.18-1-1.83c0.76-0.11,1.43-0.2,1.97-0.27
			C228.79,27.04,229.08,27.65,229.32,28.21z"/>
		<path class="st0" d="M227.13,28.53c-0.61,0.1-1.26,0.21-1.95,0.34c-0.27-0.59-0.59-1.21-0.94-1.85c0.66-0.12,1.29-0.23,1.88-0.32
			C226.51,27.36,226.85,27.98,227.13,28.53z"/>
		<path class="st0" d="M222.13,29.53c-0.98,0.24-1.96,0.52-2.87,0.83c-0.3-0.55-0.66-1.17-1.11-1.83c0.94-0.32,1.94-0.6,2.94-0.84
			C221.49,28.33,221.84,28.95,222.13,29.53z"/>
		<path class="st0" d="M218.95,30.47c-0.9,0.32-1.73,0.68-2.43,1.07c-0.33-0.68-0.7-1.31-1.08-1.89c0.73-0.36,1.53-0.7,2.39-1
			C218.28,29.3,218.66,29.92,218.95,30.47z"/>
		<path class="st0" d="M216.04,31.31c-0.57-0.29-1.15-0.63-1.73-1.01c0.26-0.17,0.54-0.34,0.84-0.5
			C215.46,30.27,215.76,30.78,216.04,31.31z"/>
		<path class="st0" d="M214.97,29.53c-0.35,0.18-0.66,0.38-0.95,0.58c-0.57-0.39-1.15-0.81-1.74-1.3c0.48-0.29,0.99-0.57,1.51-0.83
			C214.19,28.45,214.58,28.96,214.97,29.53z"/>
		<path class="st0" d="M217.63,28.36c-0.85,0.31-1.65,0.64-2.38,1.01c-0.38-0.56-0.77-1.07-1.16-1.54c0.77-0.36,1.56-0.7,2.37-1
			C216.9,27.35,217.29,27.87,217.63,28.36z"/>
		<path class="st0" d="M220.89,27.39c-1,0.25-1.99,0.53-2.94,0.86c-0.35-0.49-0.74-1.01-1.17-1.54c0.97-0.36,1.96-0.67,2.93-0.94
			C220.15,26.31,220.54,26.86,220.89,27.39z"/>
		<path class="st0" d="M223.73,26.77c-0.81,0.16-1.66,0.34-2.51,0.54c-0.35-0.54-0.73-1.09-1.17-1.64c0.9-0.25,1.77-0.47,2.59-0.65
			C223.05,25.6,223.4,26.19,223.73,26.77z"/>
		<path class="st0" d="M225.93,26.39c-0.58,0.09-1.21,0.19-1.87,0.32c-0.32-0.59-0.68-1.18-1.08-1.77c0.62-0.13,1.2-0.26,1.74-0.36
			C225.18,25.2,225.57,25.81,225.93,26.39z"/>
		<path class="st0" d="M228.25,26.07c-0.55,0.06-1.22,0.16-1.98,0.27c-0.35-0.58-0.74-1.19-1.19-1.82c0.75-0.15,1.42-0.26,1.96-0.34
			C227.51,24.83,227.91,25.46,228.25,26.07z"/>
		<path class="st0" d="M229.49,25.92c-0.2,0.02-0.5,0.06-0.88,0.11c-0.34-0.61-0.74-1.25-1.21-1.9c0.42-0.06,0.74-0.1,0.93-0.13
			C228.79,24.6,229.17,25.25,229.49,25.92z"/>
		<path class="st0" d="M228.1,23.7c-0.22,0.03-0.53,0.07-0.91,0.13c-0.4-0.56-0.85-1.13-1.36-1.7c0.31-0.05,0.53-0.08,0.62-0.09
			C227.07,22.53,227.62,23.1,228.1,23.7z"/>
		<path class="st0" d="M226.84,23.88c-0.55,0.08-1.22,0.2-1.97,0.33c-0.39-0.55-0.82-1.11-1.3-1.69c0.75-0.14,1.39-0.26,1.88-0.34
			C225.97,22.76,226.43,23.33,226.84,23.88z"/>
		<path class="st0" d="M224.52,24.29c-0.54,0.11-1.12,0.23-1.73,0.37c-0.39-0.57-0.81-1.13-1.27-1.68c0.6-0.14,1.16-0.26,1.69-0.38
			C223.69,23.17,224.12,23.73,224.52,24.29z"/>
		<path class="st0" d="M222.45,24.73c-0.83,0.19-1.71,0.41-2.61,0.66c-0.43-0.53-0.9-1.06-1.41-1.58c0.94-0.29,1.86-0.53,2.73-0.74
			C221.63,23.6,222.05,24.16,222.45,24.73z"/>
		<path class="st0" d="M219.5,25.49c-0.96,0.27-1.96,0.59-2.93,0.96c-0.43-0.5-0.89-1-1.4-1.5c0.95-0.39,1.94-0.73,2.91-1.03
			C218.59,24.43,219.06,24.96,219.5,25.49z"/>
		<path class="st0" d="M216.24,26.57c-0.81,0.31-1.6,0.64-2.37,1.01c-0.45-0.52-0.9-0.99-1.33-1.39c0.71-0.41,1.49-0.77,2.29-1.12
			C215.35,25.57,215.82,26.08,216.24,26.57z"/>
		<path class="st0" d="M213.57,27.73c-0.54,0.27-1.06,0.56-1.56,0.86c-0.43-0.36-0.86-0.75-1.29-1.16c0.46-0.38,0.98-0.73,1.54-1.07
			l0.01,0C212.67,26.76,213.12,27.21,213.57,27.73z"/>
		<path class="st0" d="M212,26.13c-0.56,0.33-1.07,0.68-1.53,1.07c-0.34-0.33-0.69-0.68-1.04-1.06c0.34-0.42,0.72-0.81,1.14-1.18
			C210.95,25.23,211.44,25.62,212,26.13z"/>
		<path class="st0" d="M214.58,24.84c-0.8,0.34-1.58,0.72-2.29,1.12c-0.57-0.52-1.07-0.93-1.45-1.22c0.62-0.52,1.31-0.98,2.03-1.39
			C213.49,23.84,214.06,24.34,214.58,24.84z"/>
		<path class="st0" d="M217.81,23.65c-0.98,0.31-1.96,0.66-2.9,1.04c-0.53-0.51-1.11-1.02-1.74-1.51c0.87-0.47,1.78-0.87,2.69-1.22
			C216.57,22.51,217.22,23.08,217.81,23.65z"/>
		<path class="st0" d="M220.92,22.79c-0.88,0.21-1.81,0.47-2.75,0.75c-0.59-0.59-1.24-1.16-1.95-1.7c0.98-0.35,1.95-0.63,2.84-0.85
			C219.72,21.54,220.35,22.14,220.92,22.79z"/>
		<path class="st0" d="M222.98,22.32c-0.53,0.11-1.1,0.24-1.7,0.38c-0.56-0.64-1.17-1.26-1.83-1.81c0.69-0.16,1.33-0.3,1.89-0.4
			C221.93,21.11,222.48,21.73,222.98,22.32z"/>
		<path class="st0" d="M225.2,21.9c-0.5,0.09-1.13,0.2-1.85,0.35c-0.5-0.6-1.04-1.21-1.62-1.82c0.77-0.13,1.34-0.2,1.61-0.22
			c0.09,0.03,0.19,0.07,0.28,0.11C224.19,20.84,224.72,21.38,225.2,21.9z"/>
		<path class="st0" d="M226.11,21.75c-0.14,0.02-0.31,0.05-0.52,0.09c-0.32-0.36-0.66-0.72-1.04-1.08
			C225.11,21.05,225.62,21.38,226.11,21.75z"/>
		<path class="st0" d="M222.64,19.97c-0.32,0.04-0.73,0.1-1.19,0.18c-0.19-0.2-0.39-0.4-0.6-0.59
			C221.46,19.64,222.05,19.77,222.64,19.97z"/>
		<path class="st0" d="M221.06,20.22c-0.57,0.11-1.22,0.24-1.92,0.41c-0.49-0.39-1-0.75-1.54-1.07c0.9-0.14,1.81-0.17,2.73-0.07
			C220.58,19.73,220.83,19.98,221.06,20.22z"/>
		<path class="st0" d="M218.74,20.73c-0.9,0.23-1.86,0.52-2.83,0.88c-0.49-0.36-0.99-0.71-1.54-1.05c0.86-0.43,1.77-0.73,2.72-0.92
			C217.67,19.96,218.22,20.33,218.74,20.73z"/>
		<path class="st0" d="M215.54,21.75c-0.9,0.34-1.79,0.75-2.65,1.22c-0.31-0.24-0.65-0.49-0.99-0.73c0.64-0.59,1.36-1.09,2.13-1.5
			C214.57,21.06,215.07,21.39,215.54,21.75z"/>
		<path class="st0" d="M212.59,23.14c-0.72,0.42-1.4,0.89-2.01,1.41c-0.18-0.12-0.31-0.21-0.39-0.27c0.43-0.67,0.92-1.27,1.47-1.81
			C211.98,22.69,212.29,22.91,212.59,23.14z"/>
		<path class="st0" d="M210.32,24.77c-0.31,0.27-0.6,0.56-0.87,0.86c0.05-0.12,0.11-0.24,0.17-0.36c0.12-0.24,0.25-0.48,0.39-0.71
			C210.08,24.6,210.19,24.67,210.32,24.77z"/>
		<path class="st0" d="M229.44,35.13c-0.07,0.15-0.15,0.28-0.23,0.42c-0.1-0.35-0.26-0.77-0.5-0.99c0.4-0.16,0.79-0.34,1.19-0.54
			C229.78,34.4,229.62,34.77,229.44,35.13z"/>
		<path class="st0" d="M228.98,35.92l-0.04-0.03c-0.07,0.08-0.5,0.56-1.26,1.14c-0.09-0.39-0.27-1.04-0.51-1.53
			c0.29-0.29,0.49-0.47,0.57-0.5l-0.01-0.04c0.23-0.08,0.46-0.16,0.68-0.25l0,0.07C228.59,34.75,228.84,35.34,228.98,35.92z"/>
		<path class="st0" d="M226.77,35.44c-0.46,0.47-1.04,1.08-1.6,1.69c-0.22-0.54-0.48-1.12-0.73-1.46c0.72-0.08,1.46-0.21,2.21-0.41
			C226.69,35.31,226.73,35.37,226.77,35.44z"/>
		<path class="st0" d="M227.39,37.24c-0.49,0.35-1.08,0.72-1.79,1.06c-0.06-0.19-0.17-0.5-0.3-0.83c0.59-0.65,1.17-1.27,1.62-1.73
			C227.1,36.15,227.27,36.7,227.39,37.24z"/>
		<path class="st0" d="M225.31,38.44c-0.41,0.19-0.86,0.36-1.33,0.51c0.34-0.38,0.72-0.8,1.09-1.21
			C225.15,37.98,225.23,38.22,225.31,38.44z"/>
		<path class="st0" d="M223.98,35.72l-1.27,1.19c-0.13-0.41-0.31-0.82-0.54-1.17C222.77,35.77,223.37,35.76,223.98,35.72z"/>
		<path class="st0" d="M224.93,37.4c-0.67,0.74-1.27,1.42-1.52,1.71l-0.01,0c-0.08,0.02-0.16,0.04-0.24,0.06
			c-0.01-0.16-0.09-1.01-0.34-1.91l1.41-1.33C224.45,36.25,224.71,36.82,224.93,37.4z"/>
		<path class="st0" d="M223.01,39.2c-0.78,0.17-1.64,0.27-2.55,0.26l2.09-1.95c0.22,0.89,0.28,1.69,0.28,1.71L223.01,39.2z"/>
		<path class="st0" d="M222.46,37.15l-2.46,2.3c-0.03,0-0.05,0-0.08,0c-0.04-0.11-0.37-1.04-0.78-2.06l1.98-1.72
			c0.21,0.02,0.43,0.04,0.65,0.05C222.08,36.11,222.3,36.63,222.46,37.15z"/>
		<path class="st0" d="M219.57,39.42c-0.73-0.06-1.5-0.19-2.3-0.4l1.62-1.41C219.21,38.4,219.47,39.13,219.57,39.42z"/>
		<path class="st0" d="M220.69,35.61l-1.68,1.46c-0.33-0.77-0.7-1.57-1.03-2.07C218.86,35.27,219.75,35.48,220.69,35.61z"/>
		<path class="st0" d="M218.75,37.29l-1.57,1.36c-0.19-0.58-0.63-1.92-1.09-3.11c0.6-0.48,1.05-0.78,1.19-0.78l0-0.01
			c0.07,0.03,0.13,0.05,0.2,0.07l-0.02,0.02C217.84,35.2,218.33,36.27,218.75,37.29z"/>
		<path class="st0" d="M216.93,38.92c-0.01,0-0.03-0.01-0.04-0.01c-0.69-0.2-1.41-0.46-2.15-0.8c-0.03-0.08-0.15-0.54-0.32-1.18
			c0.5-0.43,0.99-0.84,1.41-1.18c0.48,1.26,0.95,2.69,1.09,3.15C216.93,38.9,216.93,38.91,216.93,38.92z"/>
		<path class="st0" d="M214.35,37.93c-0.22-0.1-0.45-0.22-0.68-0.34c0.16-0.15,0.32-0.29,0.48-0.43
			C214.24,37.48,214.31,37.75,214.35,37.93z"/>
		<path class="st0" d="M216.88,34.6c-0.25,0.14-0.57,0.36-0.92,0.62c-0.19-0.48-0.38-0.92-0.55-1.25
			C215.89,34.2,216.37,34.41,216.88,34.6z"/>
		<path class="st0" d="M214,33.23c-0.19,0.06-0.4,0.15-0.62,0.27c-0.1-0.29-0.2-0.57-0.3-0.82C213.38,32.87,213.69,33.05,214,33.23z
			"/>
		<path class="st0" d="M215.7,35.42c-0.44,0.35-0.92,0.75-1.38,1.15c-0.23-0.82-0.53-1.84-0.83-2.76c0.41-0.24,0.77-0.37,1-0.3
			l0.01-0.01c0.13,0.07,0.27,0.15,0.4,0.21l-0.01,0.01C215.1,34,215.4,34.66,215.7,35.42z"/>
		<path class="st0" d="M214.05,36.82c-0.24,0.21-0.48,0.42-0.69,0.61c-0.53-0.29-1.06-0.62-1.62-0.98c0.17-0.33,0.2-0.82,0.12-1.38
			c0.43-0.39,0.9-0.78,1.34-1.07C213.52,34.95,213.83,36,214.05,36.82z"/>
		<path class="st0" d="M211.48,36.26c-0.16-0.11-0.33-0.22-0.49-0.34c0.17-0.19,0.37-0.39,0.59-0.58
			C211.61,35.72,211.59,36.03,211.48,36.26z"/>
		<path class="st0" d="M213.1,33.68c-0.44,0.28-0.89,0.65-1.28,1.01c-0.13-0.7-0.38-1.47-0.66-2.19c0.39-0.29,0.74-0.48,0.94-0.47
			l0-0.01c0.17,0.12,0.33,0.23,0.51,0.35C212.76,32.73,212.93,33.18,213.1,33.68z"/>
		<path class="st0" d="M211.54,34.94c-0.35,0.33-0.64,0.62-0.81,0.79c-0.28-0.2-0.56-0.42-0.85-0.65c-0.18-0.33-0.35-0.68-0.5-1.02
			c0.42-0.43,0.98-0.95,1.5-1.35C211.18,33.48,211.42,34.26,211.54,34.94z"/>
		<path class="st0" d="M211.76,31.78c-0.22,0.08-0.47,0.22-0.73,0.4c-0.22-0.56-0.44-1.06-0.62-1.46
			C210.81,31.06,211.27,31.42,211.76,31.78z"/>
		<path class="st0" d="M210.76,32.38L210.76,32.38c-0.59,0.46-1.18,1.03-1.5,1.35c-0.27-0.68-0.46-1.4-0.58-2.13
			c0.47-0.44,0.96-0.82,1.3-1.02C210.21,31.08,210.49,31.71,210.76,32.38z"/>
		<path class="st0" d="M209.83,30.29c-0.41,0.22-0.88,0.61-1.21,0.91c-0.09-0.71-0.11-1.44-0.05-2.16c0.28,0.29,0.69,0.69,1.21,1.14
			C209.8,30.21,209.81,30.25,209.83,30.29z"/>
		<path class="st17" d="M210.37,66.2c-0.11,0.05-0.23,0.1-0.36,0.15c-0.11,0.05-0.16,0.04-0.16,0.04c-0.12-0.09-0.14-0.72,0-1.44
			c0.47,0.12,0.93,0.13,1.34,0.1C211.14,65.87,211.05,65.92,210.37,66.2z"/>
		<path class="st1" d="M212.85,63.94c-0.53,0.28-3.1,1.44-5.13-1.2l0.08-1.3c0.33,0.24,0.65,0.43,0.99,0.6
			c1.76,0.87,3.49,0.79,4.56,0.59L212.85,63.94z"/>
		<path class="st1" d="M230.18,33.17l-0.01-0.02c-10.99,6.04-20.39-3.73-21.49-4.95c0.08-0.52,0.2-1.03,0.37-1.53
			c2.41,2.57,4.77,4.27,6.98,5.38c7.13,3.55,12.82,0.83,14.38-0.08C230.37,32.38,230.29,32.78,230.18,33.17z"/>
		<path class="st1" d="M227.26,38.05c-3.21,3.02-8.2,3.85-12.49,1.71c-1.54-0.77-2.83-1.84-3.83-3.09c0.97,0.67,1.9,1.22,2.8,1.67
			C219.98,41.45,224.71,39.69,227.26,38.05z"/>
		<path class="st13" d="M214.04,61.81c-0.71,0.24-4.24,1.24-7.06-1.98l4.04-22.06c0.95,1.03,2.11,1.92,3.45,2.58
			c2.71,1.35,5.69,1.58,8.37,0.87L214.04,61.81z"/>
	</g>
</g>
<g id="Capa_7">
	<g>
		<g>
			<g>
				<path class="st18" d="M19.06,43.95l0-0.01l0-0.03C19.06,43.92,19.06,43.94,19.06,43.95z"/>
			</g>
		</g>
		<g>
			<g>
				<path class="st1" d="M27.19,50.73c0.1,0.05,0.16,0.08,0.16,0.08s0.01-0.02,0.03-0.07C27.32,50.74,27.26,50.74,27.19,50.73z
					 M28.86,16.53c-7.41-0.78-15.4-0.42-15.64,1.79c-0.01,0.11-0.01,0.21,0.02,0.32c0,0,0,0,0,0.01l2.3,29.18l-0.54,5.07
					c-0.18,1.71,5.5,2.94,9.35,3.35c3.86,0.41,9.67,0.4,9.85-1.32l0.51-5.07l3.27-10.22l-3.59,10.34l-0.5,4.93
					c0,0,0.32,2.05-7.11,1.27c0,0,0.18-0.12,0.43-0.32c-0.2-0.01-0.4-0.02-0.61-0.03c-0.16-0.01-0.32-0.02-0.48-0.03
					c-0.12-0.01-0.25-0.02-0.38-0.03c-0.43-0.03-0.88-0.07-1.34-0.12c-5.49-0.58-8.89-1.98-8.82-2.68l0.45-4.21
					c1.46,1.22,5.74,2.08,8.84,2.4c0.26,0.03,0.52,0.05,0.79,0.07c0.09,0.01,0.19,0.02,0.29,0.02c0.62,0.05,1.26,0.09,1.91,0.1
					c-0.12-0.08-0.25-0.15-0.38-0.23c-0.3-0.17-0.56-0.3-0.78-0.43c-0.56-0.03-1.15-0.08-1.77-0.15c-5.49-0.58-8.89-1.98-8.82-2.68
					l-2.23-28.3c2.05,1.7,8.24,3.13,14.21,3.77c3.3,0.35,6.71,0.47,9.51,0.3l0.07-0.21l0.15-0.41c-0.17,0.01-0.34,0.02-0.52,0.03
					c-0.35,0.02-0.71,0.03-1.08,0.04c-0.18,0.01-0.36,0.01-0.54,0.01c-0.11,0-0.22,0-0.33,0c-0.09,0-0.19,0-0.28,0
					c-0.1,0-0.19,0-0.28,0c-0.09,0-0.19,0-0.29,0c-0.25,0-0.5,0-0.75-0.01c-0.31,0-0.62-0.01-0.94-0.03c-0.16,0-0.32-0.01-0.48-0.02
					c-0.03,0-0.05,0-0.07,0c-0.02,0-0.03,0-0.05,0c-0.11-0.01-0.23-0.01-0.34-0.02c-0.15-0.01-0.3-0.02-0.45-0.03
					c-0.17-0.01-0.34-0.02-0.51-0.03c-0.18-0.01-0.36-0.03-0.55-0.04c-0.73-0.05-1.47-0.12-2.21-0.2
					c-3.98-0.42-7.69-1.14-10.43-2.01c-2.68-0.86-3.77-1.66-3.92-2.17c0,0,0,0,0-0.01c-0.02-0.06-0.02-0.11-0.02-0.16l0-0.03
					c0.09-0.5,1.27-1.13,4.34-1.44c2.87-0.29,6.64-0.21,10.62,0.21c3.98,0.42,7.68,1.14,10.43,2.02c0.1,0.03,0.2,0.07,0.3,0.1
					c0.17,0.06,0.32,0.11,0.48,0.17c0.12,0.04,0.24,0.09,0.35,0.13c0.09,0.03,0.17,0.06,0.25,0.1c0.08,0.03,0.16,0.06,0.24,0.09
					c0.08,0.03,0.15,0.06,0.22,0.09c0.07,0.03,0.14,0.06,0.21,0.09c0.1,0.05,0.2,0.09,0.29,0.14c0.02,0.01,0.03,0.02,0.05,0.02
					c0.16,0.08,0.31,0.16,0.45,0.24c0.09,0.05,0.17,0.1,0.25,0.15c0.01,0.01,0.02,0.01,0.03,0.02c0.03,0.02,0.06,0.04,0.1,0.06
					c0.03,0.02,0.07,0.05,0.1,0.07c0.01,0,0.02-0.01,0.03-0.01c0.21-0.08,0.4-0.16,0.59-0.24C41.19,18.64,34.91,17.17,28.86,16.53z"
					/>
				<path class="st19" d="M27.23,55.85L27.23,55.85c-0.2-0.01-0.41-0.01-0.61-0.03c-0.16-0.01-0.32-0.02-0.48-0.03
					c-0.12-0.01-0.25-0.02-0.38-0.03c-0.43-0.03-0.88-0.07-1.34-0.12c-5.49-0.58-8.89-1.98-8.82-2.68l0.45-4.21
					c1.46,1.22,5.74,2.08,8.84,2.4c0.26,0.03,0.52,0.05,0.79,0.07c0.09,0.01,0.19,0.02,0.29,0.02c0.62,0.05,1.26,0.09,1.91,0.1
					C30.37,52.99,28.22,55.06,27.23,55.85z"/>
				<path class="st20" d="M32.26,23.06c-0.11-0.01-0.23-0.01-0.34-0.02c0.05,0,0.18,0,0.39,0.02
					C32.29,23.06,32.27,23.06,32.26,23.06z"/>
				<path class="st20" d="M36.27,23.11c0.37-0.01,0.73-0.02,1.08-0.04C36.99,23.09,36.63,23.1,36.27,23.11z"/>
				<path class="st20" d="M41.61,20.13c-0.16,1.52-9.69,2.91-9.69,2.91c-0.15-0.01-0.3-0.02-0.45-0.03
					c-0.17-0.01-0.34-0.02-0.51-0.03c-0.18-0.01-0.36-0.03-0.55-0.04c-0.73-0.05-1.47-0.12-2.21-0.2
					c-3.98-0.42-7.69-1.14-10.43-2.01c-2.68-0.86-3.77-1.66-3.92-2.17c0,0,0,0,0-0.01l-0.02-0.19c0.09-0.5,1.27-1.13,4.34-1.44
					c2.87-0.29,6.64-0.21,10.62,0.21c3.98,0.42,7.68,1.14,10.43,2.02c0.1,0.03,0.2,0.07,0.3,0.1c0.17,0.06,0.32,0.11,0.48,0.17
					c0.12,0.04,0.24,0.09,0.35,0.13c0.09,0.03,0.17,0.06,0.25,0.1c0.08,0.03,0.16,0.06,0.24,0.09c0.08,0.03,0.15,0.06,0.22,0.09
					c0.07,0.03,0.14,0.06,0.21,0.09c0.1,0.05,0.2,0.09,0.29,0.14c0.02,0.01,0.03,0.02,0.05,0.02C41.61,20.1,41.61,20.11,41.61,20.13
					z"/>
				<path class="st21" d="M16.48,24.62c0.24-0.09,0.52-0.17,0.83-0.24c0,0,0,0,0,0c2.56-0.56,7.23-0.39,10.68-0.03
					c2.78,0.29,6.3,0.88,8.82,1.66l0.83-2.37c-2.8,0.17-6.21,0.04-9.51-0.3c-5.97-0.63-12.16-2.07-14.21-3.77l2.23,28.3
					c-0.07,0.7,3.32,2.1,8.82,2.68c0.61,0.06,1.2,0.11,1.77,0.15c0.16,0.01,0.31,0.02,0.47,0.03c0.07,0,0.13,0.01,0.19,0.01
					c0.09-0.18,0.34-0.73,0.71-1.56c-1.05-0.02-2.09-0.1-2.95-0.19c-2.84-0.3-7.59-1.16-7.56-2.51L15.47,25.8
					c-0.02-0.09-0.03-0.17-0.02-0.25C15.49,25.16,15.87,24.86,16.48,24.62z"/>
			</g>
		</g>
		<g>
			<g>
				<g>
					<path class="st22" d="M34.42,49.81"/>
				</g>
			</g>
		</g>
		<g>
			<g>
				<path class="st23" d="M19.57,43.96"/>
			</g>
		</g>
		<g>
			<g>
				<path class="st18" d="M43.17,21.49c-0.01,0.06-0.03,0.11-0.06,0.18l0.06-0.2C43.17,21.48,43.17,21.48,43.17,21.49z"/>
			</g>
		</g>
		<g>
			<g>
				<g>
					<path class="st22" d="M34.42,49.81"/>
				</g>
			</g>
		</g>
		<g>
			<g>
				<path class="st18" d="M19.06,43.95l0-0.01l0-0.03C19.06,43.92,19.06,43.94,19.06,43.95z"/>
			</g>
		</g>
		<g>
			<g>
				<path class="st23" d="M43.56,21.53"/>
			</g>
		</g>
		<g>
			<g>
				<g>
					<polygon class="st22" points="34.42,49.81 34.12,49.78 34.12,49.78 					"/>
				</g>
			</g>
		</g>
	</g>
	<g>
		<g>
			<g>
				<g>
					<path class="st22" d="M32.39,51.64"/>
				</g>
			</g>
		</g>
		<g>
			<g>
				<g>
					<path class="st22" d="M32.76,48.04"/>
				</g>
			</g>
		</g>
		<g>
			<g>
				<g>
					<path class="st22" d="M32.76,48.04"/>
				</g>
			</g>
		</g>
		<g>
			<g>
				<path class="st23" d="M17.91,46.47"/>
			</g>
		</g>
		<g>
			<g>
				<path class="st18" d="M39.41,28.09c-0.01,0.05-0.03,0.1-0.06,0.15l0.06-0.18C39.41,28.07,39.41,28.08,39.41,28.09z"/>
			</g>
		</g>
		<g>
			<g>
				<g>
					<path class="st22" d="M32.76,48.04"/>
				</g>
			</g>
		</g>
		<g>
			<g>
				<path class="st1" d="M27.99,24.36c-3.45-0.37-8.12-0.53-10.68,0.03c0,0,0,0,0,0c-0.31,0.07-0.59,0.15-0.83,0.24
					c-0.62,0.23-0.99,0.54-1.03,0.93c-0.01,0.08,0,0.16,0.02,0.25l2.12,20.69c-0.03,1.34,4.72,2.21,7.56,2.51
					c0.86,0.09,1.9,0.17,2.95,0.19c0.08-0.19,0.17-0.38,0.27-0.6c-0.91-0.01-1.97-0.07-3.15-0.2c-4.51-0.48-6.96-1.48-7.02-1.89
					l-2.02-19.77c0.12,0.1,0.26,0.21,0.41,0.31c0.37,0.26,0.83,0.53,1.37,0.79l0,0c2.24,1.11,5.75,2.16,9.59,2.57
					c2.9,0.31,5.7,0.19,7.91-0.17c0.05-0.21,0.11-0.43,0.16-0.63c-2.08,0.36-4.86,0.53-8,0.2c-0.22-0.02-0.44-0.05-0.66-0.08
					c-0.1-0.01-0.2-0.02-0.3-0.04c-0.19-0.02-0.38-0.05-0.57-0.08l-0.02,0c-0.73-0.11-1.44-0.25-2.11-0.4
					c-0.09-0.02-0.19-0.04-0.28-0.06c-0.38-0.09-0.75-0.18-1.11-0.28c-0.2-0.06-0.41-0.11-0.61-0.17c-0.22-0.06-0.43-0.12-0.63-0.19
					c-0.1-0.03-0.19-0.06-0.29-0.09c-0.22-0.07-0.44-0.15-0.65-0.23c-0.14-0.05-0.28-0.1-0.41-0.15c-0.6-0.23-1.14-0.46-1.62-0.69
					c-0.05-0.02-0.09-0.04-0.14-0.07c-0.11-0.05-0.21-0.11-0.31-0.16l0,0c-0.43-0.22-0.79-0.44-1.08-0.64
					c-0.03-0.02-0.06-0.04-0.09-0.07c-0.06-0.05-0.13-0.09-0.18-0.14c-0.1-0.09-0.19-0.17-0.26-0.24c-0.02-0.02-0.03-0.03-0.04-0.05
					c-0.08-0.09-0.13-0.17-0.16-0.25c-0.02-0.05-0.03-0.09-0.02-0.13c0-0.01,0-0.02,0.01-0.02c0.01-0.02,0.01-0.04,0.03-0.06
					c0.01-0.02,0.02-0.04,0.04-0.05c0-0.01,0.01-0.01,0.01-0.01c0.02-0.02,0.05-0.04,0.07-0.06c0.03-0.02,0.06-0.04,0.09-0.06
					c0.05-0.03,0.11-0.06,0.18-0.09c0.27-0.12,0.67-0.23,1.2-0.32c0.06-0.01,0.12-0.02,0.18-0.03c0.06-0.01,0.12-0.02,0.19-0.03
					c0.07-0.01,0.13-0.02,0.2-0.03c0.08-0.01,0.17-0.02,0.26-0.03c0.27-0.04,0.56-0.06,0.88-0.09c0.13-0.01,0.26-0.02,0.4-0.03
					c0.21-0.01,0.43-0.02,0.65-0.03c0.15-0.01,0.29-0.01,0.45-0.02c0.15-0.01,0.31-0.01,0.46-0.01c0,0,0.01,0,0.01,0
					c0.16-0.01,0.33-0.01,0.49-0.01c0.26,0,0.54,0,0.82,0c0.21,0,0.43,0.01,0.64,0.02c0.16,0,0.33,0.01,0.5,0.01
					c0.23,0.01,0.47,0.02,0.71,0.03c0.04,0,0.08,0,0.12,0.01c0.2,0.01,0.4,0.02,0.6,0.04c0.02,0,0.05,0,0.07,0
					c0.18,0.01,0.37,0.02,0.57,0.04c0.17,0.01,0.35,0.02,0.53,0.04c0.2,0.02,0.4,0.04,0.6,0.05c0.15,0.01,0.3,0.03,0.45,0.04
					c0.15,0.01,0.3,0.03,0.45,0.04c0.26,0.03,0.51,0.05,0.75,0.08c0.38,0.05,0.75,0.09,1.11,0.14c0.07,0.01,0.14,0.02,0.21,0.03
					c0.41,0.06,0.8,0.11,1.18,0.18c0.03,0,0.06,0.01,0.09,0.01c0.2,0.03,0.4,0.07,0.6,0.1c0.74,0.13,1.44,0.26,2.07,0.4
					c0.49,0.11,0.95,0.22,1.38,0.33c0.26,0.07,0.5,0.13,0.73,0.2c0.2,0.06,0.38,0.11,0.56,0.17l0.2-0.57
					C34.3,25.24,30.78,24.65,27.99,24.36z"/>
				<path class="st24" d="M39.41,28.06l-0.06,0.18c-0.02,0.03-0.04,0.06-0.07,0.09c-0.03,0.03-0.06,0.06-0.1,0.09
					c-0.49,0.41-1.77,0.88-3.59,1.2c-2.08,0.36-4.86,0.53-8,0.2c-0.22-0.02-0.44-0.05-0.66-0.08c-0.1-0.01-0.2-0.02-0.3-0.04
					c-0.19-0.02-0.38-0.05-0.57-0.08l-0.02,0c-0.73-0.11-1.44-0.25-2.11-0.4c-0.09-0.02-0.19-0.04-0.28-0.06
					c-0.38-0.09-0.75-0.18-1.11-0.28c-0.2-0.06-0.41-0.11-0.61-0.17c-0.22-0.06-0.43-0.12-0.63-0.19c-0.1-0.03-0.19-0.06-0.29-0.09
					c-0.22-0.07-0.44-0.15-0.65-0.23c-0.14-0.05-0.28-0.1-0.41-0.15c-0.6-0.23-1.14-0.46-1.62-0.69c-0.05-0.02-0.09-0.04-0.14-0.07
					c-0.11-0.05-0.21-0.11-0.31-0.16l0,0c-0.43-0.22-0.79-0.44-1.08-0.64c-0.03-0.02-0.06-0.04-0.09-0.07
					c-0.06-0.05-0.13-0.09-0.18-0.14c-0.1-0.09-0.19-0.17-0.26-0.24c-0.02-0.02-0.03-0.03-0.04-0.05c-0.08-0.09-0.13-0.17-0.16-0.25
					l-0.02-0.16c0.01-0.02,0.01-0.04,0.03-0.06c0.01-0.02,0.02-0.04,0.04-0.05c0-0.01,0.01-0.01,0.01-0.01
					c0.02-0.02,0.05-0.04,0.07-0.06c0.03-0.02,0.06-0.04,0.09-0.06c0.05-0.03,0.11-0.06,0.18-0.09c0.27-0.12,0.67-0.23,1.2-0.32
					c0.06-0.01,0.12-0.02,0.18-0.03c0.06-0.01,0.12-0.02,0.19-0.03c0.07-0.01,0.13-0.02,0.2-0.03c0.08-0.01,0.17-0.02,0.26-0.03
					c0.27-0.04,0.56-0.06,0.88-0.09c0.13-0.01,0.26-0.02,0.4-0.03c0.21-0.01,0.43-0.02,0.65-0.03c0.15-0.01,0.29-0.01,0.45-0.02
					c0.15-0.01,0.31-0.01,0.46-0.01c0,0,0.01,0,0.01,0c0.16-0.01,0.33-0.01,0.49-0.01c0.26,0,0.54,0,0.82,0
					c0.21,0,0.42,0.01,0.64,0.02c0.16,0,0.33,0.01,0.5,0.01c0.23,0.01,0.47,0.02,0.71,0.03c0.04,0,0.08,0,0.12,0.01
					c0.2,0.01,0.4,0.02,0.6,0.04c0.02,0,0.05,0,0.07,0c0.18,0.01,0.37,0.02,0.57,0.04c0.18,0.01,0.35,0.02,0.53,0.04
					c0.2,0.02,0.4,0.04,0.6,0.05c0.15,0.01,0.3,0.03,0.45,0.04c0.15,0.01,0.3,0.03,0.45,0.04c0.26,0.03,0.51,0.05,0.75,0.08
					c0.38,0.05,0.75,0.09,1.11,0.14c0.07,0.01,0.14,0.02,0.21,0.03c0.41,0.06,0.8,0.11,1.18,0.18c0.03,0,0.06,0.01,0.09,0.01
					c0.2,0.03,0.4,0.07,0.6,0.1c0.74,0.13,1.44,0.26,2.07,0.4c0.49,0.11,0.95,0.22,1.38,0.33c0.26,0.07,0.5,0.13,0.73,0.2
					c0.2,0.06,0.38,0.11,0.56,0.17l0,0c0.07,0.02,0.15,0.04,0.22,0.07c0.6,0.19,1.1,0.39,1.49,0.57c0.07,0.03,0.13,0.06,0.19,0.09
					c0.39,0.19,0.65,0.37,0.79,0.52c0.02,0.02,0.04,0.05,0.06,0.08c0,0,0,0,0,0C39.39,27.98,39.41,28.02,39.41,28.06z"/>
				<path class="st24" d="M35.44,30.24c-1.48,5.59-5.25,14.3-7.07,18.35c-0.91-0.01-1.97-0.07-3.15-0.2
					c-4.51-0.48-6.96-1.48-7.02-1.89l-2.02-19.77c0.12,0.1,0.26,0.21,0.41,0.31c0.37,0.26,0.83,0.53,1.37,0.79
					c2.24,1.11,5.75,2.16,9.59,2.57C30.44,30.72,33.23,30.6,35.44,30.24z"/>
			</g>
		</g>
		<g>
			<g>
				<path class="st23" d="M39.78,28.13"/>
			</g>
		</g>
	</g>
	<path class="st20" d="M17.71,25.07c-0.04-0.4-0.32-0.74-0.71-0.81c-0.26-0.05-0.5,0.03-0.51,0.45c-0.03,0.95,0.58,11.11,1.47,12.86
		c0,0,0.35,0.52,0.54-0.81C18.64,35.61,17.9,27.25,17.71,25.07z"/>
	<path class="st20" d="M18.59,41.42c0,0-0.52,3,0.2,3.36c0.71,0.35,0.36-1.8,0.36-1.8S19.01,40.47,18.59,41.42z"/>
	<path class="st25" d="M39.01,29.2l-6.56,18.81c-0.1,0.29-1.53,0.62-4.09,0.58c1.82-4.05,5.6-12.76,7.07-18.35
		C36.97,29.99,38.21,29.63,39.01,29.2z"/>
	<path class="st1" d="M40.01,28.15c-0.01,0.09-0.04,0.17-0.08,0.26l-6.88,19.71l-0.01,0.02c-0.21,0.9-2.57,1.1-4.94,1.04
		c0.08-0.19,0.17-0.38,0.27-0.6c2.56,0.03,3.99-0.29,4.09-0.58l6.56-18.81c-0.81,0.43-2.05,0.8-3.57,1.05
		c0.05-0.21,0.11-0.43,0.16-0.63c1.82-0.32,3.1-0.79,3.59-1.2c0.03-0.03,0.07-0.06,0.1-0.09c0.03-0.03,0.05-0.06,0.07-0.09
		c0.03-0.05,0.06-0.1,0.06-0.15c0-0.01,0-0.02,0-0.03c0-0.04-0.02-0.08-0.05-0.13c0,0,0,0,0,0c-0.01-0.02-0.03-0.05-0.06-0.08
		c-0.14-0.15-0.4-0.33-0.79-0.52c-0.06-0.03-0.12-0.06-0.19-0.09c-0.39-0.18-0.89-0.38-1.49-0.57c-0.07-0.02-0.14-0.05-0.22-0.07
		l0.2-0.57C38.76,26.63,40.1,27.35,40.01,28.15z"/>
	<path class="st25" d="M39.41,28.09c-0.01,0.05-0.03,0.1-0.06,0.15c-0.02,0.03-0.04,0.06-0.07,0.09c-0.03,0.03-0.06,0.06-0.1,0.09
		c-0.49,0.41-1.77,0.88-3.59,1.2c0.04-0.15,0.07-0.29,0.1-0.44l0.91-2.58l0,0c0.07,0.02,0.15,0.05,0.22,0.07
		c0.6,0.19,1.1,0.39,1.49,0.57c0.07,0.03,0.13,0.06,0.19,0.09c0.39,0.19,0.65,0.37,0.79,0.52c0.02,0.02,0.04,0.05,0.06,0.08
		c0,0,0,0,0,0c0.03,0.05,0.05,0.09,0.05,0.13C39.41,28.07,39.41,28.08,39.41,28.09z"/>
	<path class="st26" d="M42.79,22.65l-8.67,27.12c-0.07,0.6-2.64,1.15-6.73,0.97c0.09-0.18,0.34-0.73,0.71-1.56
		c2.37,0.06,4.73-0.14,4.94-1.04l0.01-0.02l6.88-19.71c0.04-0.09,0.07-0.17,0.08-0.26c0.08-0.8-1.25-1.52-3.2-2.13l0.83-2.37
		C39.89,23.52,41.73,23.19,42.79,22.65z"/>
	<path class="st1" d="M43.77,21.56c-0.01,0.11-0.05,0.22-0.1,0.33l-5.68,17.75l-3.59,10.34l-0.5,4.93c0,0,0.32,2.05-7.11,1.27
		c0,0,0.18-0.12,0.43-0.32c0.03,0,0.05,0,0.07,0c0.15,0,0.3,0.01,0.44,0.01c0.14,0.01,0.29,0.01,0.42,0.01
		c1.11,0.01,2.08-0.04,2.89-0.13c0.1-0.01,0.19-0.02,0.28-0.04c0.48-0.06,0.9-0.14,1.23-0.23c0.05-0.01,0.1-0.03,0.15-0.04
		c0.15-0.04,0.28-0.09,0.39-0.14c0.07-0.03,0.13-0.06,0.18-0.09c0.03-0.01,0.05-0.03,0.08-0.05c0.02-0.01,0.04-0.03,0.06-0.04
		c0.08-0.06,0.13-0.12,0.16-0.19c0.01-0.02,0.01-0.04,0.01-0.06l0,0l0.43-4.21c-0.04,0.02-0.08,0.04-0.12,0.06
		c-0.03,0.02-0.07,0.03-0.1,0.04c-0.41,0.18-0.95,0.31-1.57,0.41c-0.09,0.02-0.18,0.03-0.28,0.04c-0.1,0.01-0.21,0.03-0.32,0.04
		c-0.08,0.01-0.17,0.02-0.26,0.03c-0.15,0.02-0.3,0.03-0.46,0.04c-0.2,0.01-0.4,0.03-0.61,0.04c-0.42,0.02-0.84,0.03-1.28,0.03
		c-0.17,0-0.33,0-0.5,0c-0.21,0-0.43-0.01-0.65-0.01c-0.12-0.08-0.25-0.15-0.38-0.23c-0.3-0.17-0.56-0.3-0.78-0.43
		c0.16,0.01,0.31,0.02,0.47,0.03c0.1,0.05,0.16,0.08,0.16,0.08s0.01-0.02,0.03-0.07c4.09,0.19,6.67-0.37,6.73-0.97l8.67-27.12
		c-1.06,0.54-2.9,0.86-5.15,1l0.07-0.21l0.15-0.41c0.33-0.02,0.65-0.05,0.96-0.08c2.77-0.28,4-0.82,4.29-1.29
		c0.04-0.06,0.06-0.12,0.06-0.18c0-0.01,0-0.02,0-0.03c0-0.03,0-0.06-0.01-0.09c-0.01-0.04-0.02-0.09-0.04-0.14
		c-0.01-0.03-0.03-0.06-0.05-0.09c-0.02-0.04-0.05-0.08-0.09-0.12c-0.01-0.01-0.02-0.03-0.03-0.04c-0.02-0.02-0.09-0.09-0.18-0.18
		c-0.07-0.06-0.15-0.12-0.23-0.19c0.01,0,0.02-0.01,0.03-0.01c0.21-0.08,0.4-0.16,0.59-0.24C43.59,20.75,43.82,21.15,43.77,21.56z"
		/>
	<path class="st27" d="M33.6,54.87L33.6,54.87c0,0.02-0.01,0.04-0.01,0.06c-0.03,0.06-0.08,0.13-0.16,0.19
		c-0.02,0.02-0.04,0.03-0.06,0.04c-0.02,0.02-0.05,0.03-0.08,0.05c-0.05,0.03-0.11,0.06-0.18,0.09c-0.11,0.05-0.25,0.1-0.39,0.14
		c-0.05,0.02-0.1,0.03-0.15,0.04c-0.33,0.09-0.75,0.17-1.23,0.23c-0.09,0.01-0.19,0.02-0.28,0.04c-0.8,0.09-1.77,0.14-2.89,0.13
		c-0.14,0-0.28,0-0.42-0.01c-0.14,0-0.29-0.01-0.44-0.01c-0.02,0-0.05,0-0.07,0c0.99-0.79,3.14-2.86,0.66-4.49
		c0.22,0.01,0.43,0.01,0.65,0.01c0.17,0,0.34,0,0.5,0c0.43,0,0.86-0.01,1.28-0.03c0.21-0.01,0.41-0.02,0.61-0.04
		c0.16-0.01,0.31-0.02,0.46-0.04c0.09-0.01,0.17-0.02,0.26-0.03c0.11-0.01,0.22-0.02,0.32-0.04c0.09-0.01,0.19-0.02,0.28-0.04
		c0.62-0.09,1.16-0.23,1.57-0.41c0.03-0.01,0.07-0.03,0.1-0.04c0.04-0.02,0.08-0.04,0.12-0.06L33.6,54.87z"/>
	<path class="st28" d="M22.6,54.16c-0.02,0-0.05,0-0.07,0l0,0C22.55,54.16,22.58,54.16,22.6,54.16z"/>
	<path class="st27" d="M43.17,21.47l-0.06,0.2c-0.29,0.47-1.52,1.01-4.29,1.29c-0.31,0.03-0.63,0.06-0.96,0.08
		c-0.17,0.01-0.34,0.02-0.52,0.03c-0.35,0.02-0.71,0.03-1.08,0.04c-0.18,0.01-0.36,0.01-0.54,0.01c-0.11,0-0.22,0-0.33,0
		c-0.09,0-0.19,0-0.28,0c-0.1,0-0.19,0-0.28,0c-0.09,0-0.19,0-0.29,0c-0.25,0-0.5,0-0.75-0.01c-0.31,0-0.62-0.01-0.94-0.03
		c-0.16,0-0.32-0.01-0.48-0.02c-0.03,0-0.05,0-0.07,0c-0.2-0.02-0.34-0.02-0.39-0.02c0,0,9.53-1.39,9.69-2.91c0-0.02,0-0.03,0-0.05
		c0.16,0.08,0.31,0.16,0.45,0.24c0.09,0.05,0.17,0.1,0.25,0.15c0.01,0.01,0.02,0.01,0.03,0.02c0.03,0.02,0.06,0.04,0.1,0.06
		c0.03,0.02,0.07,0.05,0.1,0.07c0.09,0.07,0.17,0.13,0.23,0.19c0.09,0.09,0.16,0.15,0.18,0.18c0.01,0.01,0.02,0.03,0.03,0.04
		c0.04,0.04,0.06,0.08,0.09,0.12c0.02,0.03,0.03,0.06,0.05,0.09c0.02,0.05,0.03,0.1,0.04,0.14C43.17,21.41,43.17,21.44,43.17,21.47z
		"/>
	<path class="st20" d="M16.54,50.31c-0.16,0.56-0.34,1.37-0.28,2.15c0.03,0.52,0.56,0.67,0.78,0.21c0.31-0.65,0.57-1.59,0.11-2.5
		C17,49.89,16.64,49.97,16.54,50.31z"/>
</g>
<g id="Capa_11">
	<g>
		<path class="st29" d="M43.18,13.6L42,13.53l-27.89-1.76l-0.18-0.01l-0.01,0.18c0,0.07-0.26,4.95,3.53,8.97
			c0.23,0.26,0.49,0.52,0.77,0.76c0.34,0.15,0.69,0.28,1.04,0.42c-0.53-0.42-1-0.84-1.42-1.27h-0.01c-3.4-3.51-3.57-7.76-3.55-8.68
			l1.25,0.08c0.01,1.23,0.37,6.65,5.86,9.87h0.01c0.81,0.47,1.74,0.91,2.78,1.27h0.01c0.98,0.16,1.95,0.28,2.92,0.38
			c-1.68-0.3-3.11-0.76-4.31-1.32c-6.48-3-6.9-8.88-6.92-10.19l2.36,0.15c-0.23,0.15-0.49,0.37-0.66,0.68
			c-0.24,0.42-0.28,0.94-0.14,1.51c0.52,1.8,1.1,2.66,1.13,2.71c0.01,0,0.69,0.84,1.71,1.07c0.54,0.14,1.18,0.09,1.86-0.35
			c1.71-1.11,4.92-4.5,5.41-5.02l2.21,0.14l7.05,4.99l0.03,0.01c0.01,0.01,0.18,0.08,0.39,0.12c0.46,0.12,1.21,0.18,1.64-0.43
			c0.58-0.8,1.06-2.28,1.07-2.36c0.01,0,0.26-1.03-0.52-1.72l1.71,0.11c-0.01,1.03-0.26,5.18-3.19,7.87
			c-0.66,0.61-1.41,1.1-2.25,1.48c-0.79,0.35-1.65,0.6-2.6,0.75c0.61-0.01,1.21-0.03,1.75-0.05h0.01c0.61-0.19,1.19-0.45,1.72-0.75
			h0.01c0.58-0.33,1.11-0.72,1.6-1.17c3-2.75,3.28-6.98,3.31-8.1l1.34,0.08c0,0.92-0.18,5.79-3.53,8.92
			c-0.03,0.03-0.05,0.05-0.08,0.08c-0.26,0.23-0.52,0.45-0.79,0.65c0.27-0.03,0.49-0.05,0.65-0.08c0.11-0.07,0.22-0.16,0.33-0.27
			c0.01-0.01,0.04-0.03,0.05-0.04c3.72-3.4,3.72-8.83,3.72-9.39v-0.05L43.18,13.6z M21.94,17.71c-1.67,1.07-3.04-0.6-3.09-0.65
			c0-0.01-0.58-0.85-1.07-2.59c-0.12-0.47-0.09-0.9,0.11-1.23c0.31-0.56,0.95-0.77,1.09-0.81l8.11,0.52
			C26.23,13.84,23.43,16.72,21.94,17.71z M39.6,15.35c0,0.01-0.47,1.49-1.02,2.25c-0.45,0.62-1.45,0.26-1.59,0.2l-6.58-4.65
			l8.26,0.52C39.88,14.17,39.61,15.31,39.6,15.35z"/>
		<path class="st29" d="M34.84,23.87c-1.82,0.6-3.97,0.73-6.46,0.42c-0.88-0.11-1.7-0.26-2.45-0.43c-0.61-0.15-1.19-0.31-1.74-0.5
			c0.98,0.16,1.95,0.28,2.92,0.38c0.03-0.01,0.04,0,0.05,0c0.41,0.08,0.83,0.15,1.26,0.2c1.72,0.22,3.28,0.22,4.67-0.01
			C33.7,23.91,34.3,23.89,34.84,23.87z"/>
		<path class="st30" d="M39.1,23.52c-2.56,2.13-6.14,2.9-10.67,2.32c-0.99-0.12-1.91-0.28-2.77-0.49c-3.34-0.8-5.72-2.14-7.43-3.69
			c0.34,0.15,0.69,0.28,1.04,0.42h0.01c2.08,1.59,5.02,2.89,9.18,3.42c4.19,0.53,7.53-0.11,9.97-1.9h0.01
			C38.72,23.57,38.93,23.54,39.1,23.52z"/>
		<path class="st31" d="M38.45,23.6c-2.44,1.79-5.79,2.43-9.98,1.9c-4.18-0.53-7.12-1.83-9.2-3.42c1.55,0.57,3.21,0.99,4.91,1.27
			h0.01c0.54,0.19,1.13,0.35,1.74,0.5c0.76,0.18,1.57,0.33,2.45,0.43c2.48,0.33,4.65,0.18,6.47-0.42
			C36.38,23.79,37.63,23.68,38.45,23.6z"/>
		<path class="st32" d="M21.38,22.08c0.81,0.47,1.74,0.91,2.79,1.27c-1.7-0.28-3.36-0.71-4.91-1.27c-0.53-0.42-1-0.84-1.42-1.27
			c-3.42-3.51-3.58-7.76-3.57-8.68l1.25,0.08C15.54,13.44,15.89,18.85,21.38,22.08z"/>
		<path class="st32" d="M42.84,13.94c0,0.92-0.18,5.79-3.53,8.92c-0.03,0.03-0.05,0.05-0.08,0.08c-0.26,0.23-0.52,0.45-0.79,0.65
			c-0.81,0.08-2.06,0.19-3.59,0.27c0.62-0.19,1.19-0.45,1.74-0.75c0.58-0.33,1.11-0.72,1.6-1.17c3-2.75,3.28-6.98,3.31-8.1
			L42.84,13.94z"/>
		<path class="st33" d="M41.14,13.83l-1.71-0.11c0.78,0.7,0.52,1.72,0.52,1.73c-0.02,0.07-0.5,1.55-1.08,2.36
			c-0.44,0.6-1.18,0.55-1.64,0.44c-0.22-0.05-0.38-0.12-0.39-0.13L36.8,18.1l-7.05-4.99l-2.22-0.14c-0.49,0.52-3.7,3.92-5.41,5.03
			c-0.68,0.44-1.32,0.48-1.86,0.35c-1.01-0.24-1.69-1.07-1.7-1.08c-0.03-0.05-0.62-0.9-1.12-2.71c-0.16-0.57-0.11-1.08,0.14-1.51
			c0.17-0.31,0.43-0.52,0.66-0.67l-2.37-0.15c0.01,1.61,0.66,10.19,12.55,11.71c4.12,0.52,7.33-0.23,9.53-2.24
			C40.88,19.02,41.12,14.86,41.14,13.83z M28.4,22.45c-0.46,0.37-1.13,0.45-1.98,0.26l-0.08-0.02c-2.34-0.56-3.6-1.72-3.65-1.77
			c-0.01-0.01-0.39-0.37-0.39-0.96c0-0.52,0.28-1.05,0.83-1.58c1.41-1.34,4.91-4.95,4.94-4.98l0.27-0.28l0.69,8
			C29.03,21.17,29.01,21.96,28.4,22.45z M36,20.42c-0.02,0.04-0.67,1.49-2.99,2.32c-0.45,0.16-0.88,0.2-1.26,0.1
			c-0.16-0.04-0.32-0.1-0.47-0.18c-1.04-0.58-1.37-2.05-1.38-2.11l-0.73-7.38l0.33,0.29c0.05,0.04,5.15,4.4,6.06,5.11
			C36.38,19.21,36.21,20.06,36,20.42z"/>
		<path class="st34" d="M39.6,15.36c0,0.01-0.48,1.48-1.03,2.25c-0.45,0.62-1.45,0.25-1.59,0.2l-6.57-4.65l8.25,0.52
			C39.89,14.17,39.62,15.31,39.6,15.36z"/>
		<path class="st34" d="M27.08,12.94c-0.86,0.9-3.65,3.78-5.15,4.76c-1.66,1.08-3.04-0.59-3.09-0.65c-0.01-0.01-0.58-0.85-1.06-2.59
			c-0.13-0.48-0.1-0.89,0.1-1.24c0.31-0.55,0.96-0.76,1.09-0.8L27.08,12.94z"/>
	</g>
	<g>
		<path class="st29" d="M29.03,21.12l-0.69-8l-0.27,0.28c-0.03,0.04-3.53,3.64-4.94,4.98c-0.55,0.52-0.83,1.06-0.83,1.58
			c0,0.59,0.37,0.95,0.39,0.96c0.05,0.05,1.31,1.22,3.65,1.77l0.08,0.02c0.85,0.2,1.51,0.11,1.98-0.26
			C29.01,21.96,29.03,21.17,29.03,21.12z M28.18,22.18c-0.37,0.3-0.94,0.36-1.68,0.19c-2.3-0.51-3.56-1.7-3.57-1.71
			c0,0-0.28-0.26-0.28-0.71c0-0.42,0.24-0.87,0.72-1.32c1.19-1.12,3.84-3.84,4.68-4.71l0.62,7.21
			C28.67,21.14,28.66,21.79,28.18,22.18z"/>
		<path class="st34" d="M28.18,22.18c-0.37,0.3-0.94,0.36-1.68,0.19c-2.3-0.51-3.56-1.7-3.57-1.71c0,0-0.28-0.26-0.28-0.71
			c0-0.42,0.24-0.87,0.72-1.32c1.19-1.12,3.84-3.84,4.68-4.71l0.62,7.21C28.67,21.14,28.66,21.79,28.18,22.18z"/>
	</g>
	<g>
		<path class="st29" d="M35.56,18.56c-0.9-0.71-6.01-5.07-6.06-5.11l-0.33-0.29l0.73,7.38c0.01,0.06,0.34,1.53,1.38,2.11
			c0.15,0.09,0.31,0.15,0.47,0.18c0.39,0.09,0.81,0.06,1.26-0.1c2.32-0.83,2.97-2.27,2.99-2.32C36.21,20.06,36.38,19.21,35.56,18.56
			z M35.69,20.26c-0.01,0.02-0.63,1.37-2.8,2.15c-0.55,0.2-1.03,0.18-1.44-0.05c-0.9-0.5-1.21-1.86-1.21-1.86L29.6,14
			c1.16,0.98,4.97,4.23,5.74,4.84C36.13,19.46,35.72,20.22,35.69,20.26z"/>
		<path class="st34" d="M35.69,20.26c-0.01,0.02-0.63,1.37-2.8,2.15c-0.55,0.2-1.03,0.18-1.44-0.05c-0.9-0.5-1.21-1.86-1.21-1.86
			L29.6,14c1.16,0.98,4.97,4.23,5.74,4.84C36.13,19.46,35.72,20.22,35.69,20.26z"/>
	</g>
	<g>
		<path class="st31" d="M33.09,23.92c-1.38,0.23-2.94,0.23-4.67,0.01c-0.43-0.05-0.85-0.12-1.26-0.2c1.64,0.15,3.26,0.2,4.73,0.2
			C32.3,23.94,32.7,23.94,33.09,23.92z"/>
		<path class="st1" d="M39.46,23.46c-0.04,0.01-0.16,0.03-0.37,0.05c-0.16,0.03-0.38,0.05-0.65,0.08h-0.01
			c-0.81,0.08-2.06,0.19-3.58,0.27h-0.01c-0.54,0.03-1.14,0.04-1.75,0.05c-0.39,0.01-0.79,0.01-1.19,0.01
			c-1.48,0-3.09-0.05-4.73-0.2c-0.01,0-0.03-0.01-0.05,0c-0.96-0.09-1.94-0.22-2.92-0.38h-0.01c-1.7-0.28-3.35-0.71-4.9-1.27h-0.01
			c-0.35-0.14-0.71-0.27-1.04-0.42c-0.3-0.12-0.6-0.26-0.88-0.41l0.11-0.35l0.07-0.24c0.11,0.05,0.2,0.11,0.31,0.15h0.01
			c1.09,0.53,2.29,0.95,3.54,1.27h0.01c0.46,0.12,0.92,0.23,1.4,0.34c4.58,0.95,9.59,0.94,12.9,0.76c0.31-0.01,0.61-0.04,0.88-0.05
			h0.01c1.51-0.11,2.51-0.23,2.73-0.26c0.04-0.01,0.05-0.01,0.05-0.01l0.05,0.39L39.46,23.46z"/>
	</g>
</g>
<g id="Capa_10">
</g>
</svg>
