<?xml version="1.0" standalone="no"?>
<!DOCTYPE svg PUBLIC "-//W3C//DTD SVG 20010904//EN"
 "http://www.w3.org/TR/2001/REC-SVG-20010904/DTD/svg10.dtd">
<svg version="1.0" xmlns="http://www.w3.org/2000/svg"
 width="678.000000pt" height="1280.000000pt" viewBox="0 0 678.000000 1280.000000"
 preserveAspectRatio="xMidYMid meet">
<metadata>
Created by potrace 1.15, written by Peter Selinger 2001-2017
</metadata>
<g transform="translate(0.000000,1280.000000) scale(0.100000,-0.100000)"
fill="#f2d7d7" stroke="none">
<path d="M3629 12778 c-311 -109 -630 -590 -807 -1218 -95 -335 -132 -588
-132 -911 0 -177 18 -452 35 -526 l5 -23 -1310 0 -1310 0 0 -90 0 -90 1320 2
1319 3 11 -70 c40 -257 118 -733 145 -877 l24 -130 -222 -229 -222 -229 -1197
0 -1198 0 0 -90 0 -90 1110 0 1111 0 -153 -167 c-450 -493 -713 -854 -901
-1235 l-82 -167 -537 0 -538 -1 0 -90 0 -90 500 0 c275 0 500 -3 500 -6 0 -3
-13 -49 -30 -102 -36 -117 -74 -293 -91 -422 -16 -120 -16 -495 0 -620 19
-152 53 -347 67 -384 6 -15 -35 -16 -475 -16 l-481 0 0 -90 0 -90 503 0 503 0
33 -97 c226 -671 698 -1216 1261 -1459 36 -15 68 -30 72 -33 4 -3 -518 -6
-1160 -6 l-1167 0 -3 -88 -3 -87 1970 0 c1867 0 1970 -1 1975 -17 10 -32 124
-723 155 -938 56 -392 65 -480 65 -700 0 -197 -2 -216 -27 -308 -15 -54 -40
-127 -57 -163 -159 -352 -550 -581 -954 -561 -180 9 -309 56 -410 148 -60 55
-109 142 -120 215 l-6 41 78 6 c169 13 304 77 429 202 64 65 89 99 121 166 52
110 66 173 66 294 -2 234 -129 444 -341 562 -209 118 -500 108 -695 -24 -58
-39 -153 -121 -240 -206 -133 -133 -209 -398 -195 -686 10 -219 92 -381 287
-564 382 -360 1033 -517 1538 -371 420 122 696 438 792 905 72 350 46 647
-145 1692 -30 164 -55 300 -55 303 0 2 523 4 1163 4 l1162 0 3 85 3 85 -1182
0 c-650 0 -1179 3 -1176 6 3 4 49 26 101 49 457 206 795 574 956 1041 43 125
84 311 96 432 l7 72 583 0 584 0 0 90 0 90 -585 0 -585 0 0 70 c0 136 -42 358
-101 531 -135 400 -385 714 -739 928 l-35 21 1038 0 1037 0 0 90 0 90 -1545 0
-1545 0 -5 23 c-21 100 -152 740 -200 985 l-36 183 101 106 c56 59 134 144
173 190 l71 83 1488 0 1488 0 0 90 0 90 -1415 0 c-778 0 -1415 2 -1415 5 0 3
25 41 55 83 261 373 466 872 555 1347 6 33 13 70 16 83 l4 22 1090 0 1090 0 0
90 0 90 -1078 0 -1077 0 12 103 c19 150 28 731 14 912 -70 952 -391 1652 -766
1672 -54 3 -85 -1 -136 -19z m340 -1124 c96 -28 178 -134 216 -281 41 -155 43
-424 5 -625 -35 -182 -120 -420 -205 -574 l-34 -61 -442 -7 c-242 -4 -444 -5
-447 -2 -8 8 24 259 48 381 113 562 356 999 636 1139 92 46 146 53 223 30z
m-144 -1751 c-77 -120 -270 -368 -425 -548 -100 -115 -251 -279 -261 -283 -7
-3 -11 17 -34 173 -44 300 -70 578 -59 645 l7 40 394 0 395 0 -17 -27z m-565
-2791 c50 -255 90 -466 87 -468 -2 -2 -287 -3 -633 -2 l-629 3 165 169 c91 93
277 268 415 390 137 121 303 269 370 328 l120 107 7 -32 c4 -18 48 -241 98
-495z m-106 -715 c-311 -177 -542 -422 -689 -730 -99 -205 -140 -395 -133
-618 l3 -139 -402 0 -402 0 -7 47 c-13 86 3 459 25 585 52 295 159 567 320
811 l71 107 662 0 662 0 -110 -63z m821 -641 c112 -21 177 -42 270 -88 207
-103 393 -298 502 -528 33 -70 83 -203 83 -222 0 -4 -196 -8 -435 -8 -239 0
-435 2 -435 4 0 2 -16 77 -35 167 -19 90 -57 274 -85 409 -28 135 -52 253 -54
263 -4 15 4 17 52 17 32 0 93 -7 137 -14z m-366 -398 c41 -205 77 -390 81
-410 l7 -38 -413 0 -414 0 0 33 c0 46 35 177 68 255 76 182 230 353 406 452
60 34 163 79 181 80 6 0 44 -168 84 -372z m-1190 -725 c107 -258 307 -487 583
-667 86 -56 337 -192 342 -185 1 2 12 19 23 38 l21 34 -107 106 c-138 137
-227 257 -301 406 -57 113 -110 279 -110 341 l0 24 432 -2 432 -3 43 -215 c23
-118 56 -285 72 -370 17 -85 44 -227 61 -315 80 -411 92 -488 78 -496 -18 -11
-214 -56 -313 -70 -135 -21 -450 -16 -587 9 -620 113 -1109 449 -1357 931 -82
161 -119 267 -175 504 l-6 27 415 -2 416 -3 38 -92z m2454 75 c14 -59 18 -213
7 -308 -23 -213 -90 -409 -193 -566 -73 -113 -214 -254 -327 -329 -52 -35 -95
-63 -96 -62 -1 1 -29 137 -63 302 -52 259 -94 464 -182 884 -10 51 -19 95 -19
97 0 2 195 4 434 4 l434 0 5 -22z"/>
</g>
</svg>
